{
.appVersion = "3227";
.formatVersion = 3;
classes = (
{
automatic = 1;
code = "A Aacute Abreve Abreveacute Abrevedotbelow Abrevegrave Abrevehookabove Abrevetilde Acircumflex Acircumflexacute Acircumflexdotbelow Acircumflexgrave Acircumflexhookabove Acircumflextilde Adblgrave Adieresis Adotbelow Agrave Ahookabove Ainvertedbreve Amacron Aogonek Aring Aringacute Atilde AE AEacute B C Cacute Ccaron Ccedilla Ccircumflex Cdotaccent D DZcaron Dcaron Dcroat Dzcaron Eth E Eacute Ebreve Ecaron Ecircumflex Ecircumflexacute Ecircumflexdotbelow Ecircumflexgrave Ecircumflexhookabove Ecircumflextilde Edblgrave Edieresis Edotaccent Edotbelow Egrave Ehookabove Einvertedbreve Emacron Eogonek Etilde Schwa F G Gbreve Gcaron Gcircumflex Gcommaaccent Gdotaccent H Hbar Hcircumflex I IJ Iacute Ibreve Icircumflex Idblgrave Idieresis Idotaccent Idotbelow Igrave Ihookabove Iinvertedbreve Imacron Iogonek Itilde J Jcircumflex K Kcommaaccent L LJ Lacute Lcaron Lcommaaccent Ldot Lj Lslash M N NJ Nacute Ncaron Ncommaaccent Nj Ntilde Eng O Oacute Obreve Ocircumflex Ocircumflexacute Ocircumflexdotbelow Ocircumflexgrave Ocircumflexhookabove Ocircumflextilde Odblgrave Odieresis Odieresismacron Odotaccentmacron Odotbelow Ograve Ohookabove Ohorn Ohornacute Ohorndotbelow Ohorngrave Ohornhookabove Ohorntilde Ohungarumlaut Oinvertedbreve Omacron Oogonek Oslash Oslashacute Otilde Otildemacron OE P Thorn Q R Racute Rcaron Rcommaaccent Rdblgrave Rinvertedbreve S Sacute Scaron Scedilla Scircumflex Scommaaccent Germandbls T Tbar Tcaron Tcedilla Tcommaaccent U Uacute Ubreve Ucircumflex Udblgrave Udieresis Udotbelow Ugrave Uhookabove Uhorn Uhornacute Uhorndotbelow Uhorngrave Uhornhookabove Uhorntilde Uhungarumlaut Uinvertedbreve Umacron Uogonek Uring Utilde V W Wacute Wcircumflex Wdieresis Wgrave X Y Yacute Ycircumflex Ydieresis Ydotbelow Ygrave Yhookabove Ymacron Ytilde Z Zacute Zcaron Zdotaccent";
name = Uppercase;
}
);
customParameters = (
{
name = unicodeRanges;
value = (
0,
1,
2
);
},
{
name = fsType;

glyphs = (
{
color = 4;
glyphname = A;
kernLeft = A;
kernRight = A;
lastChange = "2023-11-24 14:34:00 +0000";
layers = (
{
anchors = (
{
name = bottom;
pos = (296,-35);
},
{
name = ogonek;
pos = (437,10);
},
{
name = top.case;
pos = (362,740);
}
);
background = {
anchors = (
{
name = bottom;
pos = (296,-35);
},
{
name = ogonek;
pos = (437,10);
},
{
name = top.case;
pos = (362,740);
}
);
shapes = (
{
closed = 1;
nodes = (
(157,-43,o),
(139,-29,o),
(156,24,cs),
(205,176,o),
(267,327,o),
(343,502,cs),
(347,511,o),
(349,520,o),
(349,530,cs),
(349,577,o),
(306,628,o),
(272,628,cs),
(259,628,o),
(247,620,o),
(239,602,cs),
(158,417,o),
(101,265,o),
(60,142,cs),
(50,110,o),
(45,83,o),
(45,60,cs),
(45,-10,o),
(86,-43,o),
(132,-43,cs)
);
},
{
closed = 1;
nodes = (
(117,82,o),
(121,82,o),
(126,83,cs),
(470,136,ls),
(479,137,o),
(487,137,o),
(496,137,cs),
(504,137,o),
(513,137,o),
(520,137,cs),
(542,137,o),
(559,140,o),
(559,161,cs),
(559,210,o),
(490,245,o),
(448,245,cs),
(444,245,o),
(441,244,o),
(438,244,cs),
(84,194,ls),
(33,187,o),
(17,181,o),
(16,171,cs),
(16,141,o),
(53,82,o),
(112,82,cs)
);
},
{
closed = 1;
nodes = (
(489,-14,o),
(513,2,o),
(505,16,cs),
(480,60,o),
(429,463,o),
(424,604,cs),
(421,679,o),
(363,726,o),
(323,726,cs),
(301,726,o),
(285,712,o),
(287,680,cs),
(299,459,o),
(335,294,o),
(368,101,cs),
(383,12,o),
(420,-14,o),
(465,-14,cs)
);
}
);
};
hints = (
{
horizontal = 1;
place = (-14,21);
target = up;
type = BottomGhost;
},
{
horizontal = 1;
place = (728,-20);
target = down;
type = TopGhost;
}
);
layerId = "053302AA-4A2A-42DC-B919-9CC4D126D2B5";
shapes = (
{
closed = 1;
nodes = (
(157,-43,o),
(139,-29,o),
(156,24,cs),
(205,176,o),
(267,327,o),
(343,502,cs),
(347,511,o),
(349,520,o),
(349,530,cs),
(349,577,o),
(306,628,o),
(272,628,cs),
(259,628,o),
(247,620,o),
(239,602,cs),
(158,417,o),
(101,265,o),
(60,142,cs),
(50,110,o),
(45,83,o),
(45,60,cs),
(45,-10,o),
(86,-43,o),
(132,-43,cs)
);
},
{
closed = 1;
nodes = (
(117,82,o),
(121,82,o),
(126,83,cs),
(470,136,ls),
(479,137,o),
(487,137,o),
(496,137,cs),
(504,137,o),
(513,137,o),
(520,137,cs),
(542,137,o),
(559,140,o),
(559,161,cs),
(559,210,o),
(490,245,o),
(448,245,cs),
(444,245,o),
(441,244,o),
(438,244,cs),
(84,194,ls),
(33,187,o),
(17,181,o),
(16,171,cs),
(16,141,o),
(53,82,o),
(112,82,cs)
);
},
{
closed = 1;
nodes = (
(489,-14,o),
(513,2,o),
(505,16,cs),
(480,60,o),
(429,463,o),
(424,604,cs),
(421,679,o),
(363,726,o),
(323,726,cs),
(301,726,o),
(285,712,o),
(287,680,cs),
(299,459,o),
(335,294,o),
(368,101,cs),
(383,12,o),
(420,-14,o),
(465,-14,cs)
);
}
);
width = 590;
},
{
associatedMasterId = "053302AA-4A2A-42DC-B919-9CC4D126D2B5";
background = {
shapes = (
{
closed = 1;
nodes = (
(489,193,l),
(546,205,o),
(565,213,o),
(565,223,cs),
(564,241,o),
(503,290,o),
(465,307,c),
(407,579,ls),
(388,667,o),
(357,728,o),
(261,728,cs),
(236,728,o),
(222,724,o),
(213,710,c),
(221,681,o),
(228,660,o),
(237,633,c),
(182,511,o),
(112,346,o),
(63,235,c),
(21,230,o),
(-4,214,o),
(-4,206,cs),
(-4,196,o),
(10,173,o),
(28,155,c),
(-15,57,ls),
(-34,15,o),
(21,-14,o),
(82,-14,cs),
(105,-14,o),
(127,-3,o),
(136,20,cs),
(179,129,l),
(338,162,l),
(360,51,ls),
(368,13,o),
(445,-14,o),
(490,-14,cs),
(514,-14,o),
(531,1,o),
(528,16,cs)
);
},
{
closed = 1;
nodes = (
(295,455,l),
(297,455,l),
(316,288,l),
(231,270,l)
);
}
);
};
hints = (
{
horizontal = 1;
place = (-14,21);
target = up;
type = BottomGhost;
},
{
horizontal = 1;
place = (728,-20);
target = down;
type = TopGhost;
}
);
layerId = "EA1561C9-D81A-4638-BF1F-74A0B01A045B";
name = "Mar 23 20, 17:59";
shapes = (
{
closed = 1;
nodes = (
(489,193,l),
(546,205,o),
(565,213,o),
(565,223,cs),
(564,241,o),
(503,290,o),
(465,307,c),
(407,579,ls),
(388,667,o),
(357,728,o),
(261,728,cs),
(236,728,o),
(222,724,o),
(213,710,c),
(221,681,o),
(228,660,o),
(237,633,c),
(182,511,o),
(112,346,o),
(63,235,c),
(21,230,o),
(-4,214,o),
(-4,206,cs),
(-4,196,o),
(10,173,o),
(28,155,c),
(-15,57,ls),
(-34,15,o),
(21,-14,o),
(82,-14,cs),
(105,-14,o),
(127,-3,o),
(136,20,cs),
(179,129,l),
(338,162,l),
(360,51,ls),
(368,13,o),
(445,-14,o),
(490,-14,cs),
(514,-14,o),
(531,1,o),
(528,16,cs)
);
},
{
closed = 1;
nodes = (
(295,455,l),
(297,455,l),
(316,288,l),
(231,270,l)
);
}
);
width = 570;
}
);
note = A;
unicode = 65;
},
{
color = 4;
glyphname = Aacute;
kernLeft = A;
kernRight = A;
lastChange = "2023-11-24 14:34:08 +0000";
layers = (
{
background = {
anchors = (
{
name = bottom;
pos = (296,-35);
},
{
name = ogonek;
pos = (437,10);
},
{
name = top.case;
pos = (362,740);
}
);
hints = (
{
horizontal = 1;
place = (-14,21);
target = up;
type = BottomGhost;
},
{
horizontal = 1;
place = (728,-20);
target = down;
type = TopGhost;
}
);
shapes = (
{
closed = 1;
nodes = (
(157,-43,o),
(139,-29,o),
(156,24,cs),
(205,176,o),
(267,327,o),
(343,502,cs),
(347,511,o),
(349,520,o),
(349,530,cs),
(349,577,o),
(306,628,o),
(272,628,cs),
(259,628,o),
(247,620,o),
(239,602,cs),
(158,417,o),
(101,265,o),
(60,142,cs),
(50,110,o),
(45,83,o),
(45,60,cs),
(45,-10,o),
(86,-43,o),
(132,-43,cs)
);
},
{
closed = 1;
nodes = (
(117,82,o),
(121,82,o),
(126,83,cs),
(470,136,ls),
(479,137,o),
(487,137,o),
(496,137,cs),
(504,137,o),
(513,137,o),
(520,137,cs),
(542,137,o),
(559,140,o),
(559,161,cs),
(559,210,o),
(490,245,o),
(448,245,cs),
(444,245,o),
(441,244,o),
(438,244,cs),
(84,194,ls),
(33,187,o),
(17,181,o),
(16,171,cs),
(16,141,o),
(53,82,o),
(112,82,cs)
);
},
{
closed = 1;
nodes = (
(489,-14,o),
(513,2,o),
(505,16,cs),
(480,60,o),
(429,463,o),
(424,604,cs),
(421,679,o),
(363,726,o),
(323,726,cs),
(301,726,o),
(285,712,o),
(287,680,cs),
(299,459,o),
(335,294,o),
(368,101,cs),
(383,12,o),
(420,-14,o),
(465,-14,cs)
);
},
{
closed = 1;
nodes = (
(414,762,o),
(549,817,o),
(549,867,cs),
(549,905,o),
(517,953,o),
(484,953,cs),
(475,953,o),
(465,949,o),
(456,940,cs),
(416,899,o),
(351,843,o),
(321,817,cs),
(315,812,o),
(312,805,o),
(312,799,cs),
(312,781,o),
(334,762,o),
(360,762,cs)
);
}
);
};
hints = (
{
horizontal = 1;
place = (-14,21);
target = up;
type = BottomGhost;
},
{
horizontal = 1;
place = (728,-20);
target = down;
type = TopGhost;
},
{
horizontal = 1;
place = (762,21);
target = up;
type = BottomGhost;
},
{
horizontal = 1;
place = (933,-20);
target = down;
type = TopGhost;
},
{
place = (217,262);
type = Stem;
}
);
layerId = "053302AA-4A2A-42DC-B919-9CC4D126D2B5";
shapes = (
{
ref = A;
},
{
pos = (427,0);
ref = acutecomb.case;
}
);
width = 590;
}
);
note = Aacute;
unicode = 193;
},
{
color = 4;
glyphname = Abreve;
kernLeft = A;
kernRight = A;
lastChange = "2023-11-24 14:34:08 +0000";
layers = (
{
background = {
anchors = (
{
name = bottom;
pos = (296,-35);
},
{
name = ogonek;
pos = (437,10);
},
{
name = top.case;
pos = (394,941);
}
);
hints = (
{
horizontal = 1;
place = (-14,21);
target = up;
type = BottomGhost;
},
{
horizontal = 1;
place = (728,-20);
target = down;
type = TopGhost;
},
{
horizontal = 1;
place = (757,199);
type = Stem;
},
{
horizontal = 1;
place = (757,120);
type = Stem;
},
{
horizontal = 1;
place = (757,179);
type = Stem;
}
);
shapes = (
{
closed = 1;
nodes = (
(157,-43,o),
(139,-29,o),
(156,24,cs),
(205,176,o),
(267,327,o),
(343,502,cs),
(347,511,o),
(349,520,o),
(349,530,cs),
(349,577,o),
(306,628,o),
(272,628,cs),
(259,628,o),
(247,620,o),
(239,602,cs),
(158,417,o),
(101,265,o),
(60,142,cs),
(50,110,o),
(45,83,o),
(45,60,cs),
(45,-10,o),
(86,-43,o),
(132,-43,cs)
);
},
{
closed = 1;
nodes = (
(117,82,o),
(121,82,o),
(126,83,cs),
(470,136,ls),
(479,137,o),
(487,137,o),
(496,137,cs),
(504,137,o),
(513,137,o),
(520,137,cs),
(542,137,o),
(559,140,o),
(559,161,cs),
(559,210,o),
(490,245,o),
(448,245,cs),
(444,245,o),
(441,244,o),
(438,244,cs),
(84,194,ls),
(33,187,o),
(17,181,o),
(16,171,cs),
(16,141,o),
(53,82,o),
(112,82,cs)
);
},
{
closed = 1;
nodes = (
(489,-14,o),
(513,2,o),
(505,16,cs),
(480,60,o),
(429,463,o),
(424,604,cs),
(421,679,o),
(363,726,o),
(323,726,cs),
(301,726,o),
(285,712,o),
(287,680,cs),
(299,459,o),
(335,294,o),
(368,101,cs),
(383,12,o),
(420,-14,o),
(465,-14,cs)
);
},
{
closed = 1;
nodes = (
(438,758,o),
(528,810,o),
(548,915,cs),
(552,934,o),
(537,942,o),
(518,942,cs),
(495,942,o),
(467,930,o),
(457,910,cs),
(441,877,o),
(415,860,o),
(391,860,cs),
(358,860,o),
(329,891,o),
(334,953,cs),
(335,968,o),
(317,977,o),
(294,977,cs),
(259,977,o),
(212,954,o),
(212,895,cs),
(212,803,o),
(281,758,o),
(357,758,cs)
);
}
);
};
hints = (
{
horizontal = 1;
place = (-14,21);
target = up;
type = BottomGhost;
},
{
horizontal = 1;
place = (728,-20);
target = down;
type = TopGhost;
},
{
horizontal = 1;
place = (762,199);
type = Stem;
},
{
horizontal = 1;
place = (762,120);
type = Stem;
},
{
horizontal = 1;
place = (762,179);
type = Stem;
}
);
layerId = "053302AA-4A2A-42DC-B919-9CC4D126D2B5";
shapes = (
{
ref = A;
},
{
pos = (381,0);
ref = brevecomb.case;
}
);
width = 590;
}
);
note = Abreve;
unicode = 258;
},
{
color = 4;
glyphname = Abreveacute;
lastChange = "2023-11-24 14:34:08 +0000";
layers = (
{
background = {
anchors = (
{
name = bottom;
pos = (296,-35);
},
{
name = ogonek;
pos = (437,10);
},
{
name = top.case;
pos = (394,941);
}
);
hints = (
{
horizontal = 1;
place = (-14,21);
target = up;
type = BottomGhost;
},
{
horizontal = 1;
place = (728,-20);
target = down;
type = TopGhost;
},
{
horizontal = 1;
place = (757,199);
type = Stem;
},
{
horizontal = 1;
place = (757,120);
type = Stem;
},
{
horizontal = 1;
place = (757,179);
type = Stem;
}
);
shapes = (
{
closed = 1;
nodes = (
(157,-43,o),
(139,-29,o),
(156,24,cs),
(205,176,o),
(267,327,o),
(343,502,cs),
(347,511,o),
(349,520,o),
(349,530,cs),
(349,577,o),
(306,628,o),
(272,628,cs),
(259,628,o),
(247,620,o),
(239,602,cs),
(158,417,o),
(101,265,o),
(60,142,cs),
(50,110,o),
(45,83,o),
(45,60,cs),
(45,-10,o),
(86,-43,o),
(132,-43,cs)
);
},
{
closed = 1;
nodes = (
(117,82,o),
(121,82,o),
(126,83,cs),
(470,136,ls),
(479,137,o),
(487,137,o),
(496,137,cs),
(504,137,o),
(513,137,o),
(520,137,cs),
(542,137,o),
(559,140,o),
(559,161,cs),
(559,210,o),
(490,245,o),
(448,245,cs),
(444,245,o),
(441,244,o),
(438,244,cs),
(84,194,ls),
(33,187,o),
(17,181,o),
(16,171,cs),
(16,141,o),
(53,82,o),
(112,82,cs)
);
},
{
closed = 1;
nodes = (
(489,-14,o),
(513,2,o),
(505,16,cs),
(480,60,o),
(429,463,o),
(424,604,cs),
(421,679,o),
(363,726,o),
(323,726,cs),
(301,726,o),
(285,712,o),
(287,680,cs),
(299,459,o),
(335,294,o),
(368,101,cs),
(383,12,o),
(420,-14,o),
(465,-14,cs)
);
},
{
closed = 1;
nodes = (
(438,758,o),
(528,810,o),
(548,915,cs),
(552,934,o),
(537,942,o),
(518,942,cs),
(495,942,o),
(467,930,o),
(457,910,cs),
(441,877,o),
(415,860,o),
(391,860,cs),
(358,860,o),
(329,891,o),
(334,953,cs),
(335,968,o),
(317,977,o),
(294,977,cs),
(259,977,o),
(212,954,o),
(212,895,cs),
(212,803,o),
(281,758,o),
(357,758,cs)
);
},
{
closed = 1;
nodes = (
(446,963,o),
(581,1018,o),
(581,1068,cs),
(581,1106,o),
(549,1154,o),
(516,1154,cs),
(507,1154,o),
(497,1150,o),
(488,1141,cs),
(448,1100,o),
(383,1044,o),
(353,1018,cs),
(347,1013,o),
(344,1006,o),
(344,1000,cs),
(344,982,o),
(366,963,o),
(392,963,cs)
);
}
);
};
layerId = "053302AA-4A2A-42DC-B919-9CC4D126D2B5";
shapes = (
{
ref = A;
},
{
pos = (381,0);
ref = brevecomb.case;
},
{
pos = (459,201);
ref = acutecomb.case;
}
);
width = 590;
}
);
unicode = 7854;
},
{
color = 4;
glyphname = Abrevedotbelow;
lastChange = "2023-11-24 14:34:08 +0000";
layers = (
{
background = {
anchors = (
{
name = bottom;
pos = (296,-35);
},
{
name = ogonek;
pos = (437,10);
},
{
name = top.case;
pos = (394,941);
}
);
hints = (
{
horizontal = 1;
place = (-14,21);
target = up;
type = BottomGhost;
},
{
horizontal = 1;
place = (728,-20);
target = down;
type = TopGhost;
},
{
horizontal = 1;
place = (-208,165);
type = Stem;
},
{
place = (212,146);
type = Stem;
},
{
place = (212,168);
type = Stem;
},
{
horizontal = 1;
place = (757,199);
type = Stem;
},
{
horizontal = 1;
place = (757,120);
type = Stem;
},
{
horizontal = 1;
place = (757,179);
type = Stem;
}
);
shapes = (
{
closed = 1;
nodes = (
(157,-43,o),
(139,-29,o),
(156,24,cs),
(205,176,o),
(267,327,o),
(343,502,cs),
(347,511,o),
(349,520,o),
(349,530,cs),
(349,577,o),
(306,628,o),
(272,628,cs),
(259,628,o),
(247,620,o),
(239,602,cs),
(158,417,o),
(101,265,o),
(60,142,cs),
(50,110,o),
(45,83,o),
(45,60,cs),
(45,-10,o),
(86,-43,o),
(132,-43,cs)
);
},
{
closed = 1;
nodes = (
(117,82,o),
(121,82,o),
(126,83,cs),
(470,136,ls),
(479,137,o),
(487,137,o),
(496,137,cs),
(504,137,o),
(513,137,o),
(520,137,cs),
(542,137,o),
(559,140,o),
(559,161,cs),
(559,210,o),
(490,245,o),
(448,245,cs),
(444,245,o),
(441,244,o),
(438,244,cs),
(84,194,ls),
(33,187,o),
(17,181,o),
(16,171,cs),
(16,141,o),
(53,82,o),
(112,82,cs)
);
},
{
closed = 1;
nodes = (
(489,-14,o),
(513,2,o),
(505,16,cs),
(480,60,o),
(429,463,o),
(424,604,cs),
(421,679,o),
(363,726,o),
(323,726,cs),
(301,726,o),
(285,712,o),
(287,680,cs),
(299,459,o),
(335,294,o),
(368,101,cs),
(383,12,o),
(420,-14,o),
(465,-14,cs)
);
},
{
closed = 1;
nodes = (
(339,-208,o),
(346,-207,o),
(358,-204,c),
(368,-132,o),
(380,-96,o),
(380,-65,cs),
(380,-57,o),
(375,-55,o),
(363,-52,cs),
(340,-46,o),
(320,-43,o),
(301,-43,cs),
(284,-43,o),
(258,-44,o),
(242,-47,cs),
(213,-54,o),
(213,-91,o),
(211,-116,cs),
(206,-191,o),
(261,-208,o),
(328,-208,cs)
);
},
{
closed = 1;
nodes = (
(438,758,o),
(528,810,o),
(548,915,cs),
(552,934,o),
(537,942,o),
(518,942,cs),
(495,942,o),
(467,930,o),
(457,910,cs),
(441,877,o),
(415,860,o),
(391,860,cs),
(358,860,o),
(329,891,o),
(334,953,cs),
(335,968,o),
(317,977,o),
(294,977,cs),
(259,977,o),
(212,954,o),
(212,895,cs),
(212,803,o),
(281,758,o),
(357,758,cs)
);
}
);
};
layerId = "053302AA-4A2A-42DC-B919-9CC4D126D2B5";
shapes = (
{
ref = A;
},
{
pos = (296,0);
ref = dotbelowcomb;
},
{
pos = (381,0);
ref = brevecomb.case;
}
);
width = 590;
}
);
unicode = 7862;
},
{
color = 4;
glyphname = Abrevegrave;
lastChange = "2023-11-24 14:34:08 +0000";
layers = (
{
background = {
anchors = (
{
name = bottom;
pos = (296,-35);
},
{
name = ogonek;
pos = (437,10);
},
{
name = top.case;
pos = (394,941);
}
);
hints = (
{
horizontal = 1;
place = (-14,21);
target = up;
type = BottomGhost;
},
{
horizontal = 1;
place = (728,-20);
target = down;
type = TopGhost;
},
{
horizontal = 1;
place = (757,199);
type = Stem;
},
{
horizontal = 1;
place = (757,120);
type = Stem;
},
{
horizontal = 1;
place = (757,179);
type = Stem;
}
);
shapes = (
{
closed = 1;
nodes = (
(157,-43,o),
(139,-29,o),
(156,24,cs),
(205,176,o),
(267,327,o),
(343,502,cs),
(347,511,o),
(349,520,o),
(349,530,cs),
(349,577,o),
(306,628,o),
(272,628,cs),
(259,628,o),
(247,620,o),
(239,602,cs),
(158,417,o),
(101,265,o),
(60,142,cs),
(50,110,o),
(45,83,o),
(45,60,cs),
(45,-10,o),
(86,-43,o),
(132,-43,cs)
);
},
{
closed = 1;
nodes = (
(117,82,o),
(121,82,o),
(126,83,cs),
(470,136,ls),
(479,137,o),
(487,137,o),
(496,137,cs),
(504,137,o),
(513,137,o),
(520,137,cs),
(542,137,o),
(559,140,o),
(559,161,cs),
(559,210,o),
(490,245,o),
(448,245,cs),
(444,245,o),
(441,244,o),
(438,244,cs),
(84,194,ls),
(33,187,o),
(17,181,o),
(16,171,cs),
(16,141,o),
(53,82,o),
(112,82,cs)
);
},
{
closed = 1;
nodes = (
(489,-14,o),
(513,2,o),
(505,16,cs),
(480,60,o),
(429,463,o),
(424,604,cs),
(421,679,o),
(363,726,o),
(323,726,cs),
(301,726,o),
(285,712,o),
(287,680,cs),
(299,459,o),
(335,294,o),
(368,101,cs),
(383,12,o),
(420,-14,o),
(465,-14,cs)
);
},
{
closed = 1;
nodes = (
(438,758,o),
(528,810,o),
(548,915,cs),
(552,934,o),
(537,942,o),
(518,942,cs),
(495,942,o),
(467,930,o),
(457,910,cs),
(441,877,o),
(415,860,o),
(391,860,cs),
(358,860,o),
(329,891,o),
(334,953,cs),
(335,968,o),
(317,977,o),
(294,977,cs),
(259,977,o),
(212,954,o),
(212,895,cs),
(212,803,o),
(281,758,o),
(357,758,cs)
);
},
{
closed = 1;
nodes = (
(474,962,o),
(492,978,o),
(492,995,cs),
(492,1001,o),
(489,1008,o),
(482,1013,cs),
(446,1042,o),
(383,1107,o),
(345,1142,cs),
(337,1150,o),
(327,1153,o),
(316,1153,cs),
(280,1153,o),
(238,1114,o),
(238,1074,cs),
(238,1040,o),
(364,962,o),
(444,962,cs)
);
}
);
};
layerId = "053302AA-4A2A-42DC-B919-9CC4D126D2B5";
shapes = (
{
ref = A;
},
{
pos = (381,0);
ref = brevecomb.case;
},
{
pos = (365,201);
ref = gravecomb.case;
}
);
width = 590;
}
);
unicode = 7856;
},
{
color = 4;
glyphname = Abrevehookabove;
lastChange = "2023-11-24 14:34:08 +0000";
layers = (
{
background = {
anchors = (
{
name = bottom;
pos = (296,-35);
},
{
name = ogonek;
pos = (437,10);
},
{
name = top.case;
pos = (394,941);
}
);
hints = (
{
horizontal = 1;
place = (-14,21);
target = up;
type = BottomGhost;
},
{
horizontal = 1;
place = (728,-20);
target = down;
type = TopGhost;
},
{
horizontal = 1;
place = (757,199);
type = Stem;
},
{
horizontal = 1;
place = (757,120);
type = Stem;
},
{
horizontal = 1;
place = (757,179);
type = Stem;
}
);
shapes = (
{
closed = 1;
nodes = (
(157,-43,o),
(139,-29,o),
(156,24,cs),
(205,176,o),
(267,327,o),
(343,502,cs),
(347,511,o),
(349,520,o),
(349,530,cs),
(349,577,o),
(306,628,o),
(272,628,cs),
(259,628,o),
(247,620,o),
(239,602,cs),
(158,417,o),
(101,265,o),
(60,142,cs),
(50,110,o),
(45,83,o),
(45,60,cs),
(45,-10,o),
(86,-43,o),
(132,-43,cs)
);
},
{
closed = 1;
nodes = (
(117,82,o),
(121,82,o),
(126,83,cs),
(470,136,ls),
(479,137,o),
(487,137,o),
(496,137,cs),
(504,137,o),
(513,137,o),
(520,137,cs),
(542,137,o),
(559,140,o),
(559,161,cs),
(559,210,o),
(490,245,o),
(448,245,cs),
(444,245,o),
(441,244,o),
(438,244,cs),
(84,194,ls),
(33,187,o),
(17,181,o),
(16,171,cs),
(16,141,o),
(53,82,o),
(112,82,cs)
);
},
{
closed = 1;
nodes = (
(489,-14,o),
(513,2,o),
(505,16,cs),
(480,60,o),
(429,463,o),
(424,604,cs),
(421,679,o),
(363,726,o),
(323,726,cs),
(301,726,o),
(285,712,o),
(287,680,cs),
(299,459,o),
(335,294,o),
(368,101,cs),
(383,12,o),
(420,-14,o),
(465,-14,cs)
);
},
{
closed = 1;
nodes = (
(438,758,o),
(528,810,o),
(548,915,cs),
(552,934,o),
(537,942,o),
(518,942,cs),
(495,942,o),
(467,930,o),
(457,910,cs),
(441,877,o),
(415,860,o),
(391,860,cs),
(358,860,o),
(329,891,o),
(334,953,cs),
(335,968,o),
(317,977,o),
(294,977,cs),
(259,977,o),
(212,954,o),
(212,895,cs),
(212,803,o),
(281,758,o),
(357,758,cs)
);
},
{
closed = 1;
nodes = (
(407,972,o),
(416,975,o),
(426,980,cs),
(467,1002,o),
(507,1057,o),
(507,1097,cs),
(507,1156,o),
(451,1202,o),
(325,1202,cs),
(314,1202,o),
(303,1206,o),
(294,1206,cs),
(284,1206,o),
(278,1202,o),
(278,1183,cs),
(278,1149,o),
(282,1085,o),
(321,1085,cs),
(331,1085,o),
(344,1086,o),
(356,1086,cs),
(375,1086,o),
(392,1084,o),
(392,1072,cs),
(392,1061,o),
(379,1046,o),
(369,1032,cs),
(364,1025,o),
(362,1018,o),
(362,1010,cs),
(362,991,o),
(376,972,o),
(399,972,cs)
);
}
);
};
layerId = "053302AA-4A2A-42DC-B919-9CC4D126D2B5";
shapes = (
{
ref = A;
},
{
pos = (381,0);
ref = brevecomb.case;
},
{
pos = (394,201);
ref = hookabovecomb.case;
}
);
width = 590;
}
);
unicode = 7858;
},
{
color = 4;
glyphname = Abrevetilde;
lastChange = "2023-11-24 14:35:16 +0000";
layers = (
{
background = {
anchors = (
{
name = bottom;
pos = (296,-35);
},
{
name = ogonek;
pos = (437,10);
},
{
name = top.case;
pos = (420,1110);
}
);
hints = (
{
horizontal = 1;
place = (-14,21);
target = up;
type = BottomGhost;
},
{
horizontal = 1;
place = (728,-20);
target = down;
type = TopGhost;
},
{
horizontal = 1;
place = (757,199);
type = Stem;
},
{
horizontal = 1;
place = (757,120);
type = Stem;
},
{
horizontal = 1;
place = (757,179);
type = Stem;
},
{
horizontal = 1;
place = (963,164);
type = Stem;
},
{
horizontal = 1;
place = (1132,-20);
target = down;
type = TopGhost;
},
{
horizontal = 1;
place = (949,178);
type = Stem;
},
{
horizontal = 1;
place = (980,164);
type = Stem;
},
{
horizontal = 1;
place = (1149,-20);
target = down;
type = TopGhost;
},
{
horizontal = 1;
place = (966,178);
type = Stem;
}
);
shapes = (
{
closed = 1;
nodes = (
(157,-43,o),
(139,-29,o),
(156,24,cs),
(205,176,o),
(267,327,o),
(343,502,cs),
(347,511,o),
(349,520,o),
(349,530,cs),
(349,577,o),
(306,628,o),
(272,628,cs),
(259,628,o),
(247,620,o),
(239,602,cs),
(158,417,o),
(101,265,o),
(60,142,cs),
(50,110,o),
(45,83,o),
(45,60,cs),
(45,-10,o),
(86,-43,o),
(132,-43,cs)
);
},
{
closed = 1;
nodes = (
(117,82,o),
(121,82,o),
(126,83,cs),
(470,136,ls),
(479,137,o),
(487,137,o),
(496,137,cs),
(504,137,o),
(513,137,o),
(520,137,cs),
(542,137,o),
(559,140,o),
(559,161,cs),
(559,210,o),
(490,245,o),
(448,245,cs),
(444,245,o),
(441,244,o),
(438,244,cs),
(84,194,ls),
(33,187,o),
(17,181,o),
(16,171,cs),
(16,141,o),
(53,82,o),
(112,82,cs)
);
},
{
closed = 1;
nodes = (
(489,-14,o),
(513,2,o),
(505,16,cs),
(480,60,o),
(429,463,o),
(424,604,cs),
(421,679,o),
(363,726,o),
(323,726,cs),
(301,726,o),
(285,712,o),
(287,680,cs),
(299,459,o),
(335,294,o),
(368,101,cs),
(383,12,o),
(420,-14,o),
(465,-14,cs)
);
},
{
closed = 1;
nodes = (
(438,758,o),
(528,810,o),
(548,915,cs),
(552,934,o),
(537,942,o),
(518,942,cs),
(495,942,o),
(467,930,o),
(457,910,cs),
(441,877,o),
(415,860,o),
(391,860,cs),
(358,860,o),
(329,891,o),
(334,953,cs),
(335,968,o),
(317,977,o),
(294,977,cs),
(259,977,o),
(212,954,o),
(212,895,cs),
(212,803,o),
(281,758,o),
(357,758,cs)
);
},
{
closed = 1;
nodes = (
(511,957,o),
(559,1013,o),
(559,1055,cs),
(559,1097,o),
(546,1125,o),
(531,1127,cs),
(523,1127,o),
(514,1124,o),
(503,1110,cs),
(492,1095,o),
(480,1088,o),
(468,1088,cs),
(431,1088,o),
(412,1137,o),
(351,1137,cs),
(305,1137,o),
(257,1081,o),
(257,1039,cs),
(257,997,o),
(270,969,o),
(285,967,cs),
(293,967,o),
(302,970,o),
(314,984,cs),
(324,998,o),
(336,1005,o),
(348,1005,cs),
(383,1005,o),
(410,957,o),
(465,957,cs)
);
}
);
};
layerId = "053302AA-4A2A-42DC-B919-9CC4D126D2B5";
shapes = (
{
ref = A;
},
{
pos = (381,0);
ref = brevecomb.case;
},
{
pos = (394,218);
ref = tildecomb.case;
}
);
width = 590;
}
);
unicode = 7860;
},
{
color = 4;
glyphname = Acircumflex;
kernLeft = A;
kernRight = A;
lastChange = "2023-11-24 14:34:08 +0000";
layers = (
{
background = {
anchors = (
{
name = bottom;
pos = (296,-35);
},
{
name = ogonek;
pos = (437,10);
},
{
name = top.case;
pos = (367,984);
}
);
hints = (
{
horizontal = 1;
place = (-14,21);
target = up;
type = BottomGhost;
},
{
horizontal = 1;
place = (728,-20);
target = down;
type = TopGhost;
},
{
horizontal = 1;
place = (758,21);
target = up;
type = BottomGhost;
},
{
horizontal = 1;
place = (974,-20);
target = down;
type = TopGhost;
}
);
shapes = (
{
closed = 1;
nodes = (
(157,-43,o),
(139,-29,o),
(156,24,cs),
(205,176,o),
(267,327,o),
(343,502,cs),
(347,511,o),
(349,520,o),
(349,530,cs),
(349,577,o),
(306,628,o),
(272,628,cs),
(259,628,o),
(247,620,o),
(239,602,cs),
(158,417,o),
(101,265,o),
(60,142,cs),
(50,110,o),
(45,83,o),
(45,60,cs),
(45,-10,o),
(86,-43,o),
(132,-43,cs)
);
},
{
closed = 1;
nodes = (
(117,82,o),
(121,82,o),
(126,83,cs),
(470,136,ls),
(479,137,o),
(487,137,o),
(496,137,cs),
(504,137,o),
(513,137,o),
(520,137,cs),
(542,137,o),
(559,140,o),
(559,161,cs),
(559,210,o),
(490,245,o),
(448,245,cs),
(444,245,o),
(441,244,o),
(438,244,cs),
(84,194,ls),
(33,187,o),
(17,181,o),
(16,171,cs),
(16,141,o),
(53,82,o),
(112,82,cs)
);
},
{
closed = 1;
nodes = (
(489,-14,o),
(513,2,o),
(505,16,cs),
(480,60,o),
(429,463,o),
(424,604,cs),
(421,679,o),
(363,726,o),
(323,726,cs),
(301,726,o),
(285,712,o),
(287,680,cs),
(299,459,o),
(335,294,o),
(368,101,cs),
(383,12,o),
(420,-14,o),
(465,-14,cs)
);
},
{
closed = 1;
nodes = (
(284,752,o),
(311,787,o),
(361,838,c),
(395,797,o),
(434,762,o),
(473,762,cs),
(505,762,o),
(541,786,o),
(541,810,cs),
(541,817,o),
(539,824,o),
(532,830,cs),
(492,867,o),
(433,941,o),
(403,971,cs),
(396,978,o),
(387,982,o),
(379,982,cs),
(371,982,o),
(363,978,o),
(356,972,cs),
(319,938,o),
(244,858,o),
(203,825,cs),
(196,819,o),
(193,809,o),
(193,799,cs),
(193,777,o),
(207,752,o),
(234,752,cs)
);
}
);
};
hints = (
{
horizontal = 1;
place = (-14,21);
target = up;
type = BottomGhost;
},
{
horizontal = 1;
place = (728,-20);
target = down;
type = TopGhost;
},
{
horizontal = 1;
place = (754,21);
target = up;
type = BottomGhost;
},
{
horizontal = 1;
place = (960,-20);
target = down;
type = TopGhost;
}
);
layerId = "053302AA-4A2A-42DC-B919-9CC4D126D2B5";
shapes = (
{
ref = A;
},
{
pos = (367,0);
ref = circumflexcomb.case;
}
);
width = 590;
}
);
note = Acircumflex;
unicode = 194;
},
{
color = 4;
glyphname = Acircumflexacute;
lastChange = "2023-11-24 14:34:08 +0000";
layers = (
{
background = {
anchors = (
{
name = bottom;
pos = (296,-35);
},
{
name = ogonek;
pos = (437,10);
},
{
name = top.case;
pos = (367,984);
}
);
hints = (
{
horizontal = 1;
place = (-14,21);
target = up;
type = BottomGhost;
},
{
horizontal = 1;
place = (728,-20);
target = down;
type = TopGhost;
},
{
horizontal = 1;
place = (758,21);
target = up;
type = BottomGhost;
},
{
horizontal = 1;
place = (974,-20);
target = down;
type = TopGhost;
}
);
shapes = (
{
closed = 1;
nodes = (
(157,-43,o),
(139,-29,o),
(156,24,cs),
(205,176,o),
(267,327,o),
(343,502,cs),
(347,511,o),
(349,520,o),
(349,530,cs),
(349,577,o),
(306,628,o),
(272,628,cs),
(259,628,o),
(247,620,o),
(239,602,cs),
(158,417,o),
(101,265,o),
(60,142,cs),
(50,110,o),
(45,83,o),
(45,60,cs),
(45,-10,o),
(86,-43,o),
(132,-43,cs)
);
},
{
closed = 1;
nodes = (
(117,82,o),
(121,82,o),
(126,83,cs),
(470,136,ls),
(479,137,o),
(487,137,o),
(496,137,cs),
(504,137,o),
(513,137,o),
(520,137,cs),
(542,137,o),
(559,140,o),
(559,161,cs),
(559,210,o),
(490,245,o),
(448,245,cs),
(444,245,o),
(441,244,o),
(438,244,cs),
(84,194,ls),
(33,187,o),
(17,181,o),
(16,171,cs),
(16,141,o),
(53,82,o),
(112,82,cs)
);
},
{
closed = 1;
nodes = (
(489,-14,o),
(513,2,o),
(505,16,cs),
(480,60,o),
(429,463,o),
(424,604,cs),
(421,679,o),
(363,726,o),
(323,726,cs),
(301,726,o),
(285,712,o),
(287,680,cs),
(299,459,o),
(335,294,o),
(368,101,cs),
(383,12,o),
(420,-14,o),
(465,-14,cs)
);
},
{
closed = 1;
nodes = (
(284,752,o),
(311,787,o),
(361,838,c),
(395,797,o),
(434,762,o),
(473,762,cs),
(505,762,o),
(541,786,o),
(541,810,cs),
(541,817,o),
(539,824,o),
(532,830,cs),
(492,867,o),
(433,941,o),
(403,971,cs),
(396,978,o),
(387,982,o),
(379,982,cs),
(371,982,o),
(363,978,o),
(356,972,cs),
(319,938,o),
(244,858,o),
(203,825,cs),
(196,819,o),
(193,809,o),
(193,799,cs),
(193,777,o),
(207,752,o),
(234,752,cs)
);
},
{
closed = 1;
nodes = (
(419,1006,o),
(554,1061,o),
(554,1111,cs),
(554,1149,o),
(522,1197,o),
(489,1197,cs),
(480,1197,o),
(470,1193,o),
(461,1184,cs),
(421,1143,o),
(356,1087,o),
(326,1061,cs),
(320,1056,o),
(317,1049,o),
(317,1043,cs),
(317,1025,o),
(339,1006,o),
(365,1006,cs)
);
}
);
};
layerId = "053302AA-4A2A-42DC-B919-9CC4D126D2B5";
shapes = (
{
ref = A;
},
{
pos = (367,0);
ref = circumflexcomb.case;
},
{
pos = (432,244);
ref = acutecomb.case;
}
);
width = 590;
}
);
unicode = 7844;
},
{
color = 4;
glyphname = Acircumflexdotbelow;
lastChange = "2023-11-24 14:34:08 +0000";
layers = (
{
background = {
anchors = (
{
name = bottom;
pos = (296,-35);
},
{
name = ogonek;
pos = (437,10);
},
{
name = top.case;
pos = (367,984);
}
);
hints = (
{
horizontal = 1;
place = (-14,21);
target = up;
type = BottomGhost;
},
{
horizontal = 1;
place = (728,-20);
target = down;
type = TopGhost;
},
{
horizontal = 1;
place = (-208,165);
type = Stem;
},
{
place = (212,146);
type = Stem;
},
{
place = (212,168);
type = Stem;
},
{
horizontal = 1;
place = (758,21);
target = up;
type = BottomGhost;
},
{
horizontal = 1;
place = (974,-20);
target = down;
type = TopGhost;
}
);
shapes = (
{
closed = 1;
nodes = (
(157,-43,o),
(139,-29,o),
(156,24,cs),
(205,176,o),
(267,327,o),
(343,502,cs),
(347,511,o),
(349,520,o),
(349,530,cs),
(349,577,o),
(306,628,o),
(272,628,cs),
(259,628,o),
(247,620,o),
(239,602,cs),
(158,417,o),
(101,265,o),
(60,142,cs),
(50,110,o),
(45,83,o),
(45,60,cs),
(45,-10,o),
(86,-43,o),
(132,-43,cs)
);
},
{
closed = 1;
nodes = (
(117,82,o),
(121,82,o),
(126,83,cs),
(470,136,ls),
(479,137,o),
(487,137,o),
(496,137,cs),
(504,137,o),
(513,137,o),
(520,137,cs),
(542,137,o),
(559,140,o),
(559,161,cs),
(559,210,o),
(490,245,o),
(448,245,cs),
(444,245,o),
(441,244,o),
(438,244,cs),
(84,194,ls),
(33,187,o),
(17,181,o),
(16,171,cs),
(16,141,o),
(53,82,o),
(112,82,cs)
);
},
{
closed = 1;
nodes = (
(489,-14,o),
(513,2,o),
(505,16,cs),
(480,60,o),
(429,463,o),
(424,604,cs),
(421,679,o),
(363,726,o),
(323,726,cs),
(301,726,o),
(285,712,o),
(287,680,cs),
(299,459,o),
(335,294,o),
(368,101,cs),
(383,12,o),
(420,-14,o),
(465,-14,cs)
);
},
{
closed = 1;
nodes = (
(339,-208,o),
(346,-207,o),
(358,-204,c),
(368,-132,o),
(380,-96,o),
(380,-65,cs),
(380,-57,o),
(375,-55,o),
(363,-52,cs),
(340,-46,o),
(320,-43,o),
(301,-43,cs),
(284,-43,o),
(258,-44,o),
(242,-47,cs),
(213,-54,o),
(213,-91,o),
(211,-116,cs),
(206,-191,o),
(261,-208,o),
(328,-208,cs)
);
},
{
closed = 1;
nodes = (
(284,752,o),
(311,787,o),
(361,838,c),
(395,797,o),
(434,762,o),
(473,762,cs),
(505,762,o),
(541,786,o),
(541,810,cs),
(541,817,o),
(539,824,o),
(532,830,cs),
(492,867,o),
(433,941,o),
(403,971,cs),
(396,978,o),
(387,982,o),
(379,982,cs),
(371,982,o),
(363,978,o),
(356,972,cs),
(319,938,o),
(244,858,o),
(203,825,cs),
(196,819,o),
(193,809,o),
(193,799,cs),
(193,777,o),
(207,752,o),
(234,752,cs)
);
}
);
};
layerId = "053302AA-4A2A-42DC-B919-9CC4D126D2B5";
shapes = (
{
ref = A;
},
{
pos = (296,0);
ref = dotbelowcomb;
},
{
pos = (367,0);
ref = circumflexcomb.case;
}
);
width = 590;
}
);
unicode = 7852;
},
{
color = 4;
glyphname = Acircumflexgrave;
lastChange = "2023-11-24 14:34:08 +0000";
layers = (
{
background = {
anchors = (
{
name = bottom;
pos = (296,-35);
},
{
name = ogonek;
pos = (437,10);
},
{
name = top.case;
pos = (367,984);
}
);
hints = (
{
horizontal = 1;
place = (-14,21);
target = up;
type = BottomGhost;
},
{
horizontal = 1;
place = (728,-20);
target = down;
type = TopGhost;
},
{
horizontal = 1;
place = (758,21);
target = up;
type = BottomGhost;
},
{
horizontal = 1;
place = (974,-20);
target = down;
type = TopGhost;
}
);
shapes = (
{
closed = 1;
nodes = (
(157,-43,o),
(139,-29,o),
(156,24,cs),
(205,176,o),
(267,327,o),
(343,502,cs),
(347,511,o),
(349,520,o),
(349,530,cs),
(349,577,o),
(306,628,o),
(272,628,cs),
(259,628,o),
(247,620,o),
(239,602,cs),
(158,417,o),
(101,265,o),
(60,142,cs),
(50,110,o),
(45,83,o),
(45,60,cs),
(45,-10,o),
(86,-43,o),
(132,-43,cs)
);
},
{
closed = 1;
nodes = (
(117,82,o),
(121,82,o),
(126,83,cs),
(470,136,ls),
(479,137,o),
(487,137,o),
(496,137,cs),
(504,137,o),
(513,137,o),
(520,137,cs),
(542,137,o),
(559,140,o),
(559,161,cs),
(559,210,o),
(490,245,o),
(448,245,cs),
(444,245,o),
(441,244,o),
(438,244,cs),
(84,194,ls),
(33,187,o),
(17,181,o),
(16,171,cs),
(16,141,o),
(53,82,o),
(112,82,cs)
);
},
{
closed = 1;
nodes = (
(489,-14,o),
(513,2,o),
(505,16,cs),
(480,60,o),
(429,463,o),
(424,604,cs),
(421,679,o),
(363,726,o),
(323,726,cs),
(301,726,o),
(285,712,o),
(287,680,cs),
(299,459,o),
(335,294,o),
(368,101,cs),
(383,12,o),
(420,-14,o),
(465,-14,cs)
);
},
{
closed = 1;
nodes = (
(284,752,o),
(311,787,o),
(361,838,c),
(395,797,o),
(434,762,o),
(473,762,cs),
(505,762,o),
(541,786,o),
(541,810,cs),
(541,817,o),
(539,824,o),
(532,830,cs),
(492,867,o),
(433,941,o),
(403,971,cs),
(396,978,o),
(387,982,o),
(379,982,cs),
(371,982,o),
(363,978,o),
(356,972,cs),
(319,938,o),
(244,858,o),
(203,825,cs),
(196,819,o),
(193,809,o),
(193,799,cs),
(193,777,o),
(207,752,o),
(234,752,cs)
);
},
{
closed = 1;
nodes = (
(447,1005,o),
(465,1021,o),
(465,1038,cs),
(465,1044,o),
(462,1051,o),
(455,1056,cs),
(419,1085,o),
(356,1150,o),
(318,1185,cs),
(310,1193,o),
(300,1196,o),
(289,1196,cs),
(253,1196,o),
(211,1157,o),
(211,1117,cs),
(211,1083,o),
(337,1005,o),
(417,1005,cs)
);
}
);
};
layerId = "053302AA-4A2A-42DC-B919-9CC4D126D2B5";
shapes = (
{
ref = A;
},
{
pos = (367,0);
ref = circumflexcomb.case;
},
{
pos = (338,244);
ref = gravecomb.case;
}
);
width = 590;
}
);
unicode = 7846;
},
{
color = 4;
glyphname = Acircumflexhookabove;
lastChange = "2023-11-24 14:34:08 +0000";
layers = (
{
background = {
anchors = (
{
name = bottom;
pos = (296,-35);
},
{
name = ogonek;
pos = (437,10);
},
{
name = top.case;
pos = (367,984);
}
);
hints = (
{
horizontal = 1;
place = (-14,21);
target = up;
type = BottomGhost;
},
{
horizontal = 1;
place = (728,-20);
target = down;
type = TopGhost;
},
{
horizontal = 1;
place = (758,21);
target = up;
type = BottomGhost;
},
{
horizontal = 1;
place = (974,-20);
target = down;
type = TopGhost;
}
);
shapes = (
{
closed = 1;
nodes = (
(157,-43,o),
(139,-29,o),
(156,24,cs),
(205,176,o),
(267,327,o),
(343,502,cs),
(347,511,o),
(349,520,o),
(349,530,cs),
(349,577,o),
(306,628,o),
(272,628,cs),
(259,628,o),
(247,620,o),
(239,602,cs),
(158,417,o),
(101,265,o),
(60,142,cs),
(50,110,o),
(45,83,o),
(45,60,cs),
(45,-10,o),
(86,-43,o),
(132,-43,cs)
);
},
{
closed = 1;
nodes = (
(117,82,o),
(121,82,o),
(126,83,cs),
(470,136,ls),
(479,137,o),
(487,137,o),
(496,137,cs),
(504,137,o),
(513,137,o),
(520,137,cs),
(542,137,o),
(559,140,o),
(559,161,cs),
(559,210,o),
(490,245,o),
(448,245,cs),
(444,245,o),
(441,244,o),
(438,244,cs),
(84,194,ls),
(33,187,o),
(17,181,o),
(16,171,cs),
(16,141,o),
(53,82,o),
(112,82,cs)
);
},
{
closed = 1;
nodes = (
(489,-14,o),
(513,2,o),
(505,16,cs),
(480,60,o),
(429,463,o),
(424,604,cs),
(421,679,o),
(363,726,o),
(323,726,cs),
(301,726,o),
(285,712,o),
(287,680,cs),
(299,459,o),
(335,294,o),
(368,101,cs),
(383,12,o),
(420,-14,o),
(465,-14,cs)
);
},
{
closed = 1;
nodes = (
(284,752,o),
(311,787,o),
(361,838,c),
(395,797,o),
(434,762,o),
(473,762,cs),
(505,762,o),
(541,786,o),
(541,810,cs),
(541,817,o),
(539,824,o),
(532,830,cs),
(492,867,o),
(433,941,o),
(403,971,cs),
(396,978,o),
(387,982,o),
(379,982,cs),
(371,982,o),
(363,978,o),
(356,972,cs),
(319,938,o),
(244,858,o),
(203,825,cs),
(196,819,o),
(193,809,o),
(193,799,cs),
(193,777,o),
(207,752,o),
(234,752,cs)
);
},
{
closed = 1;
nodes = (
(540,871,o),
(549,874,o),
(559,879,cs),
(600,901,o),
(640,956,o),
(640,996,cs),
(640,1055,o),
(584,1101,o),
(458,1101,cs),
(447,1101,o),
(436,1105,o),
(427,1105,cs),
(417,1105,o),
(411,1101,o),
(411,1082,cs),
(411,1048,o),
(415,984,o),
(454,984,cs),
(464,984,o),
(477,985,o),
(489,985,cs),
(508,985,o),
(525,983,o),
(525,971,cs),
(525,960,o),
(512,945,o),
(502,931,cs),
(497,924,o),
(495,917,o),
(495,909,cs),
(495,890,o),
(509,871,o),
(532,871,cs)
);
}
);
};
layerId = "053302AA-4A2A-42DC-B919-9CC4D126D2B5";
shapes = (
{
ref = A;
},
{
pos = (367,0);
ref = circumflexcomb.case;
},
{
alignment = -1;
pos = (527,100);
ref = hookabovecomb.case;
}
);
width = 590;
}
);
unicode = 7848;
},
{
color = 4;
glyphname = Acircumflextilde;
lastChange = "2023-11-24 14:35:16 +0000";
layers = (
{
background = {
anchors = (
{
name = bottom;
pos = (296,-35);
},
{
name = ogonek;
pos = (437,10);
},
{
name = top.case;
pos = (393,1153);
}
);
hints = (
{
horizontal = 1;
place = (-14,21);
target = up;
type = BottomGhost;
},
{
horizontal = 1;
place = (728,-20);
target = down;
type = TopGhost;
},
{
horizontal = 1;
place = (758,21);
target = up;
type = BottomGhost;
},
{
horizontal = 1;
place = (974,-20);
target = down;
type = TopGhost;
},
{
horizontal = 1;
place = (1006,164);
type = Stem;
},
{
horizontal = 1;
place = (1175,-20);
target = down;
type = TopGhost;
},
{
horizontal = 1;
place = (992,178);
type = Stem;
},
{
horizontal = 1;
place = (1023,164);
type = Stem;
},
{
horizontal = 1;
place = (1192,-20);
target = down;
type = TopGhost;
},
{
horizontal = 1;
place = (1009,178);
type = Stem;
}
);
shapes = (
{
closed = 1;
nodes = (
(157,-43,o),
(139,-29,o),
(156,24,cs),
(205,176,o),
(267,327,o),
(343,502,cs),
(347,511,o),
(349,520,o),
(349,530,cs),
(349,577,o),
(306,628,o),
(272,628,cs),
(259,628,o),
(247,620,o),
(239,602,cs),
(158,417,o),
(101,265,o),
(60,142,cs),
(50,110,o),
(45,83,o),
(45,60,cs),
(45,-10,o),
(86,-43,o),
(132,-43,cs)
);
},
{
closed = 1;
nodes = (
(117,82,o),
(121,82,o),
(126,83,cs),
(470,136,ls),
(479,137,o),
(487,137,o),
(496,137,cs),
(504,137,o),
(513,137,o),
(520,137,cs),
(542,137,o),
(559,140,o),
(559,161,cs),
(559,210,o),
(490,245,o),
(448,245,cs),
(444,245,o),
(441,244,o),
(438,244,cs),
(84,194,ls),
(33,187,o),
(17,181,o),
(16,171,cs),
(16,141,o),
(53,82,o),
(112,82,cs)
);
},
{
closed = 1;
nodes = (
(489,-14,o),
(513,2,o),
(505,16,cs),
(480,60,o),
(429,463,o),
(424,604,cs),
(421,679,o),
(363,726,o),
(323,726,cs),
(301,726,o),
(285,712,o),
(287,680,cs),
(299,459,o),
(335,294,o),
(368,101,cs),
(383,12,o),
(420,-14,o),
(465,-14,cs)
);
},
{
closed = 1;
nodes = (
(284,752,o),
(311,787,o),
(361,838,c),
(395,797,o),
(434,762,o),
(473,762,cs),
(505,762,o),
(541,786,o),
(541,810,cs),
(541,817,o),
(539,824,o),
(532,830,cs),
(492,867,o),
(433,941,o),
(403,971,cs),
(396,978,o),
(387,982,o),
(379,982,cs),
(371,982,o),
(363,978,o),
(356,972,cs),
(319,938,o),
(244,858,o),
(203,825,cs),
(196,819,o),
(193,809,o),
(193,799,cs),
(193,777,o),
(207,752,o),
(234,752,cs)
);
},
{
closed = 1;
nodes = (
(484,1000,o),
(532,1056,o),
(532,1098,cs),
(532,1140,o),
(519,1168,o),
(504,1170,cs),
(496,1170,o),
(487,1167,o),
(476,1153,cs),
(465,1138,o),
(453,1131,o),
(441,1131,cs),
(404,1131,o),
(385,1180,o),
(324,1180,cs),
(278,1180,o),
(230,1124,o),
(230,1082,cs),
(230,1040,o),
(243,1012,o),
(258,1010,cs),
(266,1010,o),
(275,1013,o),
(287,1027,cs),
(297,1041,o),
(309,1048,o),
(321,1048,cs),
(356,1048,o),
(383,1000,o),
(438,1000,cs)
);
}
);
};
layerId = "053302AA-4A2A-42DC-B919-9CC4D126D2B5";
shapes = (
{
ref = A;
},
{
pos = (367,0);
ref = circumflexcomb.case;
},
{
pos = (367,261);
ref = tildecomb.case;
}
);
width = 590;
}
);
unicode = 7850;
},
{
color = 4;
glyphname = Adblgrave;
lastChange = "2023-11-24 14:34:08 +0000";
layers = (
{
background = {
anchors = (
{
name = bottom;
pos = (296,-35);
},
{
name = ogonek;
pos = (437,10);
},
{
name = top.case;
pos = (362,740);
}
);
hints = (
{
horizontal = 1;
place = (-14,21);
target = up;
type = BottomGhost;
},
{
horizontal = 1;
place = (728,-20);
target = down;
type = TopGhost;
},
{
horizontal = 1;
origin = (0,23);
target = up;
type = BottomGhost;
},
{
horizontal = 1;
origin = (0,23);
target = down;
type = TopGhost;
},
{
origin = (0,23);
place = (132,232);
type = Stem;
},
{
origin = (0,23);
place = (132,232);
type = Stem;
},
{
horizontal = 1;
origin = (0,23);
target = up;
type = BottomGhost;
},
{
horizontal = 1;
origin = (0,23);
target = down;
type = TopGhost;
},
{
origin = (0,23);
place = (132,232);
type = Stem;
},
{
horizontal = 1;
origin = (0,23);
target = up;
type = BottomGhost;
},
{
horizontal = 1;
origin = (0,23);
target = down;
type = TopGhost;
},
{
origin = (0,23);
place = (132,232);
type = Stem;
}
);
shapes = (
{
closed = 1;
nodes = (
(157,-43,o),
(139,-29,o),
(156,24,cs),
(205,176,o),
(267,327,o),
(343,502,cs),
(347,511,o),
(349,520,o),
(349,530,cs),
(349,577,o),
(306,628,o),
(272,628,cs),
(259,628,o),
(247,620,o),
(239,602,cs),
(158,417,o),
(101,265,o),
(60,142,cs),
(50,110,o),
(45,83,o),
(45,60,cs),
(45,-10,o),
(86,-43,o),
(132,-43,cs)
);
},
{
closed = 1;
nodes = (
(117,82,o),
(121,82,o),
(126,83,cs),
(470,136,ls),
(479,137,o),
(487,137,o),
(496,137,cs),
(504,137,o),
(513,137,o),
(520,137,cs),
(542,137,o),
(559,140,o),
(559,161,cs),
(559,210,o),
(490,245,o),
(448,245,cs),
(444,245,o),
(441,244,o),
(438,244,cs),
(84,194,ls),
(33,187,o),
(17,181,o),
(16,171,cs),
(16,141,o),
(53,82,o),
(112,82,cs)
);
},
{
closed = 1;
nodes = (
(489,-14,o),
(513,2,o),
(505,16,cs),
(480,60,o),
(429,463,o),
(424,604,cs),
(421,679,o),
(363,726,o),
(323,726,cs),
(301,726,o),
(285,712,o),
(287,680,cs),
(299,459,o),
(335,294,o),
(368,101,cs),
(383,12,o),
(420,-14,o),
(465,-14,cs)
);
},
{
closed = 1;
nodes = (
(466,761,o),
(489,782,o),
(489,801,cs),
(489,808,o),
(486,814,o),
(479,820,cs),
(447,848,o),
(377,908,o),
(335,952,cs),
(325,962,o),
(315,966,o),
(305,966,cs),
(269,966,o),
(235,914,o),
(235,874,cs),
(235,820,o),
(380,761,o),
(437,761,cs)
);
},
{
closed = 1;
nodes = (
(231,761,o),
(254,782,o),
(254,801,cs),
(254,808,o),
(251,814,o),
(244,820,cs),
(212,848,o),
(142,908,o),
(100,952,cs),
(90,962,o),
(80,966,o),
(70,966,cs),
(34,966,o),
(0,914,o),
(0,874,cs),
(0,820,o),
(145,761,o),
(202,761,cs)
);
}
);
};
layerId = "053302AA-4A2A-42DC-B919-9CC4D126D2B5";
shapes = (
{
ref = A;
},
{
pos = (304,0);
ref = dblgravecomb.case;
}
);
width = 590;
}
);
unicode = 512;
},
{
color = 4;
glyphname = Adieresis;
kernLeft = A;
kernRight = A;
lastChange = "2023-11-24 14:34:08 +0000";
layers = (
{
background = {
anchors = (
{
name = bottom;
pos = (296,-35);
},
{
name = ogonek;
pos = (437,10);
},
{
name = top.case;
pos = (362,945);
}
);
hints = (
{
horizontal = 1;
place = (-14,21);
target = up;
type = BottomGhost;
},
{
horizontal = 1;
place = (728,-20);
target = down;
type = TopGhost;
},
{
horizontal = 1;
place = (786,165);
type = Stem;
},
{
place = (181,146);
type = Stem;
},
{
place = (374,146);
type = Stem;
},
{
place = (181,168);
type = Stem;
},
{
place = (374,168);
type = Stem;
}
);
shapes = (
{
closed = 1;
nodes = (
(157,-43,o),
(139,-29,o),
(156,24,cs),
(205,176,o),
(267,327,o),
(343,502,cs),
(347,511,o),
(349,520,o),
(349,530,cs),
(349,577,o),
(306,628,o),
(272,628,cs),
(259,628,o),
(247,620,o),
(239,602,cs),
(158,417,o),
(101,265,o),
(60,142,cs),
(50,110,o),
(45,83,o),
(45,60,cs),
(45,-10,o),
(86,-43,o),
(132,-43,cs)
);
},
{
closed = 1;
nodes = (
(117,82,o),
(121,82,o),
(126,83,cs),
(470,136,ls),
(479,137,o),
(487,137,o),
(496,137,cs),
(504,137,o),
(513,137,o),
(520,137,cs),
(542,137,o),
(559,140,o),
(559,161,cs),
(559,210,o),
(490,245,o),
(448,245,cs),
(444,245,o),
(441,244,o),
(438,244,cs),
(84,194,ls),
(33,187,o),
(17,181,o),
(16,171,cs),
(16,141,o),
(53,82,o),
(112,82,cs)
);
},
{
closed = 1;
nodes = (
(489,-14,o),
(513,2,o),
(505,16,cs),
(480,60,o),
(429,463,o),
(424,604,cs),
(421,679,o),
(363,726,o),
(323,726,cs),
(301,726,o),
(285,712,o),
(287,680,cs),
(299,459,o),
(335,294,o),
(368,101,cs),
(383,12,o),
(420,-14,o),
(465,-14,cs)
);
},
{
closed = 1;
nodes = (
(501,786,o),
(508,787,o),
(520,790,c),
(520,862,o),
(542,898,o),
(542,929,cs),
(542,937,o),
(537,939,o),
(525,942,cs),
(502,948,o),
(482,951,o),
(463,951,cs),
(446,951,o),
(420,950,o),
(404,947,cs),
(375,940,o),
(374,903,o),
(374,878,cs),
(374,803,o),
(423,786,o),
(490,786,cs)
);
},
{
closed = 1;
nodes = (
(308,786,o),
(315,787,o),
(327,790,c),
(327,862,o),
(349,898,o),
(349,929,cs),
(349,937,o),
(344,939,o),
(332,942,cs),
(309,948,o),
(289,951,o),
(270,951,cs),
(253,951,o),
(227,950,o),
(211,947,cs),
(182,940,o),
(181,903,o),
(181,878,cs),
(181,803,o),
(230,786,o),
(297,786,cs)
);
}
);
};
hints = (
{
horizontal = 1;
place = (-14,21);
target = up;
type = BottomGhost;
},
{
horizontal = 1;
place = (728,-20);
target = down;
type = TopGhost;
},
{
horizontal = 1;
place = (783,165);
type = Stem;
},
{
place = (89,146);
type = Stem;
},
{
place = (282,146);
type = Stem;
},
{
place = (282,168);
type = Stem;
},
{
place = (89,168);
type = Stem;
}
);
layerId = "053302AA-4A2A-42DC-B919-9CC4D126D2B5";
shapes = (
{
ref = A;
},
{
pos = (362,0);
ref = dieresiscomb.case;
}
);
width = 590;
}
);
note = Adieresis;
unicode = 196;
},
{
color = 4;
glyphname = Adotbelow;
lastChange = "2023-11-24 14:34:08 +0000";
layers = (
{
background = {
anchors = (
{
name = bottom;
pos = (296,-35);
},
{
name = ogonek;
pos = (437,10);
},
{
name = top.case;
pos = (362,740);
}
);
hints = (
{
horizontal = 1;
place = (-14,21);
target = up;
type = BottomGhost;
},
{
horizontal = 1;
place = (728,-20);
target = down;
type = TopGhost;
},
{
horizontal = 1;
place = (-208,165);
type = Stem;
},
{
place = (212,146);
type = Stem;
},
{
place = (212,168);
type = Stem;
}
);
shapes = (
{
closed = 1;
nodes = (
(157,-43,o),
(139,-29,o),
(156,24,cs),
(205,176,o),
(267,327,o),
(343,502,cs),
(347,511,o),
(349,520,o),
(349,530,cs),
(349,577,o),
(306,628,o),
(272,628,cs),
(259,628,o),
(247,620,o),
(239,602,cs),
(158,417,o),
(101,265,o),
(60,142,cs),
(50,110,o),
(45,83,o),
(45,60,cs),
(45,-10,o),
(86,-43,o),
(132,-43,cs)
);
},
{
closed = 1;
nodes = (
(117,82,o),
(121,82,o),
(126,83,cs),
(470,136,ls),
(479,137,o),
(487,137,o),
(496,137,cs),
(504,137,o),
(513,137,o),
(520,137,cs),
(542,137,o),
(559,140,o),
(559,161,cs),
(559,210,o),
(490,245,o),
(448,245,cs),
(444,245,o),
(441,244,o),
(438,244,cs),
(84,194,ls),
(33,187,o),
(17,181,o),
(16,171,cs),
(16,141,o),
(53,82,o),
(112,82,cs)
);
},
{
closed = 1;
nodes = (
(489,-14,o),
(513,2,o),
(505,16,cs),
(480,60,o),
(429,463,o),
(424,604,cs),
(421,679,o),
(363,726,o),
(323,726,cs),
(301,726,o),
(285,712,o),
(287,680,cs),
(299,459,o),
(335,294,o),
(368,101,cs),
(383,12,o),
(420,-14,o),
(465,-14,cs)
);
},
{
closed = 1;
nodes = (
(339,-208,o),
(346,-207,o),
(358,-204,c),
(368,-132,o),
(380,-96,o),
(380,-65,cs),
(380,-57,o),
(375,-55,o),
(363,-52,cs),
(340,-46,o),
(320,-43,o),
(301,-43,cs),
(284,-43,o),
(258,-44,o),
(242,-47,cs),
(213,-54,o),
(213,-91,o),
(211,-116,cs),
(206,-191,o),
(261,-208,o),
(328,-208,cs)
);
}
);
};
layerId = "053302AA-4A2A-42DC-B919-9CC4D126D2B5";
shapes = (
{
ref = A;
},
{
pos = (296,0);
ref = dotbelowcomb;
}
);
width = 590;
}
);
unicode = 7840;
},
{
color = 4;
glyphname = Agrave;
kernLeft = A;
kernRight = A;
lastChange = "2023-11-24 14:34:08 +0000";
layers = (
{
background = {
anchors = (
{
name = bottom;
pos = (296,-35);
},
{
name = ogonek;
pos = (437,10);
},
{
name = top.case;
pos = (362,740);
}
);
hints = (
{
horizontal = 1;
place = (-14,21);
target = up;
type = BottomGhost;
},
{
horizontal = 1;
place = (728,-20);
target = down;
type = TopGhost;
}
);
shapes = (
{
closed = 1;
nodes = (
(157,-43,o),
(139,-29,o),
(156,24,cs),
(205,176,o),
(267,327,o),
(343,502,cs),
(347,511,o),
(349,520,o),
(349,530,cs),
(349,577,o),
(306,628,o),
(272,628,cs),
(259,628,o),
(247,620,o),
(239,602,cs),
(158,417,o),
(101,265,o),
(60,142,cs),
(50,110,o),
(45,83,o),
(45,60,cs),
(45,-10,o),
(86,-43,o),
(132,-43,cs)
);
},
{
closed = 1;
nodes = (
(117,82,o),
(121,82,o),
(126,83,cs),
(470,136,ls),
(479,137,o),
(487,137,o),
(496,137,cs),
(504,137,o),
(513,137,o),
(520,137,cs),
(542,137,o),
(559,140,o),
(559,161,cs),
(559,210,o),
(490,245,o),
(448,245,cs),
(444,245,o),
(441,244,o),
(438,244,cs),
(84,194,ls),
(33,187,o),
(17,181,o),
(16,171,cs),
(16,141,o),
(53,82,o),
(112,82,cs)
);
},
{
closed = 1;
nodes = (
(489,-14,o),
(513,2,o),
(505,16,cs),
(480,60,o),
(429,463,o),
(424,604,cs),
(421,679,o),
(363,726,o),
(323,726,cs),
(301,726,o),
(285,712,o),
(287,680,cs),
(299,459,o),
(335,294,o),
(368,101,cs),
(383,12,o),
(420,-14,o),
(465,-14,cs)
);
},
{
closed = 1;
nodes = (
(442,761,o),
(460,777,o),
(460,794,cs),
(460,800,o),
(457,807,o),
(450,812,cs),
(414,841,o),
(351,906,o),
(313,941,cs),
(305,949,o),
(295,952,o),
(284,952,cs),
(248,952,o),
(206,913,o),
(206,873,cs),
(206,839,o),
(332,761,o),
(412,761,cs)
);
}
);
};
hints = (
{
horizontal = 1;
place = (-14,21);
target = up;
type = BottomGhost;
},
{
horizontal = 1;
place = (728,-20);
target = down;
type = TopGhost;
},
{
horizontal = 1;
place = (771,145);
type = Stem;
}
);
layerId = "053302AA-4A2A-42DC-B919-9CC4D126D2B5";
shapes = (
{
ref = A;
},
{
pos = (333,0);
ref = gravecomb.case;
}
);
width = 590;
}
);
note = Agrave;
unicode = 192;
},
{
color = 4;
glyphname = Ahookabove;
lastChange = "2023-11-24 14:34:08 +0000";
layers = (
{
background = {
anchors = (
{
name = bottom;
pos = (296,-35);
},
{
name = ogonek;
pos = (437,10);
},
{
name = top.case;
pos = (362,740);
}
);
hints = (
{
horizontal = 1;
place = (-14,21);
target = up;
type = BottomGhost;
},
{
horizontal = 1;
place = (728,-20);
target = down;
type = TopGhost;
}
);
shapes = (
{
closed = 1;
nodes = (
(157,-43,o),
(139,-29,o),
(156,24,cs),
(205,176,o),
(267,327,o),
(343,502,cs),
(347,511,o),
(349,520,o),
(349,530,cs),
(349,577,o),
(306,628,o),
(272,628,cs),
(259,628,o),
(247,620,o),
(239,602,cs),
(158,417,o),
(101,265,o),
(60,142,cs),
(50,110,o),
(45,83,o),
(45,60,cs),
(45,-10,o),
(86,-43,o),
(132,-43,cs)
);
},
{
closed = 1;
nodes = (
(117,82,o),
(121,82,o),
(126,83,cs),
(470,136,ls),
(479,137,o),
(487,137,o),
(496,137,cs),
(504,137,o),
(513,137,o),
(520,137,cs),
(542,137,o),
(559,140,o),
(559,161,cs),
(559,210,o),
(490,245,o),
(448,245,cs),
(444,245,o),
(441,244,o),
(438,244,cs),
(84,194,ls),
(33,187,o),
(17,181,o),
(16,171,cs),
(16,141,o),
(53,82,o),
(112,82,cs)
);
},
{
closed = 1;
nodes = (
(489,-14,o),
(513,2,o),
(505,16,cs),
(480,60,o),
(429,463,o),
(424,604,cs),
(421,679,o),
(363,726,o),
(323,726,cs),
(301,726,o),
(285,712,o),
(287,680,cs),
(299,459,o),
(335,294,o),
(368,101,cs),
(383,12,o),
(420,-14,o),
(465,-14,cs)
);
},
{
closed = 1;
nodes = (
(375,771,o),
(384,774,o),
(394,779,cs),
(435,801,o),
(475,856,o),
(475,896,cs),
(475,955,o),
(419,1001,o),
(293,1001,cs),
(282,1001,o),
(271,1005,o),
(262,1005,cs),
(252,1005,o),
(246,1001,o),
(246,982,cs),
(246,948,o),
(250,884,o),
(289,884,cs),
(299,884,o),
(312,885,o),
(324,885,cs),
(343,885,o),
(360,883,o),
(360,871,cs),
(360,860,o),
(347,845,o),
(337,831,cs),
(332,824,o),
(330,817,o),
(330,809,cs),
(330,790,o),
(344,771,o),
(367,771,cs)
);
}
);
};
layerId = "053302AA-4A2A-42DC-B919-9CC4D126D2B5";
shapes = (
{
ref = A;
},
{
pos = (362,0);
ref = hookabovecomb.case;
}
);
width = 590;
}
);
unicode = 7842;
},
{
color = 4;
glyphname = Ainvertedbreve;
lastChange = "2023-11-24 14:34:08 +0000";
layers = (
{
background = {
anchors = (
{
name = bottom;
pos = (296,-35);
},
{
name = ogonek;
pos = (437,10);
},
{
name = top.case;
pos = (362,740);
}
);
hints = (
{
horizontal = 1;
place = (-14,21);
target = up;
type = BottomGhost;
},
{
horizontal = 1;
place = (728,-20);
target = down;
type = TopGhost;
},
{
horizontal = 1;
place = (946.42,-198.243);
type = Stem;
},
{
horizontal = 1;
place = (946.42,-119.543);
type = Stem;
},
{
horizontal = 1;
place = (946.42,-178.319);
type = Stem;
}
);
shapes = (
{
closed = 1;
nodes = (
(157,-43,o),
(139,-29,o),
(156,24,cs),
(205,176,o),
(267,327,o),
(343,502,cs),
(347,511,o),
(349,520,o),
(349,530,cs),
(349,577,o),
(306,628,o),
(272,628,cs),
(259,628,o),
(247,620,o),
(239,602,cs),
(158,417,o),
(101,265,o),
(60,142,cs),
(50,110,o),
(45,83,o),
(45,60,cs),
(45,-10,o),
(86,-43,o),
(132,-43,cs)
);
},
{
closed = 1;
nodes = (
(117,82,o),
(121,82,o),
(126,83,cs),
(470,136,ls),
(479,137,o),
(487,137,o),
(496,137,cs),
(504,137,o),
(513,137,o),
(520,137,cs),
(542,137,o),
(559,140,o),
(559,161,cs),
(559,210,o),
(490,245,o),
(448,245,cs),
(444,245,o),
(441,244,o),
(438,244,cs),
(84,194,ls),
(33,187,o),
(17,181,o),
(16,171,cs),
(16,141,o),
(53,82,o),
(112,82,cs)
);
},
{
closed = 1;
nodes = (
(489,-14,o),
(513,2,o),
(505,16,cs),
(480,60,o),
(429,463,o),
(424,604,cs),
(421,679,o),
(363,726,o),
(323,726,cs),
(301,726,o),
(285,712,o),
(287,680,cs),
(299,459,o),
(335,294,o),
(368,101,cs),
(383,12,o),
(420,-14,o),
(465,-14,cs)
);
},
{
closed = 1;
nodes = (
(297,940,o),
(212,881,o),
(201,774,cs),
(199,755,o),
(214,749,o),
(233,750,cs),
(256,752,o),
(283,767,o),
(291,787,cs),
(304,822,o),
(329,841,o),
(352,843,cs),
(385,846,o),
(417,817,o),
(417,755,cs),
(418,740,o),
(436,733,o),
(459,735,cs),
(494,738,o),
(539,765,o),
(534,824,cs),
(526,915,o),
(453,954,o),
(377,948,cs)
);
}
);
};
layerId = "053302AA-4A2A-42DC-B919-9CC4D126D2B5";
shapes = (
{
ref = A;
},
{
pos = (362,0);
ref = breveinvertedcomb.case;
}
);
width = 590;
}
);
unicode = 514;
},
{
color = 4;
glyphname = Amacron;
kernLeft = A;
kernRight = A;
lastChange = "2023-11-24 14:34:08 +0000";
layers = (
{
background = {
anchors = (
{
name = bottom;
pos = (296,-35);
},
{
name = ogonek;
pos = (437,10);
},
{
name = top.case;
pos = (362,740);
}
);
hints = (
{
horizontal = 1;
place = (-14,21);
target = up;
type = BottomGhost;
},
{
horizontal = 1;
place = (728,-20);
target = down;
type = TopGhost;
},
{
horizontal = 1;
place = (787.383,116.523);
type = Stem;
},
{
horizontal = 1;
place = (778.926,21);
target = up;
type = BottomGhost;
}
);
shapes = (
{
closed = 1;
nodes = (
(157,-43,o),
(139,-29,o),
(156,24,cs),
(205,176,o),
(267,327,o),
(343,502,cs),
(347,511,o),
(349,520,o),
(349,530,cs),
(349,577,o),
(306,628,o),
(272,628,cs),
(259,628,o),
(247,620,o),
(239,602,cs),
(158,417,o),
(101,265,o),
(60,142,cs),
(50,110,o),
(45,83,o),
(45,60,cs),
(45,-10,o),
(86,-43,o),
(132,-43,cs)
);
},
{
closed = 1;
nodes = (
(117,82,o),
(121,82,o),
(126,83,cs),
(470,136,ls),
(479,137,o),
(487,137,o),
(496,137,cs),
(504,137,o),
(513,137,o),
(520,137,cs),
(542,137,o),
(559,140,o),
(559,161,cs),
(559,210,o),
(490,245,o),
(448,245,cs),
(444,245,o),
(441,244,o),
(438,244,cs),
(84,194,ls),
(33,187,o),
(17,181,o),
(16,171,cs),
(16,141,o),
(53,82,o),
(112,82,cs)
);
},
{
closed = 1;
nodes = (
(489,-14,o),
(513,2,o),
(505,16,cs),
(480,60,o),
(429,463,o),
(424,604,cs),
(421,679,o),
(363,726,o),
(323,726,cs),
(301,726,o),
(285,712,o),
(287,680,cs),
(299,459,o),
(335,294,o),
(368,101,cs),
(383,12,o),
(420,-14,o),
(465,-14,cs)
);
},
{
closed = 1;
nodes = (
(482,782,ls),
(508,782,o),
(528,790,o),
(528,801,cs),
(528,827,o),
(487,895,o),
(436,892,cs),
(251,879,ls),
(207,875,o),
(195,863,o),
(195,851,cs),
(195,835,o),
(232,781,o),
(260,781,cs)
);
}
);
};
hints = (
{
horizontal = 1;
place = (-14,21);
target = up;
type = BottomGhost;
},
{
horizontal = 1;
place = (728,-20);
target = down;
type = TopGhost;
},
{
horizontal = 1;
place = (810,124);
type = Stem;
},
{
horizontal = 1;
place = (801,21);
target = up;
type = BottomGhost;
}
);
layerId = "053302AA-4A2A-42DC-B919-9CC4D126D2B5";
shapes = (
{
ref = A;
},
{
pos = (362,0);
ref = macroncomb.case;
}
);
width = 590;
}
);
note = Amacron;
unicode = 256;
},
{
color = 4;
glyphname = Aogonek;
kernLeft = A;
kernRight = A;
lastChange = "2023-11-24 14:34:08 +0000";
layers = (
{
background = {
anchors = (
{
name = bottom;
pos = (296,-35);
},
{
name = ogonek;
pos = (437,10);
},
{
name = top.case;
pos = (362,740);
}
);
hints = (
{
horizontal = 1;
place = (-14,21);
target = up;
type = BottomGhost;
},
{
horizontal = 1;
place = (728,-20);
target = down;
type = TopGhost;
},
{
horizontal = 1;
place = (-144,116);
type = Stem;
},
{
place = (332,264);
type = Stem;
},
{
horizontal = 1;
place = (-144,92);
type = Stem;
},
{
place = (332,116);
type = Stem;
}
);
shapes = (
{
closed = 1;
nodes = (
(157,-43,o),
(139,-29,o),
(156,24,cs),
(205,176,o),
(267,327,o),
(343,502,cs),
(347,511,o),
(349,520,o),
(349,530,cs),
(349,577,o),
(306,628,o),
(272,628,cs),
(259,628,o),
(247,620,o),
(239,602,cs),
(158,417,o),
(101,265,o),
(60,142,cs),
(50,110,o),
(45,83,o),
(45,60,cs),
(45,-10,o),
(86,-43,o),
(132,-43,cs)
);
},
{
closed = 1;
nodes = (
(117,82,o),
(121,82,o),
(126,83,cs),
(470,136,ls),
(479,137,o),
(487,137,o),
(496,137,cs),
(504,137,o),
(513,137,o),
(520,137,cs),
(542,137,o),
(559,140,o),
(559,161,cs),
(559,210,o),
(490,245,o),
(448,245,cs),
(444,245,o),
(441,244,o),
(438,244,cs),
(84,194,ls),
(33,187,o),
(17,181,o),
(16,171,cs),
(16,141,o),
(53,82,o),
(112,82,cs)
);
},
{
closed = 1;
nodes = (
(489,-14,o),
(513,2,o),
(505,16,cs),
(480,60,o),
(429,463,o),
(424,604,cs),
(421,679,o),
(363,726,o),
(323,726,cs),
(301,726,o),
(285,712,o),
(287,680,cs),
(299,459,o),
(335,294,o),
(368,101,cs),
(383,12,o),
(420,-14,o),
(465,-14,cs)
);
},
{
closed = 1;
nodes = (
(532,-210,o),
(585,-141,o),
(585,-104,cs),
(585,-90,o),
(578,-81,o),
(563,-81,cs),
(538,-81,o),
(530,-115,o),
(482,-115,cs),
(466,-115,o),
(459,-104,o),
(459,-89,cs),
(459,-60,o),
(481,-16,o),
(506,12,c),
(446,39,l),
(391,3,o),
(350,-69,o),
(350,-120,cs),
(350,-172,o),
(386,-210,o),
(446,-210,cs)
);
}
);
};
hints = (
{
horizontal = 1;
place = (-144,116);
type = Stem;
},
{
horizontal = 1;
place = (-14,21);
target = up;
type = BottomGhost;
},
{
horizontal = 1;
place = (728,-20);
target = down;
type = TopGhost;
},
{
place = (354,264);
type = Stem;
},
{
horizontal = 1;
place = (-144,92);
type = Stem;
},
{
place = (354,116);
type = Stem;
}
);
layerId = "053302AA-4A2A-42DC-B919-9CC4D126D2B5";
shapes = (
{
ref = A;
},
{
pos = (468,0);
ref = ogonekcomb;
}
);
width = 590;
}
);
note = Aogonek;
unicode = 260;
},
{
color = 4;
glyphname = Aring;
kernLeft = A;
kernRight = A;
lastChange = "2023-11-24 14:34:08 +0000";
layers = (
{
background = {
anchors = (
{
name = bottom;
pos = (296,-35);
},
{
name = ogonek;
pos = (437,10);
},
{
name = top.case;
pos = (362,740);
}
);
hints = (
{
horizontal = 1;
place = (-14,21);
target = up;
type = BottomGhost;
},
{
horizontal = 1;
place = (728,-20);
target = down;
type = TopGhost;
}
);
shapes = (
{
closed = 1;
nodes = (
(157,-43,o),
(139,-29,o),
(156,24,cs),
(205,176,o),
(267,327,o),
(343,502,cs),
(347,511,o),
(349,520,o),
(349,530,cs),
(349,577,o),
(306,628,o),
(272,628,cs),
(259,628,o),
(247,620,o),
(239,602,cs),
(158,417,o),
(101,265,o),
(60,142,cs),
(50,110,o),
(45,83,o),
(45,60,cs),
(45,-10,o),
(86,-43,o),
(132,-43,cs)
);
},
{
closed = 1;
nodes = (
(117,82,o),
(121,82,o),
(126,83,cs),
(470,136,ls),
(479,137,o),
(487,137,o),
(496,137,cs),
(504,137,o),
(513,137,o),
(520,137,cs),
(542,137,o),
(559,140,o),
(559,161,cs),
(559,210,o),
(490,245,o),
(448,245,cs),
(444,245,o),
(441,244,o),
(438,244,cs),
(84,194,ls),
(33,187,o),
(17,181,o),
(16,171,cs),
(16,141,o),
(53,82,o),
(112,82,cs)
);
},
{
closed = 1;
nodes = (
(489,-14,o),
(513,2,o),
(505,16,cs),
(480,60,o),
(429,463,o),
(424,604,cs),
(421,679,o),
(363,726,o),
(323,726,cs),
(301,726,o),
(285,712,o),
(287,680,cs),
(299,459,o),
(335,294,o),
(368,101,cs),
(383,12,o),
(420,-14,o),
(465,-14,cs)
);
},
{
closed = 1;
nodes = (
(442,776,o),
(482,845,o),
(482,892,cs),
(482,925,o),
(462,962,o),
(393,962,cs),
(381,962,o),
(351,961,o),
(340,953,c),
(335,954,o),
(331,954,o),
(327,954,cs),
(275,954,o),
(240,889,o),
(240,847,cs),
(240,814,o),
(267,776,o),
(333,776,cs)
);
},
{
closed = 1;
nodes = (
(333,829,o),
(327,852,o),
(327,861,cs),
(327,878,o),
(335,895,o),
(344,909,c),
(350,910,o),
(357,911,o),
(363,911,cs),
(383,911,o),
(393,899,o),
(393,880,cs),
(393,867,o),
(386,829,o),
(359,829,cs)
);
}
);
};
hints = (
{
horizontal = 1;
place = (-14,21);
target = up;
type = BottomGhost;
},
{
horizontal = 1;
place = (728,-20);
target = down;
type = TopGhost;
},
{
horizontal = 1;
place = (776,53);
type = Stem;
},
{
horizontal = 1;
place = (911,51);
type = Stem;
},
{
place = (158,87);
type = Stem;
},
{
place = (311,89);
type = Stem;
}
);
layerId = "053302AA-4A2A-42DC-B919-9CC4D126D2B5";
shapes = (
{
ref = A;
},
{
pos = (361,0);
ref = ringcomb.case;
}
);
width = 590;
}
);
note = Aring;
unicode = 197;
},
{
color = 4;
glyphname = Aringacute;
kernLeft = A;
kernRight = A;
lastChange = "2023-11-24 14:34:08 +0000";
layers = (
{
background = {
anchors = (
{
name = bottom;
pos = (296,-35);
},
{
name = ogonek;
pos = (437,10);
},
{
name = top.case;
pos = (362,740);
}
);
hints = (
{
horizontal = 1;
place = (-14,21);
target = up;
type = BottomGhost;
},
{
horizontal = 1;
place = (728,-20);
target = down;
type = TopGhost;
}
);
shapes = (
{
closed = 1;
nodes = (
(157,-43,o),
(139,-29,o),
(156,24,cs),
(205,176,o),
(267,327,o),
(343,502,cs),
(347,511,o),
(349,520,o),
(349,530,cs),
(349,577,o),
(306,628,o),
(272,628,cs),
(259,628,o),
(247,620,o),
(239,602,cs),
(158,417,o),
(101,265,o),
(60,142,cs),
(50,110,o),
(45,83,o),
(45,60,cs),
(45,-10,o),
(86,-43,o),
(132,-43,cs)
);
},
{
closed = 1;
nodes = (
(117,82,o),
(121,82,o),
(126,83,cs),
(470,136,ls),
(479,137,o),
(487,137,o),
(496,137,cs),
(504,137,o),
(513,137,o),
(520,137,cs),
(542,137,o),
(559,140,o),
(559,161,cs),
(559,210,o),
(490,245,o),
(448,245,cs),
(444,245,o),
(441,244,o),
(438,244,cs),
(84,194,ls),
(33,187,o),
(17,181,o),
(16,171,cs),
(16,141,o),
(53,82,o),
(112,82,cs)
);
},
{
closed = 1;
nodes = (
(489,-14,o),
(513,2,o),
(505,16,cs),
(480,60,o),
(429,463,o),
(424,604,cs),
(421,679,o),
(363,726,o),
(323,726,cs),
(301,726,o),
(285,712,o),
(287,680,cs),
(299,459,o),
(335,294,o),
(368,101,cs),
(383,12,o),
(420,-14,o),
(465,-14,cs)
);
},
{
closed = 1;
nodes = (
(422,675,o),
(462,744,o),
(462,791,cs),
(462,824,o),
(442,861,o),
(373,861,cs),
(361,861,o),
(331,860,o),
(320,852,c),
(315,853,o),
(311,853,o),
(307,853,cs),
(255,853,o),
(220,788,o),
(220,746,cs),
(220,713,o),
(247,675,o),
(313,675,cs)
);
},
{
closed = 1;
nodes = (
(313,728,o),
(307,751,o),
(307,760,cs),
(307,777,o),
(315,794,o),
(324,808,c),
(330,809,o),
(337,810,o),
(343,810,cs),
(363,810,o),
(373,798,o),
(373,779,cs),
(373,766,o),
(366,728,o),
(339,728,cs)
);
},
{
closed = 1;
nodes = (
(394,811,o),
(529,866,o),
(529,916,cs),
(529,954,o),
(497,1002,o),
(464,1002,cs),
(455,1002,o),
(445,998,o),
(436,989,cs),
(396,948,o),
(331,892,o),
(301,866,cs),
(295,861,o),
(292,854,o),
(292,848,cs),
(292,830,o),
(314,811,o),
(340,811,cs)
);
}
);
};
hints = (
{
horizontal = 1;
place = (-14,21);
target = up;
type = BottomGhost;
},
{
horizontal = 1;
place = (669,53);
type = Stem;
},
{
horizontal = 1;
place = (803,21);
target = up;
type = BottomGhost;
},
{
horizontal = 1;
place = (974,-20);
target = down;
type = TopGhost;
},
{
place = (158,87);
type = Stem;
},
{
place = (311,89);
type = Stem;
},
{
place = (241,262);
type = Stem;
},
{
horizontal = 1;
place = (804,51);
type = Stem;
},
{
horizontal = 1;
place = (728,-20);
target = down;
type = TopGhost;
}
);
layerId = "053302AA-4A2A-42DC-B919-9CC4D126D2B5";
shapes = (
{
ref = A;
},
{
alignment = -1;
pos = (341,-101);
ref = ringcomb.case;
},
{
alignment = -1;
pos = (407,49);
ref = acutecomb.case;
}
);
width = 590;
}
);
note = Aringacute;
unicode = 506;
},
{
color = 4;
glyphname = Atilde;
kernLeft = A;
kernRight = A;
lastChange = "2023-11-24 14:35:16 +0000";
layers = (
{
background = {
anchors = (
{
name = bottom;
pos = (296,-35);
},
{
name = ogonek;
pos = (437,10);
},
{
name = top.case;
pos = (388,909);
}
);
hints = (
{
horizontal = 1;
place = (-14,21);
target = up;
type = BottomGhost;
},
{
horizontal = 1;
place = (728,-20);
target = down;
type = TopGhost;
},
{
horizontal = 1;
place = (762,164);
type = Stem;
},
{
horizontal = 1;
place = (931,-20);
target = down;
type = TopGhost;
},
{
horizontal = 1;
place = (748,178);
type = Stem;
},
{
horizontal = 1;
place = (779,164);
type = Stem;
},
{
horizontal = 1;
place = (948,-20);
target = down;
type = TopGhost;
},
{
horizontal = 1;
place = (765,178);
type = Stem;
}
);
shapes = (
{
closed = 1;
nodes = (
(157,-43,o),
(139,-29,o),
(156,24,cs),
(205,176,o),
(267,327,o),
(343,502,cs),
(347,511,o),
(349,520,o),
(349,530,cs),
(349,577,o),
(306,628,o),
(272,628,cs),
(259,628,o),
(247,620,o),
(239,602,cs),
(158,417,o),
(101,265,o),
(60,142,cs),
(50,110,o),
(45,83,o),
(45,60,cs),
(45,-10,o),
(86,-43,o),
(132,-43,cs)
);
},
{
closed = 1;
nodes = (
(117,82,o),
(121,82,o),
(126,83,cs),
(470,136,ls),
(479,137,o),
(487,137,o),
(496,137,cs),
(504,137,o),
(513,137,o),
(520,137,cs),
(542,137,o),
(559,140,o),
(559,161,cs),
(559,210,o),
(490,245,o),
(448,245,cs),
(444,245,o),
(441,244,o),
(438,244,cs),
(84,194,ls),
(33,187,o),
(17,181,o),
(16,171,cs),
(16,141,o),
(53,82,o),
(112,82,cs)
);
},
{
closed = 1;
nodes = (
(489,-14,o),
(513,2,o),
(505,16,cs),
(480,60,o),
(429,463,o),
(424,604,cs),
(421,679,o),
(363,726,o),
(323,726,cs),
(301,726,o),
(285,712,o),
(287,680,cs),
(299,459,o),
(335,294,o),
(368,101,cs),
(383,12,o),
(420,-14,o),
(465,-14,cs)
);
},
{
closed = 1;
nodes = (
(479,756,o),
(527,812,o),
(527,854,cs),
(527,896,o),
(514,924,o),
(499,926,cs),
(491,926,o),
(482,923,o),
(471,909,cs),
(460,894,o),
(448,887,o),
(436,887,cs),
(399,887,o),
(380,936,o),
(319,936,cs),
(273,936,o),
(225,880,o),
(225,838,cs),
(225,796,o),
(238,768,o),
(253,766,cs),
(261,766,o),
(270,769,o),
(282,783,cs),
(292,797,o),
(304,804,o),
(316,804,cs),
(351,804,o),
(378,756,o),
(433,756,cs)
);
}
);
};
hints = (
{
horizontal = 1;
place = (-14,21);
target = up;
type = BottomGhost;
},
{
horizontal = 1;
place = (728,-20);
target = down;
type = TopGhost;
},
{
horizontal = 1;
place = (770,164);
type = Stem;
},
{
horizontal = 1;
place = (939,-20);
target = down;
type = TopGhost;
},
{
horizontal = 1;
place = (756,178);
type = Stem;
}
);
layerId = "053302AA-4A2A-42DC-B919-9CC4D126D2B5";
shapes = (
{
ref = A;
},
{
pos = (362,17);
ref = tildecomb.case;
}
);
width = 590;
}
);
note = Atilde;
unicode = 195;
},
{
color = 4;
glyphname = AE;
kernLeft = A;
kernRight = E;
lastChange = "2023-11-24 14:34:00 +0000";
layers = (
{
anchors = (
{
name = top.case;
pos = (458,740);
}
);
background = {
anchors = (
{
name = top.case;
pos = (458,740);
}
);
shapes = (
{
closed = 1;
nodes = (
(150,-14,o),
(142,2,o),
(169,53,cs),
(228,166,l),
(334,188,l),
(331,130,ls),
(329,86,o),
(341,51,o),
(384,31,c),
(407,0,o),
(449,-14,o),
(485,-14,c),
(725,87,ls),
(735,91,o),
(737,95,o),
(737,105,cs),
(737,135,o),
(668,179,o),
(629,179,cs),
(589,179,o),
(538,156,o),
(485,121,c),
(498,316,l),
(568,323,o),
(675,332,o),
(675,352,cs),
(675,385,o),
(601,439,o),
(568,439,cs),
(555,439,o),
(530,436,o),
(506,432,c),
(516,599,l),
(528,600,o),
(619,615,o),
(698,615,cs),
(709,615,o),
(719,614,o),
(731,614,cs),
(738,614,o),
(741,617,o),
(741,624,cs),
(741,677,o),
(646,732,o),
(575,732,cs),
(521,732,o),
(392,715,o),
(354,715,cs),
(314,715,o),
(258,718,o),
(258,676,cs),
(258,666,o),
(262,653,o),
(269,637,c),
(242,583,o),
(196,462,o),
(115,273,c),
(58,262,o),
(27,247,o),
(27,237,cs),
(27,224,o),
(46,195,o),
(68,173,c),
(51,144,o),
(28,108,o),
(28,74,cs),
(28,32,o),
(56,-14,o),
(110,-14,cs)
);
},
{
closed = 1;
nodes = (
(350,526,l),
(359,526,l),
(343,320,l),
(285,310,l)
);
}
);
};
hints = (
{
horizontal = 1;
place = (-14,21);
target = up;
type = BottomGhost;
},
{
horizontal = 1;
place = (615,117);
type = Stem;
},
{
place = (346,163);
type = Stem;
}
);
layerId = "053302AA-4A2A-42DC-B919-9CC4D126D2B5";
shapes = (
{
closed = 1;
nodes = (
(150,-14,o),
(142,2,o),
(169,53,cs),
(228,166,l),
(334,188,l),
(331,130,ls),
(329,86,o),
(341,51,o),
(384,31,c),
(407,0,o),
(449,-14,o),
(485,-14,c),
(725,87,ls),
(735,91,o),
(737,95,o),
(737,105,cs),
(737,135,o),
(668,179,o),
(629,179,cs),
(589,179,o),
(538,156,o),
(485,121,c),
(498,316,l),
(568,323,o),
(675,332,o),
(675,352,cs),
(675,385,o),
(601,439,o),
(568,439,cs),
(555,439,o),
(530,436,o),
(506,432,c),
(516,599,l),
(528,600,o),
(619,615,o),
(698,615,cs),
(709,615,o),
(719,614,o),
(731,614,cs),
(738,614,o),
(741,617,o),
(741,624,cs),
(741,677,o),
(646,732,o),
(575,732,cs),
(521,732,o),
(392,715,o),
(354,715,cs),
(314,715,o),
(258,718,o),
(258,676,cs),
(258,666,o),
(262,653,o),
(269,637,c),
(242,583,o),
(196,462,o),
(115,273,c),
(58,262,o),
(27,247,o),
(27,237,cs),
(27,224,o),
(46,195,o),
(68,173,c),
(51,144,o),
(28,108,o),
(28,74,cs),
(28,32,o),
(56,-14,o),
(110,-14,cs)
);
},
{
closed = 1;
nodes = (
(350,526,l),
(359,526,l),
(343,320,l),
(285,310,l)
);
}
);
width = 753;
}
);
metricRight = E;
note = AE;
unicode = 198;
},
{
color = 4;
glyphname = AEacute;
kernLeft = A;
kernRight = E;
lastChange = "2023-11-24 14:34:08 +0000";
layers = (
{
background = {
anchors = (
{
name = top.case;
pos = (458,740);
}
);
hints = (
{
horizontal = 1;
place = (-14,21);
target = up;
type = BottomGhost;
},
{
horizontal = 1;
place = (615,117);
type = Stem;
},
{
place = (346,163);
type = Stem;
}
);
shapes = (
{
closed = 1;
nodes = (
(150,-14,o),
(142,2,o),
(169,53,cs),
(228,166,l),
(334,188,l),
(331,130,ls),
(329,86,o),
(341,51,o),
(384,31,c),
(407,0,o),
(449,-14,o),
(485,-14,c),
(725,87,ls),
(735,91,o),
(737,95,o),
(737,105,cs),
(737,135,o),
(668,179,o),
(629,179,cs),
(589,179,o),
(538,156,o),
(485,121,c),
(498,316,l),
(568,323,o),
(675,332,o),
(675,352,cs),
(675,385,o),
(601,439,o),
(568,439,cs),
(555,439,o),
(530,436,o),
(506,432,c),
(516,599,l),
(528,600,o),
(619,615,o),
(698,615,cs),
(709,615,o),
(719,614,o),
(731,614,cs),
(738,614,o),
(741,617,o),
(741,624,cs),
(741,677,o),
(646,732,o),
(575,732,cs),
(521,732,o),
(392,715,o),
(354,715,cs),
(314,715,o),
(258,718,o),
(258,676,cs),
(258,666,o),
(262,653,o),
(269,637,c),
(242,583,o),
(196,462,o),
(115,273,c),
(58,262,o),
(27,247,o),
(27,237,cs),
(27,224,o),
(46,195,o),
(68,173,c),
(51,144,o),
(28,108,o),
(28,74,cs),
(28,32,o),
(56,-14,o),
(110,-14,cs)
);
},
{
closed = 1;
nodes = (
(350,526,l),
(359,526,l),
(343,320,l),
(285,310,l)
);
},
{
closed = 1;
nodes = (
(510,762,o),
(645,817,o),
(645,867,cs),
(645,905,o),
(613,953,o),
(580,953,cs),
(571,953,o),
(561,949,o),
(552,940,cs),
(512,899,o),
(447,843,o),
(417,817,cs),
(411,812,o),
(408,805,o),
(408,799,cs),
(408,781,o),
(430,762,o),
(456,762,cs)
);
}
);
};
hints = (
{
horizontal = 1;
place = (-14,21);
target = up;
type = BottomGhost;
},
{
horizontal = 1;
place = (615,117);
type = Stem;
},
{
place = (346,163);
type = Stem;
},
{
horizontal = 1;
place = (762,21);
target = up;
type = BottomGhost;
},
{
horizontal = 1;
place = (933,-20);
target = down;
type = TopGhost;
},
{
place = (426,262);
type = Stem;
}
);
layerId = "053302AA-4A2A-42DC-B919-9CC4D126D2B5";
shapes = (
{
ref = AE;
},
{
pos = (523,0);
ref = acutecomb.case;
}
);
width = 753;
}
);
note = AEacute;
unicode = 508;
},
{
color = 4;
glyphname = B;
kernLeft = B;
lastChange = "2023-11-24 14:34:00 +0000";
layers = (
{
background = {
shapes = (
{
closed = 1;
nodes = (
(317,-9,o),
(514,81,o),
(514,171,cs),
(514,239,o),
(437,294,o),
(263,294,c),
(277,251,l),
(472,363,o),
(517,476,o),
(517,551,cs),
(517,638,o),
(401,733,o),
(251,733,cs),
(188,733,o),
(113,721,o),
(58,721,cs),
(49,721,o),
(39,717,o),
(39,705,cs),
(39,668,o),
(109,602,o),
(151,602,cs),
(187,602,o),
(301,614,o),
(343,614,c),
(357,600,o),
(365,580,o),
(365,557,cs),
(365,496,o),
(315,408,o),
(202,309,c),
(202,214,l),
(306,216,o),
(361,196,o),
(361,173,cs),
(361,148,o),
(313,117,o),
(208,99,c),
(236,478,ls),
(237,495,o),
(238,511,o),
(238,525,cs),
(238,603,o),
(218,642,o),
(157,651,c),
(95,677,l),
(58,139,ls),
(55,94,o),
(73,58,o),
(116,42,c),
(137,-2,o),
(183,-9,o),
(222,-9,cs)
);
}
);
};
hints = (
{
horizontal = 1;
place = (-9,21);
target = up;
type = BottomGhost;
},
{
horizontal = 1;
place = (614,119);
type = Stem;
},
{
place = (75,162);
type = Stem;
},
{
place = (356,158);
type = Stem;
}
);
layerId = "053302AA-4A2A-42DC-B919-9CC4D126D2B5";
shapes = (
{
closed = 1;
nodes = (
(317,-9,o),
(514,81,o),
(514,171,cs),
(514,239,o),
(437,294,o),
(263,294,c),
(277,251,l),
(472,363,o),
(517,476,o),
(517,551,cs),
(517,638,o),
(401,733,o),
(251,733,cs),
(188,733,o),
(113,721,o),
(58,721,cs),
(49,721,o),
(39,717,o),
(39,705,cs),
(39,668,o),
(109,602,o),
(151,602,cs),
(187,602,o),
(301,614,o),
(343,614,c),
(357,600,o),
(365,580,o),
(365,557,cs),
(365,496,o),
(315,408,o),
(202,309,c),
(202,214,l),
(306,216,o),
(361,196,o),
(361,173,cs),
(361,148,o),
(313,117,o),
(208,99,c),
(236,478,ls),
(237,495,o),
(238,511,o),
(238,525,cs),
(238,603,o),
(218,642,o),
(157,651,c),
(95,677,l),
(58,139,ls),
(55,94,o),
(73,58,o),
(116,42,c),
(137,-2,o),
(183,-9,o),
(222,-9,cs)
);
}
);
width = 558;
}
);
note = B;
unicode = 66;
},
{
color = 4;
glyphname = C;
kernLeft = C;
kernRight = C;
lastChange = "2023-11-24 14:34:00 +0000";
layers = (
{
anchors = (
{
name = bottom;
pos = (276,-35);
},
{
name = cedilla;
pos = (252,10);
},
{
name = top.case;
pos = (338,740);
}
);
background = {
anchors = (
{
name = bottom;
pos = (276,-35);
},
{
name = cedilla;
pos = (252,10);
},
{
name = top.case;
pos = (338,740);
}
);
shapes = (
{
closed = 1;
nodes = (
(374,-13,o),
(473,97,o),
(473,220,cs),
(473,257,o),
(461,278,o),
(432,283,c),
(385,221,o),
(314,128,o),
(180,128,c),
(180,346,o),
(262,605,o),
(369,621,c),
(344,585,o),
(329,526,o),
(329,491,cs),
(329,444,o),
(376,388,o),
(422,388,cs),
(437,388,o),
(440,396,o),
(446,410,cs),
(466,466,o),
(496,526,o),
(498,570,cs),
(501,617,o),
(481,668,o),
(428,686,c),
(401,724,o),
(370,730,o),
(326,730,cs),
(143,730,o),
(27,428,o),
(27,215,cs),
(27,141,o),
(46,85,o),
(82,61,c),
(116,-4,o),
(194,-13,o),
(250,-13,cs)
);
}
);
};
hints = (
{
horizontal = 1;
place = (-14,21);
target = up;
type = BottomGhost;
},
{
horizontal = 1;
place = (728,-20);
target = down;
type = TopGhost;
},
{
place = (23,157);
type = Stem;
}
);
layerId = "053302AA-4A2A-42DC-B919-9CC4D126D2B5";
shapes = (
{
closed = 1;
nodes = (
(374,-13,o),
(473,97,o),
(473,220,cs),
(473,257,o),
(461,278,o),
(432,283,c),
(385,221,o),
(314,128,o),
(180,128,c),
(180,346,o),
(262,605,o),
(369,621,c),
(344,585,o),
(329,526,o),
(329,491,cs),
(329,444,o),
(376,388,o),
(422,388,cs),
(437,388,o),
(440,396,o),
(446,410,cs),
(466,466,o),
(496,526,o),
(498,570,cs),
(501,617,o),
(481,668,o),
(428,686,c),
(401,724,o),
(370,730,o),
(326,730,cs),
(143,730,o),
(27,428,o),
(27,215,cs),
(27,141,o),
(46,85,o),
(82,61,c),
(116,-4,o),
(194,-13,o),
(250,-13,cs)
);
}
);
width = 502;
},
{
anchors = (
{
name = bottom;
pos = (276,-35);
},
{
name = cedilla;
pos = (252,10);
},
{
name = top.case;
pos = (338,740);
}
);
associatedMasterId = "053302AA-4A2A-42DC-B919-9CC4D126D2B5";
background = {
shapes = (
{
closed = 1;
nodes = (
(183,303,o),
(228,464,o),
(302,583,c),
(304,583,l),
(327,510,ls),
(336,483,o),
(386,462,o),
(426,462,cs),
(451,462,o),
(474,470,o),
(482,487,c),
(482,569,o),
(408,728,o),
(328,728,cs),
(106,728,o),
(23,347,o),
(23,135,cs),
(23,44,o),
(101,-14,o),
(177,-14,c),
(475,119,ls),
(485,123,o),
(487,127,o),
(487,137,cs),
(487,156,o),
(420,211,o),
(381,211,cs),
(305,211,o),
(234,165,o),
(180,126,c)
);
}
);
};
hints = (
{
horizontal = 1;
place = (-14,21);
target = up;
type = BottomGhost;
},
{
horizontal = 1;
place = (728,-20);
target = down;
type = TopGhost;
},
{
place = (23,157);
type = Stem;
}
);
layerId = "3FF2D263-F4F1-4D23-8219-88665CED32BB";
name = "Apr 16 20, 18:07";
shapes = (
{
closed = 1;
nodes = (
(106,728,o),
(23,347,o),
(23,135,cs),
(23,44,o),
(101,-14,o),
(177,-14,c),
(475,119,ls),
(485,123,o),
(487,127,o),
(487,137,cs),
(487,156,o),
(420,211,o),
(381,211,cs),
(305,211,o),
(234,165,o),
(180,126,c),
(183,303,o),
(227,464,o),
(326,617,cs),
(335,617,o),
(336,611,o),
(336,602,cs),
(336,579,o),
(328,528,o),
(328,480,cs),
(328,453,o),
(410,393,o),
(443,393,cs),
(457,393,o),
(464,402,o),
(464,414,cs),
(464,473,o),
(470,523,o),
(470,576,cs),
(470,631,o),
(393,727,o),
(310,727,cs)
);
}
);
width = 502;
},
{
anchors = (
{
name = bottom;
pos = (276,-35);
},
{
name = cedilla;
pos = (252,10);
},
{
name = top.case;
pos = (338,740);
}
);
associatedMasterId = "053302AA-4A2A-42DC-B919-9CC4D126D2B5";
background = {
shapes = (
{
closed = 1;
nodes = (
(183,303,o),
(230,464,o),
(316,583,c),
(318,583,l),
(341,510,ls),
(350,483,o),
(400,462,o),
(440,462,cs),
(465,462,o),
(488,470,o),
(496,487,c),
(496,569,o),
(422,728,o),
(342,728,cs),
(120,728,o),
(23,347,o),
(23,135,cs),
(23,44,o),
(101,-14,o),
(177,-14,c),
(475,119,ls),
(485,123,o),
(487,127,o),
(487,137,cs),
(487,156,o),
(420,211,o),
(381,211,cs),
(305,211,o),
(234,165,o),
(180,126,c)
);
}
);
};
hints = (
{
horizontal = 1;
place = (-14,21);
target = up;
type = BottomGhost;
},
{
horizontal = 1;
place = (728,-20);
target = down;
type = TopGhost;
},
{
place = (23,157);
type = Stem;
}
);
layerId = "287FA8E5-8148-4FC0-B6ED-72FC7ACA7764";
name = "Jun 2 20, 19:18";
shapes = (
{
closed = 1;
nodes = (
(183,303,o),
(228,464,o),
(302,583,c),
(304,583,l),
(327,510,ls),
(336,483,o),
(386,462,o),
(426,462,cs),
(451,462,o),
(474,470,o),
(482,487,c),
(482,569,o),
(408,728,o),
(328,728,cs),
(106,728,o),
(23,347,o),
(23,135,cs),
(23,44,o),
(101,-14,o),
(177,-14,c),
(475,119,ls),
(485,123,o),
(487,127,o),
(487,137,cs),
(487,156,o),
(420,211,o),
(381,211,cs),
(305,211,o),
(234,165,o),
(180,126,c)
);
}
);
width = 502;
}
);
note = C;
unicode = 67;
},
{
color = 4;
glyphname = Cacute;
kernLeft = C;
kernRight = C;
lastChange = "2023-11-24 14:34:08 +0000";
layers = (
{
background = {
anchors = (
{
name = bottom;
pos = (276,-35);
},
{
name = cedilla;
pos = (252,10);
},
{
name = top.case;
pos = (338,740);
}
);
hints = (
{
horizontal = 1;
place = (-14,21);
target = up;
type = BottomGhost;
},
{
horizontal = 1;
place = (728,-20);
target = down;
type = TopGhost;
},
{
place = (23,157);
type = Stem;
}
);
shapes = (
{
closed = 1;
nodes = (
(374,-13,o),
(473,97,o),
(473,220,cs),
(473,257,o),
(461,278,o),
(432,283,c),
(385,221,o),
(314,128,o),
(180,128,c),
(180,346,o),
(262,605,o),
(369,621,c),
(344,585,o),
(329,526,o),
(329,491,cs),
(329,444,o),
(376,388,o),
(422,388,cs),
(437,388,o),
(440,396,o),
(446,410,cs),
(466,466,o),
(496,526,o),
(498,570,cs),
(501,617,o),
(481,668,o),
(428,686,c),
(401,724,o),
(370,730,o),
(326,730,cs),
(143,730,o),
(27,428,o),
(27,215,cs),
(27,141,o),
(46,85,o),
(82,61,c),
(116,-4,o),
(194,-13,o),
(250,-13,cs)
);
},
{
closed = 1;
nodes = (
(390,762,o),
(525,817,o),
(525,867,cs),
(525,905,o),
(493,953,o),
(460,953,cs),
(451,953,o),
(441,949,o),
(432,940,cs),
(392,899,o),
(327,843,o),
(297,817,cs),
(291,812,o),
(288,805,o),
(288,799,cs),
(288,781,o),
(310,762,o),
(336,762,cs)
);
}
);
};
hints = (
{
horizontal = 1;
place = (-14,21);
target = up;
type = BottomGhost;
},
{
horizontal = 1;
place = (728,-20);
target = down;
type = TopGhost;
},
{
place = (23,157);
type = Stem;
},
{
horizontal = 1;
place = (762,21);
target = up;
type = BottomGhost;
},
{
horizontal = 1;
place = (933,-20);
target = down;
type = TopGhost;
},
{
place = (260,262);
type = Stem;
}
);
layerId = "053302AA-4A2A-42DC-B919-9CC4D126D2B5";
shapes = (
{
ref = C;
},
{
pos = (403,0);
ref = acutecomb.case;
}
);
width = 502;
}
);
note = Cacute;
unicode = 262;
},
{
color = 4;
glyphname = Ccaron;
kernLeft = C;
kernRight = C;
lastChange = "2023-11-24 14:34:08 +0000";
layers = (
{
background = {
anchors = (
{
name = bottom;
pos = (276,-35);
},
{
name = cedilla;
pos = (252,10);
},
{
name = top.case;
pos = (338,740);
}
);
hints = (
{
horizontal = 1;
place = (-14,21);
target = up;
type = BottomGhost;
},
{
horizontal = 1;
place = (728,-20);
target = down;
type = TopGhost;
},
{
place = (23,157);
type = Stem;
}
);
shapes = (
{
closed = 1;
nodes = (
(374,-13,o),
(473,97,o),
(473,220,cs),
(473,257,o),
(461,278,o),
(432,283,c),
(385,221,o),
(314,128,o),
(180,128,c),
(180,346,o),
(262,605,o),
(369,621,c),
(344,585,o),
(329,526,o),
(329,491,cs),
(329,444,o),
(376,388,o),
(422,388,cs),
(437,388,o),
(440,396,o),
(446,410,cs),
(466,466,o),
(496,526,o),
(498,570,cs),
(501,617,o),
(481,668,o),
(428,686,c),
(401,724,o),
(370,730,o),
(326,730,cs),
(143,730,o),
(27,428,o),
(27,215,cs),
(27,141,o),
(46,85,o),
(82,61,c),
(116,-4,o),
(194,-13,o),
(250,-13,cs)
);
},
{
closed = 1;
nodes = (
(344,756,o),
(351,759,o),
(357,764,cs),
(390,794,o),
(456,865,o),
(491,894,cs),
(497,899,o),
(501,908,o),
(501,918,cs),
(501,937,o),
(488,958,o),
(464,958,cs),
(420,958,o),
(397,924,o),
(353,872,c),
(322,915,o),
(287,949,o),
(252,949,cs),
(224,949,o),
(193,929,o),
(193,908,cs),
(193,902,o),
(196,896,o),
(202,890,cs),
(237,857,o),
(289,791,o),
(316,765,cs),
(322,759,o),
(330,756,o),
(337,756,cs)
);
}
);
};
hints = (
{
horizontal = 1;
place = (-14,21);
target = up;
type = BottomGhost;
},
{
horizontal = 1;
place = (728,-20);
target = down;
type = TopGhost;
},
{
place = (23,157);
type = Stem;
},
{
horizontal = 1;
place = (755,21);
target = up;
type = BottomGhost;
},
{
horizontal = 1;
place = (961,-20);
target = down;
type = TopGhost;
}
);
layerId = "053302AA-4A2A-42DC-B919-9CC4D126D2B5";
shapes = (
{
ref = C;
},
{
pos = (351,0);
ref = caroncomb.case;
}
);
width = 502;
}
);
note = Ccaron;
unicode = 268;
},
{
color = 4;
glyphname = Ccedilla;
kernLeft = C;
kernRight = C;
lastChange = "2023-11-24 14:34:08 +0000";
layers = (
{
background = {
anchors = (
{
name = bottom;
pos = (276,-35);
},
{
name = cedilla;
pos = (252,10);
},
{
name = top.case;
pos = (338,740);
}
);
hints = (
{
horizontal = 1;
place = (-14,21);
target = up;
type = BottomGhost;
},
{
horizontal = 1;
place = (728,-20);
target = down;
type = TopGhost;
},
{
place = (23,157);
type = Stem;
},
{
horizontal = 1;
place = (-171,100);
type = Stem;
},
{
horizontal = 1;
place = (46,-20);
target = down;
type = TopGhost;
},
{
place = (103,246);
type = Stem;
}
);
shapes = (
{
closed = 1;
nodes = (
(374,-13,o),
(473,97,o),
(473,220,cs),
(473,257,o),
(461,278,o),
(432,283,c),
(385,221,o),
(314,128,o),
(180,128,c),
(180,346,o),
(262,605,o),
(369,621,c),
(344,585,o),
(329,526,o),
(329,491,cs),
(329,444,o),
(376,388,o),
(422,388,cs),
(437,388,o),
(440,396,o),
(446,410,cs),
(466,466,o),
(496,526,o),
(498,570,cs),
(501,617,o),
(481,668,o),
(428,686,c),
(401,724,o),
(370,730,o),
(326,730,cs),
(143,730,o),
(27,428,o),
(27,215,cs),
(27,141,o),
(46,85,o),
(82,61,c),
(116,-4,o),
(194,-13,o),
(250,-13,cs)
);
},
{
closed = 1;
nodes = (
(264,-195,o),
(315,-121,o),
(315,-43,cs),
(315,-12,o),
(307,20,o),
(289,48,c),
(215,30,l),
(221,-63,o),
(187,-97,o),
(157,-97,cs),
(137,-97,o),
(126,-82,o),
(108,-82,cs),
(95,-82,o),
(88,-93,o),
(88,-111,cs),
(88,-148,o),
(134,-195,o),
(183,-195,cs)
);
}
);
};
hints = (
{
horizontal = 1;
place = (-171,100);
type = Stem;
},
{
horizontal = 1;
place = (-14,21);
target = up;
type = BottomGhost;
},
{
horizontal = 1;
place = (46,-20);
target = down;
type = TopGhost;
},
{
horizontal = 1;
place = (728,-20);
target = down;
type = TopGhost;
},
{
place = (112,246);
type = Stem;
},
{
place = (23,157);
type = Stem;
}
);
layerId = "053302AA-4A2A-42DC-B919-9CC4D126D2B5";
shapes = (
{
ref = C;
},
{
pos = (226,0);
ref = cedillacomb;
}
);
width = 502;
}
);
note = Ccedilla;
unicode = 199;
},
{
color = 4;
glyphname = Ccircumflex;
kernLeft = C;
kernRight = C;
lastChange = "2023-11-24 14:34:08 +0000";
layers = (
{
background = {
anchors = (
{
name = bottom;
pos = (276,-35);
},
{
name = cedilla;
pos = (252,10);
},
{
name = top.case;
pos = (343,984);
}
);
hints = (
{
horizontal = 1;
place = (-14,21);
target = up;
type = BottomGhost;
},
{
horizontal = 1;
place = (728,-20);
target = down;
type = TopGhost;
},
{
place = (23,157);
type = Stem;
},
{
horizontal = 1;
place = (758,21);
target = up;
type = BottomGhost;
},
{
horizontal = 1;
place = (974,-20);
target = down;
type = TopGhost;
}
);
shapes = (
{
closed = 1;
nodes = (
(374,-13,o),
(473,97,o),
(473,220,cs),
(473,257,o),
(461,278,o),
(432,283,c),
(385,221,o),
(314,128,o),
(180,128,c),
(180,346,o),
(262,605,o),
(369,621,c),
(344,585,o),
(329,526,o),
(329,491,cs),
(329,444,o),
(376,388,o),
(422,388,cs),
(437,388,o),
(440,396,o),
(446,410,cs),
(466,466,o),
(496,526,o),
(498,570,cs),
(501,617,o),
(481,668,o),
(428,686,c),
(401,724,o),
(370,730,o),
(326,730,cs),
(143,730,o),
(27,428,o),
(27,215,cs),
(27,141,o),
(46,85,o),
(82,61,c),
(116,-4,o),
(194,-13,o),
(250,-13,cs)
);
},
{
closed = 1;
nodes = (
(260,752,o),
(287,787,o),
(337,838,c),
(371,797,o),
(410,762,o),
(449,762,cs),
(481,762,o),
(517,786,o),
(517,810,cs),
(517,817,o),
(515,824,o),
(508,830,cs),
(468,867,o),
(409,941,o),
(379,971,cs),
(372,978,o),
(363,982,o),
(355,982,cs),
(347,982,o),
(339,978,o),
(332,972,cs),
(295,938,o),
(220,858,o),
(179,825,cs),
(172,819,o),
(169,809,o),
(169,799,cs),
(169,777,o),
(183,752,o),
(210,752,cs)
);
}
);
};
hints = (
{
horizontal = 1;
place = (-14,21);
target = up;
type = BottomGhost;
},
{
horizontal = 1;
place = (728,-20);
target = down;
type = TopGhost;
},
{
place = (23,157);
type = Stem;
},
{
horizontal = 1;
place = (754,21);
target = up;
type = BottomGhost;
},
{
horizontal = 1;
place = (960,-20);
target = down;
type = TopGhost;
}
);
layerId = "053302AA-4A2A-42DC-B919-9CC4D126D2B5";
shapes = (
{
ref = C;
},
{
pos = (343,0);
ref = circumflexcomb.case;
}
);
width = 502;
}
);
note = Ccircumflex;
unicode = 264;
},
{
color = 4;
glyphname = Cdotaccent;
kernLeft = C;
kernRight = C;
lastChange = "2023-11-24 14:34:08 +0000";
layers = (
{
background = {
anchors = (
{
name = bottom;
pos = (276,-35);
},
{
name = cedilla;
pos = (252,10);
},
{
name = top.case;
pos = (338,945);
}
);
hints = (
{
horizontal = 1;
place = (-14,21);
target = up;
type = BottomGhost;
},
{
horizontal = 1;
place = (728,-20);
target = down;
type = TopGhost;
},
{
place = (23,157);
type = Stem;
},
{
horizontal = 1;
place = (783,165);
type = Stem;
},
{
place = (254,146);
type = Stem;
},
{
place = (254,168);
type = Stem;
}
);
shapes = (
{
closed = 1;
nodes = (
(374,-13,o),
(473,97,o),
(473,220,cs),
(473,257,o),
(461,278,o),
(432,283,c),
(385,221,o),
(314,128,o),
(180,128,c),
(180,346,o),
(262,605,o),
(369,621,c),
(344,585,o),
(329,526,o),
(329,491,cs),
(329,444,o),
(376,388,o),
(422,388,cs),
(437,388,o),
(440,396,o),
(446,410,cs),
(466,466,o),
(496,526,o),
(498,570,cs),
(501,617,o),
(481,668,o),
(428,686,c),
(401,724,o),
(370,730,o),
(326,730,cs),
(143,730,o),
(27,428,o),
(27,215,cs),
(27,141,o),
(46,85,o),
(82,61,c),
(116,-4,o),
(194,-13,o),
(250,-13,cs)
);
},
{
closed = 1;
nodes = (
(381,783,o),
(388,784,o),
(400,787,c),
(410,859,o),
(422,895,o),
(422,926,cs),
(422,934,o),
(417,936,o),
(405,939,cs),
(382,945,o),
(362,948,o),
(343,948,cs),
(326,948,o),
(300,947,o),
(284,944,cs),
(255,937,o),
(255,900,o),
(253,875,cs),
(248,800,o),
(303,783,o),
(370,783,cs)
);
}
);
};
hints = (
{
horizontal = 1;
place = (-14,21);
target = up;
type = BottomGhost;
},
{
horizontal = 1;
place = (728,-20);
target = down;
type = TopGhost;
},
{
place = (23,157);
type = Stem;
},
{
horizontal = 1;
place = (763,165);
type = Stem;
},
{
place = (236,146);
type = Stem;
},
{
place = (236,168);
type = Stem;
}
);
layerId = "053302AA-4A2A-42DC-B919-9CC4D126D2B5";
shapes = (
{
ref = C;
},
{
pos = (338,0);
ref = dotaccentcomb.case;
}
);
width = 502;
}
);
note = Cdotaccent;
unicode = 266;
},
{
color = 4;
glyphname = D;
kernLeft = B;
kernRight = D;
lastChange = "2023-11-24 14:34:00 +0000";
layers = (
{
anchors = (
{
name = top.case;
pos = (292,740);
}
);
background = {
anchors = (
{
name = top.case;
pos = (292,740);
}
);
shapes = (
{
closed = 1;
nodes = (
(291,-14,o),
(575,269,o),
(575,506,cs),
(575,590,o),
(494,723,o),
(272,723,cs),
(225,723,o),
(119,715,o),
(54,715,cs),
(45,715,o),
(35,711,o),
(35,699,cs),
(35,646,o),
(141,589,o),
(192,589,cs),
(226,589,o),
(307,597,o),
(370,597,c),
(401,573,o),
(414,537,o),
(414,494,cs),
(414,365,o),
(296,175,o),
(177,88,c),
(201,85,l),
(226,410,ls),
(227,426,o),
(228,441,o),
(228,456,cs),
(228,581,o),
(182,645,o),
(91,658,c),
(54,139,ls),
(51,94,o),
(72,67,o),
(118,40,c),
(134,-2,o),
(169,-14,o),
(208,-14,cs)
);
}
);
};
hints = (
{
horizontal = 1;
place = (-14,21);
target = up;
type = BottomGhost;
},
{
horizontal = 1;
place = (600,123);
type = Stem;
},
{
place = (71,151);
type = Stem;
},
{
place = (410,165);
type = Stem;
}
);
layerId = "053302AA-4A2A-42DC-B919-9CC4D126D2B5";
shapes = (
{
closed = 1;
nodes = (
(291,-14,o),
(575,269,o),
(575,506,cs),
(575,590,o),
(494,723,o),
(272,723,cs),
(225,723,o),
(119,715,o),
(54,715,cs),
(45,715,o),
(35,711,o),
(35,699,cs),
(35,646,o),
(141,589,o),
(192,589,cs),
(226,589,o),
(307,597,o),
(370,597,c),
(401,573,o),
(414,537,o),
(414,494,cs),
(414,365,o),
(296,175,o),
(177,88,c),
(201,85,l),
(226,410,ls),
(227,426,o),
(228,441,o),
(228,456,cs),
(228,581,o),
(182,645,o),
(91,658,c),
(54,139,ls),
(51,94,o),
(72,67,o),
(118,40,c),
(134,-2,o),
(169,-14,o),
(208,-14,cs)
);
}
);
width = 590;
}
);
note = D;
unicode = 68;
},
{
color = 4;
glyphname = DZcaron;
lastChange = "2023-11-24 14:34:08 +0000";
layers = (
{
background = {
anchors = (
{
name = bottom;
pos = (844,-35);
},
{
name = top.case;
pos = (863,740);
}
);
hints = (
{
horizontal = 1;
place = (-14,21);
target = up;
type = BottomGhost;
},
{
horizontal = 1;
place = (600,123);
type = Stem;
},
{
place = (71,151);
type = Stem;
},
{
place = (410,165);
type = Stem;
},
{
horizontal = 1;
place = (-14,139);
type = Stem;
},
{
horizontal = 1;
place = (597,132);
type = Stem;
},
{
horizontal = 1;
place = (-4,21);
target = up;
type = BottomGhost;
},
{
horizontal = 1;
place = (-6,21);
target = up;
type = BottomGhost;
},
{
horizontal = 1;
place = (755,21);
target = up;
type = BottomGhost;
},
{
horizontal = 1;
place = (961,-20);
target = down;
type = TopGhost;
},
{
horizontal = 1;
place = (-14,139);
type = Stem;
},
{
horizontal = 1;
place = (597,132);
type = Stem;
},
{
horizontal = 1;
place = (-4,21);
target = up;
type = BottomGhost;
},
{
horizontal = 1;
place = (-6,21);
target = up;
type = BottomGhost;
}
);
shapes = (
{
closed = 1;
nodes = (
(291,-14,o),
(575,269,o),
(575,506,cs),
(575,590,o),
(494,723,o),
(272,723,cs),
(225,723,o),
(119,715,o),
(54,715,cs),
(45,715,o),
(35,711,o),
(35,699,cs),
(35,646,o),
(141,589,o),
(192,589,cs),
(226,589,o),
(307,597,o),
(370,597,c),
(401,573,o),
(414,537,o),
(414,494,cs),
(414,365,o),
(296,175,o),
(177,88,c),
(201,85,l),
(226,410,ls),
(227,426,o),
(228,441,o),
(228,456,cs),
(228,581,o),
(182,645,o),
(91,658,c),
(54,139,ls),
(51,94,o),
(72,67,o),
(118,40,c),
(134,-2,o),
(169,-14,o),
(208,-14,cs)
);
},
{
closed = 1;
nodes = (
(804,-27,o),
(941,15,o),
(1002,22,cs),
(1046,27,o),
(1059,32,o),
(1059,46,cs),
(1059,86,o),
(967,126,o),
(912,126,cs),
(866,126,o),
(756,104,o),
(721,93,c),
(759,17,l),
(855,203,o),
(974,412,o),
(1088,569,cs),
(1101,586,o),
(1108,593,o),
(1108,607,cs),
(1108,633,o),
(1086,667,o),
(1047,678,c),
(1027,701,o),
(983,721,o),
(951,721,cs),
(894,721,o),
(674,682,o),
(652,679,cs),
(644,678,o),
(630,673,o),
(630,662,cs),
(630,626,o),
(665,559,o),
(759,559,cs),
(797,559,o),
(902,593,o),
(948,596,c),
(941,646,l),
(646,131,ls),
(632,109,o),
(627,88,o),
(627,66,cs),
(627,50,o),
(648,31,o),
(675,18,c),
(692,-13,o),
(728,-27,o),
(752,-27,cs)
);
},
{
closed = 1;
nodes = (
(869,756,o),
(876,759,o),
(882,764,cs),
(915,794,o),
(981,865,o),
(1016,894,cs),
(1022,899,o),
(1026,908,o),
(1026,918,cs),
(1026,937,o),
(1013,958,o),
(989,958,cs),
(945,958,o),
(922,924,o),
(878,872,c),
(847,915,o),
(812,949,o),
(777,949,cs),
(749,949,o),
(718,929,o),
(718,908,cs),
(718,902,o),
(721,896,o),
(727,890,cs),
(762,857,o),
(814,791,o),
(841,765,cs),
(847,759,o),
(855,756,o),
(862,756,cs)
);
}
);
};
layerId = "053302AA-4A2A-42DC-B919-9CC4D126D2B5";
shapes = (
{
ref = D;
},
{
pos = (590,0);
ref = Zcaron;
}
);
width = 1096;
}
);
unicode = 452;
},
{
color = 4;
glyphname = Dcaron;
kernLeft = B;
kernRight = D;
lastChange = "2023-11-24 14:34:08 +0000";
layers = (
{
background = {
anchors = (
{
name = top.case;
pos = (292,740);
}
);
hints = (
{
horizontal = 1;
place = (-14,21);
target = up;
type = BottomGhost;
},
{
horizontal = 1;
place = (600,123);
type = Stem;
},
{
place = (71,151);
type = Stem;
},
{
place = (410,165);
type = Stem;
}
);
shapes = (
{
closed = 1;
nodes = (
(291,-14,o),
(575,269,o),
(575,506,cs),
(575,590,o),
(494,723,o),
(272,723,cs),
(225,723,o),
(119,715,o),
(54,715,cs),
(45,715,o),
(35,711,o),
(35,699,cs),
(35,646,o),
(141,589,o),
(192,589,cs),
(226,589,o),
(307,597,o),
(370,597,c),
(401,573,o),
(414,537,o),
(414,494,cs),
(414,365,o),
(296,175,o),
(177,88,c),
(201,85,l),
(226,410,ls),
(227,426,o),
(228,441,o),
(228,456,cs),
(228,581,o),
(182,645,o),
(91,658,c),
(54,139,ls),
(51,94,o),
(72,67,o),
(118,40,c),
(134,-2,o),
(169,-14,o),
(208,-14,cs)
);
},
{
closed = 1;
nodes = (
(298,756,o),
(305,759,o),
(311,764,cs),
(344,794,o),
(410,865,o),
(445,894,cs),
(451,899,o),
(455,908,o),
(455,918,cs),
(455,937,o),
(442,958,o),
(418,958,cs),
(374,958,o),
(351,924,o),
(307,872,c),
(276,915,o),
(241,949,o),
(206,949,cs),
(178,949,o),
(147,929,o),
(147,908,cs),
(147,902,o),
(150,896,o),
(156,890,cs),
(191,857,o),
(243,791,o),
(270,765,cs),
(276,759,o),
(284,756,o),
(291,756,cs)
);
}
);
};
hints = (
{
horizontal = 1;
place = (-14,21);
target = up;
type = BottomGhost;
},
{
horizontal = 1;
place = (600,123);
type = Stem;
},
{
place = (61,151);
type = Stem;
},
{
place = (400,165);
type = Stem;
},
{
horizontal = 1;
place = (755,21);
target = up;
type = BottomGhost;
},
{
horizontal = 1;
place = (961,-20);
target = down;
type = TopGhost;
}
);
layerId = "053302AA-4A2A-42DC-B919-9CC4D126D2B5";
shapes = (
{
ref = D;
},
{
pos = (305,0);
ref = caroncomb.case;
}
);
width = 590;
}
);
note = Dcaron;
unicode = 270;
},
{
color = 4;
glyphname = Dcroat;
kernLeft = Dcroat;
kernRight = D;
lastChange = "2023-11-24 14:34:08 +0000";
layers = (
{
background = {
anchors = (
{
name = top.case;
pos = (302,740);
}
);
hints = (
{
horizontal = 1;
place = (-14,21);
target = up;
type = BottomGhost;
},
{
horizontal = 1;
place = (327,21);
target = up;
type = BottomGhost;
},
{
horizontal = 1;
place = (600,123);
type = Stem;
},
{
place = (61,151);
type = Stem;
},
{
place = (400,165);
type = Stem;
},
{
horizontal = 1;
place = (336,124);
type = Stem;
},
{
horizontal = 1;
place = (-14,21);
target = up;
type = BottomGhost;
},
{
horizontal = 1;
place = (600,123);
type = Stem;
},
{
place = (81,151);
type = Stem;
},
{
place = (420,165);
type = Stem;
}
);
shapes = (
{
closed = 1;
nodes = (
(324,365,ls),
(350,367,o),
(368,377,o),
(368,386,cs),
(368,416,o),
(321,485,o),
(279,480,cs),
(65,453,ls),
(17,447,o),
(0,432,o),
(0,420,cs),
(0,403,o),
(32,360,o),
(61,347,c)
);
},
{
closed = 1;
nodes = (
(301,-14,o),
(585,269,o),
(585,506,cs),
(585,590,o),
(504,723,o),
(282,723,cs),
(235,723,o),
(129,715,o),
(64,715,cs),
(55,715,o),
(45,711,o),
(45,699,cs),
(45,646,o),
(151,589,o),
(202,589,cs),
(236,589,o),
(317,597,o),
(380,597,c),
(411,573,o),
(424,537,o),
(424,494,cs),
(424,365,o),
(306,175,o),
(187,88,c),
(211,85,l),
(236,410,ls),
(237,426,o),
(238,441,o),
(238,456,cs),
(238,581,o),
(192,645,o),
(101,658,c),
(64,139,ls),
(61,94,o),
(82,67,o),
(128,40,c),
(144,-2,o),
(179,-14,o),
(218,-14,cs)
);
}
);
};
hints = (
{
horizontal = 1;
place = (-14,21);
target = up;
type = BottomGhost;
},
{
horizontal = 1;
place = (327,21);
target = up;
type = BottomGhost;
},
{
horizontal = 1;
place = (600,123);
type = Stem;
},
{
place = (61,151);
type = Stem;
},
{
place = (400,165);
type = Stem;
},
{
horizontal = 1;
place = (336,124);
type = Stem;
}
);
layerId = "053302AA-4A2A-42DC-B919-9CC4D126D2B5";
shapes = (
{
ref = Eth;
}
);
width = 600;
}
);
note = Dcroat;
unicode = 272;
},
{
color = 4;
glyphname = Dzcaron;
lastChange = "2023-11-24 14:34:08 +0000";
layers = (
{
background = {
anchors = (
{
name = bottom;
pos = (776,-35);
},
{
name = top;
pos = (821,605);
},
{
name = top.case;
pos = (292,740);
}
);
hints = (
{
horizontal = 1;
place = (-14,21);
target = up;
type = BottomGhost;
},
{
horizontal = 1;
place = (600,123);
type = Stem;
},
{
place = (71,151);
type = Stem;
},
{
place = (410,165);
type = Stem;
},
{
horizontal = 1;
place = (-20,146);
type = Stem;
},
{
horizontal = 1;
place = (446,134);
type = Stem;
},
{
horizontal = 1;
place = (27,99);
type = Stem;
},
{
horizontal = 1;
place = (631,21);
target = up;
type = BottomGhost;
},
{
horizontal = 1;
place = (847,-20);
target = down;
type = TopGhost;
},
{
horizontal = 1;
place = (-60,106);
type = Stem;
},
{
horizontal = 1;
place = (406,94);
type = Stem;
},
{
horizontal = 1;
place = (-13,59);
type = Stem;
},
{
horizontal = 1;
place = (631,21);
target = up;
type = BottomGhost;
},
{
horizontal = 1;
place = (847,-20);
target = down;
type = TopGhost;
},
{
horizontal = 1;
place = (852,-20);
target = down;
type = TopGhost;
},
{
horizontal = 1;
place = (636,21);
target = up;
type = BottomGhost;
}
);
shapes = (
{
closed = 1;
nodes = (
(291,-14,o),
(575,269,o),
(575,506,cs),
(575,590,o),
(494,723,o),
(272,723,cs),
(225,723,o),
(119,715,o),
(54,715,cs),
(45,715,o),
(35,711,o),
(35,699,cs),
(35,646,o),
(141,589,o),
(192,589,cs),
(226,589,o),
(307,597,o),
(370,597,c),
(401,573,o),
(414,537,o),
(414,494,cs),
(414,365,o),
(296,175,o),
(177,88,c),
(201,85,l),
(226,410,ls),
(227,426,o),
(228,441,o),
(228,456,cs),
(228,581,o),
(182,645,o),
(91,658,c),
(54,139,ls),
(51,94,o),
(72,67,o),
(118,40,c),
(134,-2,o),
(169,-14,o),
(208,-14,cs)
);
},
{
closed = 1;
nodes = (
(758,-20,o),
(942,37,o),
(981,47,cs),
(990,49,o),
(1002,52,o),
(1002,65,cs),
(1002,106,o),
(936,132,o),
(872,132,cs),
(822,132,o),
(781,114,o),
(745,104,c),
(736,65,l),
(1004,463,ls),
(1008,469,o),
(1015,473,o),
(1016,478,cs),
(1019,503,o),
(1012,524,o),
(982,543,c),
(968,569,o),
(944,580,o),
(910,580,cs),
(856,580,o),
(681,543,o),
(643,543,cs),
(634,543,o),
(621,539,o),
(621,527,cs),
(621,473,o),
(688,420,o),
(730,420,cs),
(779,420,o),
(837,442,o),
(910,482,c),
(863,497,l),
(623,142,ls),
(613,128,o),
(607,106,o),
(605,92,cs),
(601,59,o),
(613,38,o),
(637,26,c),
(647,-3,o),
(676,-20,o),
(704,-20,cs)
);
},
{
closed = 1;
nodes = (
(910,858,o),
(883,823,o),
(833,772,c),
(799,813,o),
(760,848,o),
(721,848,cs),
(689,848,o),
(653,824,o),
(653,800,cs),
(653,793,o),
(655,786,o),
(662,780,cs),
(702,743,o),
(761,669,o),
(791,639,cs),
(798,632,o),
(807,628,o),
(815,628,cs),
(823,628,o),
(831,632,o),
(838,638,cs),
(875,672,o),
(950,752,o),
(991,785,cs),
(998,791,o),
(1001,801,o),
(1001,811,cs),
(1001,833,o),
(987,858,o),
(960,858,cs)
);
}
);
};
layerId = "053302AA-4A2A-42DC-B919-9CC4D126D2B5";
shapes = (
{
ref = D;
},
{
pos = (590,0);
ref = zcaron;
}
);
width = 1027;
}
);
unicode = 453;
},
{
color = 4;
glyphname = Eth;
kernLeft = Dcroat;
kernRight = D;
lastChange = "2023-11-24 14:34:08 +0000";
layers = (
{
background = {
anchors = (
{
name = top.case;
pos = (302,740);
}
);
hints = (
{
horizontal = 1;
place = (-14,21);
target = up;
type = BottomGhost;
},
{
horizontal = 1;
place = (600,123);
type = Stem;
},
{
place = (81,151);
type = Stem;
},
{
place = (420,165);
type = Stem;
}
);
shapes = (
{
closed = 1;
nodes = (
(324,365,ls),
(350,367,o),
(368,377,o),
(368,386,cs),
(368,416,o),
(321,485,o),
(279,480,cs),
(65,453,ls),
(17,447,o),
(0,432,o),
(0,420,cs),
(0,403,o),
(32,360,o),
(61,347,c)
);
},
{
closed = 1;
nodes = (
(301,-14,o),
(585,269,o),
(585,506,cs),
(585,590,o),
(504,723,o),
(282,723,cs),
(235,723,o),
(129,715,o),
(64,715,cs),
(55,715,o),
(45,711,o),
(45,699,cs),
(45,646,o),
(151,589,o),
(202,589,cs),
(236,589,o),
(317,597,o),
(380,597,c),
(411,573,o),
(424,537,o),
(424,494,cs),
(424,365,o),
(306,175,o),
(187,88,c),
(211,85,l),
(236,410,ls),
(237,426,o),
(238,441,o),
(238,456,cs),
(238,581,o),
(192,645,o),
(101,658,c),
(64,139,ls),
(61,94,o),
(82,67,o),
(128,40,c),
(144,-2,o),
(179,-14,o),
(218,-14,cs)
);
}
);
};
hints = (
{
horizontal = 1;
place = (-14,21);
target = up;
type = BottomGhost;
},
{
horizontal = 1;
place = (327,21);
target = up;
type = BottomGhost;
},
{
horizontal = 1;
place = (600,123);
type = Stem;
},
{
place = (61,151);
type = Stem;
},
{
place = (400,165);
type = Stem;
},
{
horizontal = 1;
place = (336,124);
type = Stem;
}
);
layerId = "053302AA-4A2A-42DC-B919-9CC4D126D2B5";
shapes = (
{
closed = 1;
nodes = (
(324,365,ls),
(350,367,o),
(368,377,o),
(368,386,cs),
(368,416,o),
(321,485,o),
(279,480,cs),
(65,453,ls),
(17,447,o),
(0,432,o),
(0,420,cs),
(0,403,o),
(32,360,o),
(61,347,c)
);
},
{
pos = (10,0);
ref = D;
}
);
width = 600;
}
);
metricRight = D;
note = Eth;
unicode = 208;
},
{
color = 4;
glyphname = E;
kernLeft = B;
kernRight = E;
lastChange = "2023-11-24 14:34:00 +0000";
layers = (
{
anchors = (
{
name = bottom;
pos = (261,-35);
},
{
name = ogonek;
pos = (343,60);
},
{
name = top.case;
pos = (259,740);
}
);
background = {
anchors = (
{
name = bottom;
pos = (261,-35);
},
{
name = ogonek;
pos = (343,60);
},
{
name = top.case;
pos = (259,740);
}
);
shapes = (
{
closed = 1;
nodes = (
(468,87,ls),
(478,91,o),
(480,95,o),
(480,105,cs),
(480,135,o),
(411,179,o),
(372,179,cs),
(321,179,o),
(251,141,o),
(183,89,c),
(224,55,l),
(227,256,o),
(238,456,o),
(262,653,c),
(110,660,l),
(88,486,o),
(86,313,o),
(74,139,cs),
(71,92,o),
(87,51,o),
(126,34,c),
(145,0,o),
(191,-14,o),
(228,-14,c)
);
},
{
closed = 1;
nodes = (
(260,310,o),
(362,331,o),
(406,331,cs),
(431,331,o),
(443,335,o),
(443,359,cs),
(443,391,o),
(363,443,o),
(323,443,cs),
(272,443,o),
(213,434,o),
(123,418,cs),
(106,415,o),
(101,407,o),
(101,391,cs),
(101,366,o),
(157,310,o),
(200,310,cs)
);
},
{
closed = 1;
nodes = (
(202,589,o),
(337,615,o),
(441,615,cs),
(452,615,o),
(462,614,o),
(474,614,cs),
(481,614,o),
(484,617,o),
(484,624,cs),
(484,677,o),
(433,732,o),
(318,732,cs),
(264,732,o),
(112,715,o),
(74,715,cs),
(61,715,o),
(55,709,o),
(55,699,cs),
(55,664,o),
(132,589,o),
(162,589,cs)
);
}
);
};
hints = (
{
horizontal = 1;
place = (-14,21);
target = up;
type = BottomGhost;
},
{
horizontal = 1;
place = (615,117);
type = Stem;
},
{
place = (101,153);
type = Stem;
}
);
layerId = "053302AA-4A2A-42DC-B919-9CC4D126D2B5";
shapes = (
{
closed = 1;
nodes = (
(468,87,ls),
(478,91,o),
(480,95,o),
(480,105,cs),
(480,135,o),
(411,179,o),
(372,179,cs),
(321,179,o),
(251,141,o),
(183,89,c),
(224,55,l),
(227,256,o),
(238,456,o),
(262,653,c),
(110,660,l),
(88,486,o),
(86,313,o),
(74,139,cs),
(71,92,o),
(87,51,o),
(126,34,c),
(145,0,o),
(191,-14,o),
(228,-14,c)
);
},
{
closed = 1;
nodes = (
(260,310,o),
(362,331,o),
(406,331,cs),
(431,331,o),
(443,335,o),
(443,359,cs),
(443,391,o),
(363,443,o),
(323,443,cs),
(272,443,o),
(213,434,o),
(123,418,cs),
(106,415,o),
(101,407,o),
(101,391,cs),
(101,366,o),
(157,310,o),
(200,310,cs)
);
},
{
closed = 1;
nodes = (
(202,589,o),
(337,615,o),
(441,615,cs),
(452,615,o),
(462,614,o),
(474,614,cs),
(481,614,o),
(484,617,o),
(484,624,cs),
(484,677,o),
(433,732,o),
(318,732,cs),
(264,732,o),
(112,715,o),
(74,715,cs),
(61,715,o),
(55,709,o),
(55,699,cs),
(55,664,o),
(132,589,o),
(162,589,cs)
);
}
);
width = 496;
}
);
note = E;
unicode = 69;
},
{
color = 4;
glyphname = Eacute;
kernLeft = B;
kernRight = E;
lastChange = "2023-11-24 14:34:08 +0000";
layers = (
{
background = {
anchors = (
{
name = bottom;
pos = (261,-35);
},
{
name = ogonek;
pos = (343,60);
},
{
name = top.case;
pos = (259,740);
}
);
hints = (
{
horizontal = 1;
place = (-14,21);
target = up;
type = BottomGhost;
},
{
horizontal = 1;
place = (615,117);
type = Stem;
},
{
place = (101,153);
type = Stem;
}
);
shapes = (
{
closed = 1;
nodes = (
(468,87,ls),
(478,91,o),
(480,95,o),
(480,105,cs),
(480,135,o),
(411,179,o),
(372,179,cs),
(321,179,o),
(251,141,o),
(183,89,c),
(224,55,l),
(227,256,o),
(238,456,o),
(262,653,c),
(110,660,l),
(88,486,o),
(86,313,o),
(74,139,cs),
(71,92,o),
(87,51,o),
(126,34,c),
(145,0,o),
(191,-14,o),
(228,-14,c)
);
},
{
closed = 1;
nodes = (
(260,310,o),
(362,331,o),
(406,331,cs),
(431,331,o),
(443,335,o),
(443,359,cs),
(443,391,o),
(363,443,o),
(323,443,cs),
(272,443,o),
(213,434,o),
(123,418,cs),
(106,415,o),
(101,407,o),
(101,391,cs),
(101,366,o),
(157,310,o),
(200,310,cs)
);
},
{
closed = 1;
nodes = (
(202,589,o),
(337,615,o),
(441,615,cs),
(452,615,o),
(462,614,o),
(474,614,cs),
(481,614,o),
(484,617,o),
(484,624,cs),
(484,677,o),
(433,732,o),
(318,732,cs),
(264,732,o),
(112,715,o),
(74,715,cs),
(61,715,o),
(55,709,o),
(55,699,cs),
(55,664,o),
(132,589,o),
(162,589,cs)
);
},
{
closed = 1;
nodes = (
(311,762,o),
(446,817,o),
(446,867,cs),
(446,905,o),
(414,953,o),
(381,953,cs),
(372,953,o),
(362,949,o),
(353,940,cs),
(313,899,o),
(248,843,o),
(218,817,cs),
(212,812,o),
(209,805,o),
(209,799,cs),
(209,781,o),
(231,762,o),
(257,762,cs)
);
}
);
};
hints = (
{
horizontal = 1;
place = (-14,21);
target = up;
type = BottomGhost;
},
{
horizontal = 1;
place = (615,117);
type = Stem;
},
{
place = (101,153);
type = Stem;
},
{
horizontal = 1;
place = (762,21);
target = up;
type = BottomGhost;
},
{
horizontal = 1;
place = (933,-20);
target = down;
type = TopGhost;
},
{
place = (182,262);
type = Stem;
}
);
layerId = "053302AA-4A2A-42DC-B919-9CC4D126D2B5";
shapes = (
{
ref = E;
},
{
pos = (324,0);
ref = acutecomb.case;
}
);
width = 496;
}
);
note = Eacute;
unicode = 201;
},
{
color = 4;
glyphname = Ebreve;
kernLeft = B;
kernRight = E;
lastChange = "2023-11-24 14:34:08 +0000";
layers = (
{
background = {
anchors = (
{
name = bottom;
pos = (261,-35);
},
{
name = ogonek;
pos = (343,60);
},
{
name = top.case;
pos = (291,941);
}
);
hints = (
{
horizontal = 1;
place = (-14,21);
target = up;
type = BottomGhost;
},
{
horizontal = 1;
place = (615,117);
type = Stem;
},
{
place = (101,153);
type = Stem;
},
{
horizontal = 1;
place = (757,199);
type = Stem;
},
{
horizontal = 1;
place = (757,120);
type = Stem;
},
{
horizontal = 1;
place = (757,179);
type = Stem;
}
);
shapes = (
{
closed = 1;
nodes = (
(468,87,ls),
(478,91,o),
(480,95,o),
(480,105,cs),
(480,135,o),
(411,179,o),
(372,179,cs),
(321,179,o),
(251,141,o),
(183,89,c),
(224,55,l),
(227,256,o),
(238,456,o),
(262,653,c),
(110,660,l),
(88,486,o),
(86,313,o),
(74,139,cs),
(71,92,o),
(87,51,o),
(126,34,c),
(145,0,o),
(191,-14,o),
(228,-14,c)
);
},
{
closed = 1;
nodes = (
(260,310,o),
(362,331,o),
(406,331,cs),
(431,331,o),
(443,335,o),
(443,359,cs),
(443,391,o),
(363,443,o),
(323,443,cs),
(272,443,o),
(213,434,o),
(123,418,cs),
(106,415,o),
(101,407,o),
(101,391,cs),
(101,366,o),
(157,310,o),
(200,310,cs)
);
},
{
closed = 1;
nodes = (
(202,589,o),
(337,615,o),
(441,615,cs),
(452,615,o),
(462,614,o),
(474,614,cs),
(481,614,o),
(484,617,o),
(484,624,cs),
(484,677,o),
(433,732,o),
(318,732,cs),
(264,732,o),
(112,715,o),
(74,715,cs),
(61,715,o),
(55,709,o),
(55,699,cs),
(55,664,o),
(132,589,o),
(162,589,cs)
);
},
{
closed = 1;
nodes = (
(335,758,o),
(425,810,o),
(445,915,cs),
(449,934,o),
(434,942,o),
(415,942,cs),
(392,942,o),
(364,930,o),
(354,910,cs),
(338,877,o),
(312,860,o),
(288,860,cs),
(255,860,o),
(226,891,o),
(231,953,cs),
(232,968,o),
(214,977,o),
(191,977,cs),
(156,977,o),
(109,954,o),
(109,895,cs),
(109,803,o),
(178,758,o),
(254,758,cs)
);
}
);
};
hints = (
{
horizontal = 1;
place = (-14,21);
target = up;
type = BottomGhost;
},
{
horizontal = 1;
place = (615,117);
type = Stem;
},
{
place = (101,153);
type = Stem;
},
{
horizontal = 1;
place = (762,199);
type = Stem;
},
{
horizontal = 1;
place = (762,120);
type = Stem;
},
{
horizontal = 1;
place = (762,179);
type = Stem;
}
);
layerId = "053302AA-4A2A-42DC-B919-9CC4D126D2B5";
shapes = (
{
ref = E;
},
{
pos = (278,0);
ref = brevecomb.case;
}
);
width = 496;
}
);
note = Ebreve;
unicode = 276;
},
{
color = 4;
glyphname = Ecaron;
kernLeft = B;
kernRight = E;
lastChange = "2023-11-24 14:34:08 +0000";
layers = (
{
background = {
anchors = (
{
name = bottom;
pos = (261,-35);
},
{
name = ogonek;
pos = (343,60);
},
{
name = top.case;
pos = (259,740);
}
);
hints = (
{
horizontal = 1;
place = (-14,21);
target = up;
type = BottomGhost;
},
{
horizontal = 1;
place = (615,117);
type = Stem;
},
{
place = (101,153);
type = Stem;
}
);
shapes = (
{
closed = 1;
nodes = (
(468,87,ls),
(478,91,o),
(480,95,o),
(480,105,cs),
(480,135,o),
(411,179,o),
(372,179,cs),
(321,179,o),
(251,141,o),
(183,89,c),
(224,55,l),
(227,256,o),
(238,456,o),
(262,653,c),
(110,660,l),
(88,486,o),
(86,313,o),
(74,139,cs),
(71,92,o),
(87,51,o),
(126,34,c),
(145,0,o),
(191,-14,o),
(228,-14,c)
);
},
{
closed = 1;
nodes = (
(260,310,o),
(362,331,o),
(406,331,cs),
(431,331,o),
(443,335,o),
(443,359,cs),
(443,391,o),
(363,443,o),
(323,443,cs),
(272,443,o),
(213,434,o),
(123,418,cs),
(106,415,o),
(101,407,o),
(101,391,cs),
(101,366,o),
(157,310,o),
(200,310,cs)
);
},
{
closed = 1;
nodes = (
(202,589,o),
(337,615,o),
(441,615,cs),
(452,615,o),
(462,614,o),
(474,614,cs),
(481,614,o),
(484,617,o),
(484,624,cs),
(484,677,o),
(433,732,o),
(318,732,cs),
(264,732,o),
(112,715,o),
(74,715,cs),
(61,715,o),
(55,709,o),
(55,699,cs),
(55,664,o),
(132,589,o),
(162,589,cs)
);
},
{
closed = 1;
nodes = (
(265,756,o),
(272,759,o),
(278,764,cs),
(311,794,o),
(377,865,o),
(412,894,cs),
(418,899,o),
(422,908,o),
(422,918,cs),
(422,937,o),
(409,958,o),
(385,958,cs),
(341,958,o),
(318,924,o),
(274,872,c),
(243,915,o),
(208,949,o),
(173,949,cs),
(145,949,o),
(114,929,o),
(114,908,cs),
(114,902,o),
(117,896,o),
(123,890,cs),
(158,857,o),
(210,791,o),
(237,765,cs),
(243,759,o),
(251,756,o),
(258,756,cs)
);
}
);
};
hints = (
{
horizontal = 1;
place = (-14,21);
target = up;
type = BottomGhost;
},
{
horizontal = 1;
place = (615,117);
type = Stem;
},
{
place = (101,153);
type = Stem;
},
{
horizontal = 1;
place = (755,21);
target = up;
type = BottomGhost;
},
{
horizontal = 1;
place = (961,-20);
target = down;
type = TopGhost;
}
);
layerId = "053302AA-4A2A-42DC-B919-9CC4D126D2B5";
shapes = (
{
ref = E;
},
{
pos = (272,0);
ref = caroncomb.case;
}
);
width = 496;
}
);
note = Ecaron;
unicode = 282;
},
{
color = 4;
glyphname = Ecircumflex;
kernLeft = B;
kernRight = E;
lastChange = "2023-11-24 14:34:08 +0000";
layers = (
{
background = {
anchors = (
{
name = bottom;
pos = (261,-35);
},
{
name = ogonek;
pos = (343,60);
},
{
name = top.case;
pos = (264,984);
}
);
hints = (
{
horizontal = 1;
place = (-14,21);
target = up;
type = BottomGhost;
},
{
horizontal = 1;
place = (615,117);
type = Stem;
},
{
place = (101,153);
type = Stem;
},
{
horizontal = 1;
place = (758,21);
target = up;
type = BottomGhost;
},
{
horizontal = 1;
place = (974,-20);
target = down;
type = TopGhost;
}
);
shapes = (
{
closed = 1;
nodes = (
(468,87,ls),
(478,91,o),
(480,95,o),
(480,105,cs),
(480,135,o),
(411,179,o),
(372,179,cs),
(321,179,o),
(251,141,o),
(183,89,c),
(224,55,l),
(227,256,o),
(238,456,o),
(262,653,c),
(110,660,l),
(88,486,o),
(86,313,o),
(74,139,cs),
(71,92,o),
(87,51,o),
(126,34,c),
(145,0,o),
(191,-14,o),
(228,-14,c)
);
},
{
closed = 1;
nodes = (
(260,310,o),
(362,331,o),
(406,331,cs),
(431,331,o),
(443,335,o),
(443,359,cs),
(443,391,o),
(363,443,o),
(323,443,cs),
(272,443,o),
(213,434,o),
(123,418,cs),
(106,415,o),
(101,407,o),
(101,391,cs),
(101,366,o),
(157,310,o),
(200,310,cs)
);
},
{
closed = 1;
nodes = (
(202,589,o),
(337,615,o),
(441,615,cs),
(452,615,o),
(462,614,o),
(474,614,cs),
(481,614,o),
(484,617,o),
(484,624,cs),
(484,677,o),
(433,732,o),
(318,732,cs),
(264,732,o),
(112,715,o),
(74,715,cs),
(61,715,o),
(55,709,o),
(55,699,cs),
(55,664,o),
(132,589,o),
(162,589,cs)
);
},
{
closed = 1;
nodes = (
(181,752,o),
(208,787,o),
(258,838,c),
(292,797,o),
(331,762,o),
(370,762,cs),
(402,762,o),
(438,786,o),
(438,810,cs),
(438,817,o),
(436,824,o),
(429,830,cs),
(389,867,o),
(330,941,o),
(300,971,cs),
(293,978,o),
(284,982,o),
(276,982,cs),
(268,982,o),
(260,978,o),
(253,972,cs),
(216,938,o),
(141,858,o),
(100,825,cs),
(93,819,o),
(90,809,o),
(90,799,cs),
(90,777,o),
(104,752,o),
(131,752,cs)
);
}
);
};
hints = (
{
horizontal = 1;
place = (-14,21);
target = up;
type = BottomGhost;
},
{
horizontal = 1;
place = (615,117);
type = Stem;
},
{
place = (101,153);
type = Stem;
},
{
horizontal = 1;
place = (754,21);
target = up;
type = BottomGhost;
},
{
horizontal = 1;
place = (960,-20);
target = down;
type = TopGhost;
}
);
layerId = "053302AA-4A2A-42DC-B919-9CC4D126D2B5";
shapes = (
{
ref = E;
},
{
pos = (264,0);
ref = circumflexcomb.case;
}
);
width = 496;
}
);
note = Ecircumflex;
unicode = 202;
},
{
color = 4;
glyphname = Ecircumflexacute;
lastChange = "2023-11-24 14:34:08 +0000";
layers = (
{
background = {
anchors = (
{
name = bottom;
pos = (261,-35);
},
{
name = ogonek;
pos = (343,60);
},
{
name = top.case;
pos = (264,984);
}
);
hints = (
{
horizontal = 1;
place = (-14,21);
target = up;
type = BottomGhost;
},
{
horizontal = 1;
place = (615,117);
type = Stem;
},
{
place = (101,153);
type = Stem;
},
{
horizontal = 1;
place = (758,21);
target = up;
type = BottomGhost;
},
{
horizontal = 1;
place = (974,-20);
target = down;
type = TopGhost;
}
);
shapes = (
{
closed = 1;
nodes = (
(468,87,ls),
(478,91,o),
(480,95,o),
(480,105,cs),
(480,135,o),
(411,179,o),
(372,179,cs),
(321,179,o),
(251,141,o),
(183,89,c),
(224,55,l),
(227,256,o),
(238,456,o),
(262,653,c),
(110,660,l),
(88,486,o),
(86,313,o),
(74,139,cs),
(71,92,o),
(87,51,o),
(126,34,c),
(145,0,o),
(191,-14,o),
(228,-14,c)
);
},
{
closed = 1;
nodes = (
(260,310,o),
(362,331,o),
(406,331,cs),
(431,331,o),
(443,335,o),
(443,359,cs),
(443,391,o),
(363,443,o),
(323,443,cs),
(272,443,o),
(213,434,o),
(123,418,cs),
(106,415,o),
(101,407,o),
(101,391,cs),
(101,366,o),
(157,310,o),
(200,310,cs)
);
},
{
closed = 1;
nodes = (
(202,589,o),
(337,615,o),
(441,615,cs),
(452,615,o),
(462,614,o),
(474,614,cs),
(481,614,o),
(484,617,o),
(484,624,cs),
(484,677,o),
(433,732,o),
(318,732,cs),
(264,732,o),
(112,715,o),
(74,715,cs),
(61,715,o),
(55,709,o),
(55,699,cs),
(55,664,o),
(132,589,o),
(162,589,cs)
);
},
{
closed = 1;
nodes = (
(181,752,o),
(208,787,o),
(258,838,c),
(292,797,o),
(331,762,o),
(370,762,cs),
(402,762,o),
(438,786,o),
(438,810,cs),
(438,817,o),
(436,824,o),
(429,830,cs),
(389,867,o),
(330,941,o),
(300,971,cs),
(293,978,o),
(284,982,o),
(276,982,cs),
(268,982,o),
(260,978,o),
(253,972,cs),
(216,938,o),
(141,858,o),
(100,825,cs),
(93,819,o),
(90,809,o),
(90,799,cs),
(90,777,o),
(104,752,o),
(131,752,cs)
);
},
{
closed = 1;
nodes = (
(316,1006,o),
(451,1061,o),
(451,1111,cs),
(451,1149,o),
(419,1197,o),
(386,1197,cs),
(377,1197,o),
(367,1193,o),
(358,1184,cs),
(318,1143,o),
(253,1087,o),
(223,1061,cs),
(217,1056,o),
(214,1049,o),
(214,1043,cs),
(214,1025,o),
(236,1006,o),
(262,1006,cs)
);
}
);
};
layerId = "053302AA-4A2A-42DC-B919-9CC4D126D2B5";
shapes = (
{
ref = E;
},
{
pos = (264,0);
ref = circumflexcomb.case;
},
{
pos = (329,244);
ref = acutecomb.case;
}
);
width = 496;
}
);
unicode = 7870;
},
{
color = 4;
glyphname = Ecircumflexdotbelow;
lastChange = "2023-11-24 14:34:08 +0000";
layers = (
{
background = {
anchors = (
{
name = bottom;
pos = (261,-35);
},
{
name = ogonek;
pos = (343,60);
},
{
name = top.case;
pos = (264,984);
}
);
hints = (
{
horizontal = 1;
place = (-14,21);
target = up;
type = BottomGhost;
},
{
horizontal = 1;
place = (615,117);
type = Stem;
},
{
place = (101,153);
type = Stem;
},
{
horizontal = 1;
place = (-208,165);
type = Stem;
},
{
place = (177,146);
type = Stem;
},
{
place = (177,168);
type = Stem;
},
{
horizontal = 1;
place = (758,21);
target = up;
type = BottomGhost;
},
{
horizontal = 1;
place = (974,-20);
target = down;
type = TopGhost;
}
);
shapes = (
{
closed = 1;
nodes = (
(468,87,ls),
(478,91,o),
(480,95,o),
(480,105,cs),
(480,135,o),
(411,179,o),
(372,179,cs),
(321,179,o),
(251,141,o),
(183,89,c),
(224,55,l),
(227,256,o),
(238,456,o),
(262,653,c),
(110,660,l),
(88,486,o),
(86,313,o),
(74,139,cs),
(71,92,o),
(87,51,o),
(126,34,c),
(145,0,o),
(191,-14,o),
(228,-14,c)
);
},
{
closed = 1;
nodes = (
(260,310,o),
(362,331,o),
(406,331,cs),
(431,331,o),
(443,335,o),
(443,359,cs),
(443,391,o),
(363,443,o),
(323,443,cs),
(272,443,o),
(213,434,o),
(123,418,cs),
(106,415,o),
(101,407,o),
(101,391,cs),
(101,366,o),
(157,310,o),
(200,310,cs)
);
},
{
closed = 1;
nodes = (
(202,589,o),
(337,615,o),
(441,615,cs),
(452,615,o),
(462,614,o),
(474,614,cs),
(481,614,o),
(484,617,o),
(484,624,cs),
(484,677,o),
(433,732,o),
(318,732,cs),
(264,732,o),
(112,715,o),
(74,715,cs),
(61,715,o),
(55,709,o),
(55,699,cs),
(55,664,o),
(132,589,o),
(162,589,cs)
);
},
{
closed = 1;
nodes = (
(304,-208,o),
(311,-207,o),
(323,-204,c),
(333,-132,o),
(345,-96,o),
(345,-65,cs),
(345,-57,o),
(340,-55,o),
(328,-52,cs),
(305,-46,o),
(285,-43,o),
(266,-43,cs),
(249,-43,o),
(223,-44,o),
(207,-47,cs),
(178,-54,o),
(178,-91,o),
(176,-116,cs),
(171,-191,o),
(226,-208,o),
(293,-208,cs)
);
},
{
closed = 1;
nodes = (
(181,752,o),
(208,787,o),
(258,838,c),
(292,797,o),
(331,762,o),
(370,762,cs),
(402,762,o),
(438,786,o),
(438,810,cs),
(438,817,o),
(436,824,o),
(429,830,cs),
(389,867,o),
(330,941,o),
(300,971,cs),
(293,978,o),
(284,982,o),
(276,982,cs),
(268,982,o),
(260,978,o),
(253,972,cs),
(216,938,o),
(141,858,o),
(100,825,cs),
(93,819,o),
(90,809,o),
(90,799,cs),
(90,777,o),
(104,752,o),
(131,752,cs)
);
}
);
};
layerId = "053302AA-4A2A-42DC-B919-9CC4D126D2B5";
shapes = (
{
ref = E;
},
{
pos = (261,0);
ref = dotbelowcomb;
},
{
pos = (264,0);
ref = circumflexcomb.case;
}
);
width = 496;
}
);
unicode = 7878;
},
{
color = 4;
glyphname = Ecircumflexgrave;
lastChange = "2023-11-24 14:34:08 +0000";
layers = (
{
background = {
anchors = (
{
name = bottom;
pos = (261,-35);
},
{
name = ogonek;
pos = (343,60);
},
{
name = top.case;
pos = (264,984);
}
);
hints = (
{
horizontal = 1;
place = (-14,21);
target = up;
type = BottomGhost;
},
{
horizontal = 1;
place = (615,117);
type = Stem;
},
{
place = (101,153);
type = Stem;
},
{
horizontal = 1;
place = (758,21);
target = up;
type = BottomGhost;
},
{
horizontal = 1;
place = (974,-20);
target = down;
type = TopGhost;
}
);
shapes = (
{
closed = 1;
nodes = (
(468,87,ls),
(478,91,o),
(480,95,o),
(480,105,cs),
(480,135,o),
(411,179,o),
(372,179,cs),
(321,179,o),
(251,141,o),
(183,89,c),
(224,55,l),
(227,256,o),
(238,456,o),
(262,653,c),
(110,660,l),
(88,486,o),
(86,313,o),
(74,139,cs),
(71,92,o),
(87,51,o),
(126,34,c),
(145,0,o),
(191,-14,o),
(228,-14,c)
);
},
{
closed = 1;
nodes = (
(260,310,o),
(362,331,o),
(406,331,cs),
(431,331,o),
(443,335,o),
(443,359,cs),
(443,391,o),
(363,443,o),
(323,443,cs),
(272,443,o),
(213,434,o),
(123,418,cs),
(106,415,o),
(101,407,o),
(101,391,cs),
(101,366,o),
(157,310,o),
(200,310,cs)
);
},
{
closed = 1;
nodes = (
(202,589,o),
(337,615,o),
(441,615,cs),
(452,615,o),
(462,614,o),
(474,614,cs),
(481,614,o),
(484,617,o),
(484,624,cs),
(484,677,o),
(433,732,o),
(318,732,cs),
(264,732,o),
(112,715,o),
(74,715,cs),
(61,715,o),
(55,709,o),
(55,699,cs),
(55,664,o),
(132,589,o),
(162,589,cs)
);
},
{
closed = 1;
nodes = (
(181,752,o),
(208,787,o),
(258,838,c),
(292,797,o),
(331,762,o),
(370,762,cs),
(402,762,o),
(438,786,o),
(438,810,cs),
(438,817,o),
(436,824,o),
(429,830,cs),
(389,867,o),
(330,941,o),
(300,971,cs),
(293,978,o),
(284,982,o),
(276,982,cs),
(268,982,o),
(260,978,o),
(253,972,cs),
(216,938,o),
(141,858,o),
(100,825,cs),
(93,819,o),
(90,809,o),
(90,799,cs),
(90,777,o),
(104,752,o),
(131,752,cs)
);
},
{
closed = 1;
nodes = (
(344,1005,o),
(362,1021,o),
(362,1038,cs),
(362,1044,o),
(359,1051,o),
(352,1056,cs),
(316,1085,o),
(253,1150,o),
(215,1185,cs),
(207,1193,o),
(197,1196,o),
(186,1196,cs),
(150,1196,o),
(108,1157,o),
(108,1117,cs),
(108,1083,o),
(234,1005,o),
(314,1005,cs)
);
}
);
};
layerId = "053302AA-4A2A-42DC-B919-9CC4D126D2B5";
shapes = (
{
ref = E;
},
{
pos = (264,0);
ref = circumflexcomb.case;
},
{
pos = (235,244);
ref = gravecomb.case;
}
);
width = 496;
}
);
unicode = 7872;
},
{
color = 4;
glyphname = Ecircumflexhookabove;
lastChange = "2023-11-24 14:34:08 +0000";
layers = (
{
background = {
anchors = (
{
name = bottom;
pos = (261,-35);
},
{
name = ogonek;
pos = (343,60);
},
{
name = top.case;
pos = (264,984);
}
);
hints = (
{
horizontal = 1;
place = (-14,21);
target = up;
type = BottomGhost;
},
{
horizontal = 1;
place = (615,117);
type = Stem;
},
{
place = (101,153);
type = Stem;
},
{
horizontal = 1;
place = (758,21);
target = up;
type = BottomGhost;
},
{
horizontal = 1;
place = (974,-20);
target = down;
type = TopGhost;
}
);
shapes = (
{
closed = 1;
nodes = (
(468,87,ls),
(478,91,o),
(480,95,o),
(480,105,cs),
(480,135,o),
(411,179,o),
(372,179,cs),
(321,179,o),
(251,141,o),
(183,89,c),
(224,55,l),
(227,256,o),
(238,456,o),
(262,653,c),
(110,660,l),
(88,486,o),
(86,313,o),
(74,139,cs),
(71,92,o),
(87,51,o),
(126,34,c),
(145,0,o),
(191,-14,o),
(228,-14,c)
);
},
{
closed = 1;
nodes = (
(260,310,o),
(362,331,o),
(406,331,cs),
(431,331,o),
(443,335,o),
(443,359,cs),
(443,391,o),
(363,443,o),
(323,443,cs),
(272,443,o),
(213,434,o),
(123,418,cs),
(106,415,o),
(101,407,o),
(101,391,cs),
(101,366,o),
(157,310,o),
(200,310,cs)
);
},
{
closed = 1;
nodes = (
(202,589,o),
(337,615,o),
(441,615,cs),
(452,615,o),
(462,614,o),
(474,614,cs),
(481,614,o),
(484,617,o),
(484,624,cs),
(484,677,o),
(433,732,o),
(318,732,cs),
(264,732,o),
(112,715,o),
(74,715,cs),
(61,715,o),
(55,709,o),
(55,699,cs),
(55,664,o),
(132,589,o),
(162,589,cs)
);
},
{
closed = 1;
nodes = (
(181,752,o),
(208,787,o),
(258,838,c),
(292,797,o),
(331,762,o),
(370,762,cs),
(402,762,o),
(438,786,o),
(438,810,cs),
(438,817,o),
(436,824,o),
(429,830,cs),
(389,867,o),
(330,941,o),
(300,971,cs),
(293,978,o),
(284,982,o),
(276,982,cs),
(268,982,o),
(260,978,o),
(253,972,cs),
(216,938,o),
(141,858,o),
(100,825,cs),
(93,819,o),
(90,809,o),
(90,799,cs),
(90,777,o),
(104,752,o),
(131,752,cs)
);
},
{
closed = 1;
nodes = (
(446,871,o),
(455,874,o),
(465,879,cs),
(506,901,o),
(546,956,o),
(546,996,cs),
(546,1055,o),
(490,1101,o),
(364,1101,cs),
(353,1101,o),
(342,1105,o),
(333,1105,cs),
(323,1105,o),
(317,1101,o),
(317,1082,cs),
(317,1048,o),
(321,984,o),
(360,984,cs),
(370,984,o),
(383,985,o),
(395,985,cs),
(414,985,o),
(431,983,o),
(431,971,cs),
(431,960,o),
(418,945,o),
(408,931,cs),
(403,924,o),
(401,917,o),
(401,909,cs),
(401,890,o),
(415,871,o),
(438,871,cs)
);
}
);
};
layerId = "053302AA-4A2A-42DC-B919-9CC4D126D2B5";
shapes = (
{
ref = E;
},
{
pos = (264,0);
ref = circumflexcomb.case;
},
{
alignment = -1;
pos = (433,100);
ref = hookabovecomb.case;
}
);
width = 496;
}
);
unicode = 7874;
},
{
color = 4;
glyphname = Ecircumflextilde;
lastChange = "2023-11-24 14:35:16 +0000";
layers = (
{
background = {
anchors = (
{
name = bottom;
pos = (261,-35);
},
{
name = ogonek;
pos = (343,60);
},
{
name = top.case;
pos = (290,1153);
}
);
hints = (
{
horizontal = 1;
place = (-14,21);
target = up;
type = BottomGhost;
},
{
horizontal = 1;
place = (615,117);
type = Stem;
},
{
place = (101,153);
type = Stem;
},
{
horizontal = 1;
place = (758,21);
target = up;
type = BottomGhost;
},
{
horizontal = 1;
place = (974,-20);
target = down;
type = TopGhost;
},
{
horizontal = 1;
place = (1006,164);
type = Stem;
},
{
horizontal = 1;
place = (1175,-20);
target = down;
type = TopGhost;
},
{
horizontal = 1;
place = (992,178);
type = Stem;
},
{
horizontal = 1;
place = (1023,164);
type = Stem;
},
{
horizontal = 1;
place = (1192,-20);
target = down;
type = TopGhost;
},
{
horizontal = 1;
place = (1009,178);
type = Stem;
}
);
shapes = (
{
closed = 1;
nodes = (
(468,87,ls),
(478,91,o),
(480,95,o),
(480,105,cs),
(480,135,o),
(411,179,o),
(372,179,cs),
(321,179,o),
(251,141,o),
(183,89,c),
(224,55,l),
(227,256,o),
(238,456,o),
(262,653,c),
(110,660,l),
(88,486,o),
(86,313,o),
(74,139,cs),
(71,92,o),
(87,51,o),
(126,34,c),
(145,0,o),
(191,-14,o),
(228,-14,c)
);
},
{
closed = 1;
nodes = (
(260,310,o),
(362,331,o),
(406,331,cs),
(431,331,o),
(443,335,o),
(443,359,cs),
(443,391,o),
(363,443,o),
(323,443,cs),
(272,443,o),
(213,434,o),
(123,418,cs),
(106,415,o),
(101,407,o),
(101,391,cs),
(101,366,o),
(157,310,o),
(200,310,cs)
);
},
{
closed = 1;
nodes = (
(202,589,o),
(337,615,o),
(441,615,cs),
(452,615,o),
(462,614,o),
(474,614,cs),
(481,614,o),
(484,617,o),
(484,624,cs),
(484,677,o),
(433,732,o),
(318,732,cs),
(264,732,o),
(112,715,o),
(74,715,cs),
(61,715,o),
(55,709,o),
(55,699,cs),
(55,664,o),
(132,589,o),
(162,589,cs)
);
},
{
closed = 1;
nodes = (
(181,752,o),
(208,787,o),
(258,838,c),
(292,797,o),
(331,762,o),
(370,762,cs),
(402,762,o),
(438,786,o),
(438,810,cs),
(438,817,o),
(436,824,o),
(429,830,cs),
(389,867,o),
(330,941,o),
(300,971,cs),
(293,978,o),
(284,982,o),
(276,982,cs),
(268,982,o),
(260,978,o),
(253,972,cs),
(216,938,o),
(141,858,o),
(100,825,cs),
(93,819,o),
(90,809,o),
(90,799,cs),
(90,777,o),
(104,752,o),
(131,752,cs)
);
},
{
closed = 1;
nodes = (
(381,1000,o),
(429,1056,o),
(429,1098,cs),
(429,1140,o),
(416,1168,o),
(401,1170,cs),
(393,1170,o),
(384,1167,o),
(373,1153,cs),
(362,1138,o),
(350,1131,o),
(338,1131,cs),
(301,1131,o),
(282,1180,o),
(221,1180,cs),
(175,1180,o),
(127,1124,o),
(127,1082,cs),
(127,1040,o),
(140,1012,o),
(155,1010,cs),
(163,1010,o),
(172,1013,o),
(184,1027,cs),
(194,1041,o),
(206,1048,o),
(218,1048,cs),
(253,1048,o),
(280,1000,o),
(335,1000,cs)
);
}
);
};
layerId = "053302AA-4A2A-42DC-B919-9CC4D126D2B5";
shapes = (
{
ref = E;
},
{
pos = (264,0);
ref = circumflexcomb.case;
},
{
pos = (264,261);
ref = tildecomb.case;
}
);
width = 496;
}
);
unicode = 7876;
},
{
color = 4;
glyphname = Edblgrave;
lastChange = "2023-11-24 14:34:08 +0000";
layers = (
{
background = {
anchors = (
{
name = bottom;
pos = (261,-35);
},
{
name = ogonek;
pos = (343,60);
},
{
name = top.case;
pos = (259,740);
}
);
hints = (
{
horizontal = 1;
place = (-14,21);
target = up;
type = BottomGhost;
},
{
horizontal = 1;
place = (615,117);
type = Stem;
},
{
place = (101,153);
type = Stem;
},
{
horizontal = 1;
origin = (0,23);
target = up;
type = BottomGhost;
},
{
horizontal = 1;
origin = (0,23);
target = down;
type = TopGhost;
},
{
origin = (0,23);
place = (228,232);
type = Stem;
},
{
origin = (0,23);
place = (228,232);
type = Stem;
},
{
horizontal = 1;
origin = (0,23);
target = up;
type = BottomGhost;
},
{
horizontal = 1;
origin = (0,23);
target = down;
type = TopGhost;
},
{
origin = (0,23);
place = (228,232);
type = Stem;
},
{
horizontal = 1;
origin = (0,23);
target = up;
type = BottomGhost;
},
{
horizontal = 1;
origin = (0,23);
target = down;
type = TopGhost;
},
{
origin = (0,23);
place = (228,232);
type = Stem;
}
);
shapes = (
{
closed = 1;
nodes = (
(468,87,ls),
(478,91,o),
(480,95,o),
(480,105,cs),
(480,135,o),
(411,179,o),
(372,179,cs),
(321,179,o),
(251,141,o),
(183,89,c),
(224,55,l),
(227,256,o),
(238,456,o),
(262,653,c),
(110,660,l),
(88,486,o),
(86,313,o),
(74,139,cs),
(71,92,o),
(87,51,o),
(126,34,c),
(145,0,o),
(191,-14,o),
(228,-14,c)
);
},
{
closed = 1;
nodes = (
(260,310,o),
(362,331,o),
(406,331,cs),
(431,331,o),
(443,335,o),
(443,359,cs),
(443,391,o),
(363,443,o),
(323,443,cs),
(272,443,o),
(213,434,o),
(123,418,cs),
(106,415,o),
(101,407,o),
(101,391,cs),
(101,366,o),
(157,310,o),
(200,310,cs)
);
},
{
closed = 1;
nodes = (
(202,589,o),
(337,615,o),
(441,615,cs),
(452,615,o),
(462,614,o),
(474,614,cs),
(481,614,o),
(484,617,o),
(484,624,cs),
(484,677,o),
(433,732,o),
(318,732,cs),
(264,732,o),
(112,715,o),
(74,715,cs),
(61,715,o),
(55,709,o),
(55,699,cs),
(55,664,o),
(132,589,o),
(162,589,cs)
);
},
{
closed = 1;
nodes = (
(363,761,o),
(386,782,o),
(386,801,cs),
(386,808,o),
(383,814,o),
(376,820,cs),
(344,848,o),
(274,908,o),
(232,952,cs),
(222,962,o),
(212,966,o),
(202,966,cs),
(166,966,o),
(132,914,o),
(132,874,cs),
(132,820,o),
(277,761,o),
(334,761,cs)
);
},
{
closed = 1;
nodes = (
(128,761,o),
(151,782,o),
(151,801,cs),
(151,808,o),
(148,814,o),
(141,820,cs),
(109,848,o),
(39,908,o),
(-3,952,cs),
(-13,962,o),
(-23,966,o),
(-33,966,cs),
(-69,966,o),
(-103,914,o),
(-103,874,cs),
(-103,820,o),
(42,761,o),
(99,761,cs)
);
}
);
};
layerId = "053302AA-4A2A-42DC-B919-9CC4D126D2B5";
shapes = (
{
ref = E;
},
{
pos = (201,0);
ref = dblgravecomb.case;
}
);
width = 496;
}
);
unicode = 516;
},
{
color = 4;
glyphname = Edieresis;
kernLeft = B;
kernRight = E;
lastChange = "2023-11-24 14:34:08 +0000";
layers = (
{
background = {
anchors = (
{
name = bottom;
pos = (261,-35);
},
{
name = ogonek;
pos = (343,60);
},
{
name = top.case;
pos = (259,945);
}
);
hints = (
{
horizontal = 1;
place = (-14,21);
target = up;
type = BottomGhost;
},
{
horizontal = 1;
place = (615,117);
type = Stem;
},
{
place = (101,153);
type = Stem;
},
{
horizontal = 1;
place = (786,165);
type = Stem;
},
{
place = (78,146);
type = Stem;
},
{
place = (271,146);
type = Stem;
},
{
place = (78,168);
type = Stem;
},
{
place = (271,168);
type = Stem;
}
);
shapes = (
{
closed = 1;
nodes = (
(468,87,ls),
(478,91,o),
(480,95,o),
(480,105,cs),
(480,135,o),
(411,179,o),
(372,179,cs),
(321,179,o),
(251,141,o),
(183,89,c),
(224,55,l),
(227,256,o),
(238,456,o),
(262,653,c),
(110,660,l),
(88,486,o),
(86,313,o),
(74,139,cs),
(71,92,o),
(87,51,o),
(126,34,c),
(145,0,o),
(191,-14,o),
(228,-14,c)
);
},
{
closed = 1;
nodes = (
(260,310,o),
(362,331,o),
(406,331,cs),
(431,331,o),
(443,335,o),
(443,359,cs),
(443,391,o),
(363,443,o),
(323,443,cs),
(272,443,o),
(213,434,o),
(123,418,cs),
(106,415,o),
(101,407,o),
(101,391,cs),
(101,366,o),
(157,310,o),
(200,310,cs)
);
},
{
closed = 1;
nodes = (
(202,589,o),
(337,615,o),
(441,615,cs),
(452,615,o),
(462,614,o),
(474,614,cs),
(481,614,o),
(484,617,o),
(484,624,cs),
(484,677,o),
(433,732,o),
(318,732,cs),
(264,732,o),
(112,715,o),
(74,715,cs),
(61,715,o),
(55,709,o),
(55,699,cs),
(55,664,o),
(132,589,o),
(162,589,cs)
);
},
{
closed = 1;
nodes = (
(398,786,o),
(405,787,o),
(417,790,c),
(417,862,o),
(439,898,o),
(439,929,cs),
(439,937,o),
(434,939,o),
(422,942,cs),
(399,948,o),
(379,951,o),
(360,951,cs),
(343,951,o),
(317,950,o),
(301,947,cs),
(272,940,o),
(271,903,o),
(271,878,cs),
(271,803,o),
(320,786,o),
(387,786,cs)
);
},
{
closed = 1;
nodes = (
(205,786,o),
(212,787,o),
(224,790,c),
(224,862,o),
(246,898,o),
(246,929,cs),
(246,937,o),
(241,939,o),
(229,942,cs),
(206,948,o),
(186,951,o),
(167,951,cs),
(150,951,o),
(124,950,o),
(108,947,cs),
(79,940,o),
(78,903,o),
(78,878,cs),
(78,803,o),
(127,786,o),
(194,786,cs)
);
}
);
};
hints = (
{
horizontal = 1;
place = (-14,21);
target = up;
type = BottomGhost;
},
{
horizontal = 1;
place = (615,117);
type = Stem;
},
{
place = (101,153);
type = Stem;
},
{
horizontal = 1;
place = (783,165);
type = Stem;
},
{
place = (97,146);
type = Stem;
},
{
place = (290,146);
type = Stem;
},
{
place = (97,168);
type = Stem;
},
{
place = (290,168);
type = Stem;
}
);
layerId = "053302AA-4A2A-42DC-B919-9CC4D126D2B5";
shapes = (
{
ref = E;
},
{
pos = (259,0);
ref = dieresiscomb.case;
}
);
width = 496;
}
);
note = Edieresis;
unicode = 203;
},
{
color = 4;
glyphname = Edotaccent;
kernLeft = B;
kernRight = E;
lastChange = "2023-11-24 14:34:08 +0000";
layers = (
{
background = {
anchors = (
{
name = bottom;
pos = (261,-35);
},
{
name = ogonek;
pos = (343,60);
},
{
name = top.case;
pos = (259,945);
}
);
hints = (
{
horizontal = 1;
place = (-14,21);
target = up;
type = BottomGhost;
},
{
horizontal = 1;
place = (615,117);
type = Stem;
},
{
place = (101,153);
type = Stem;
},
{
horizontal = 1;
place = (783,165);
type = Stem;
},
{
place = (175,146);
type = Stem;
},
{
place = (175,168);
type = Stem;
}
);
shapes = (
{
closed = 1;
nodes = (
(468,87,ls),
(478,91,o),
(480,95,o),
(480,105,cs),
(480,135,o),
(411,179,o),
(372,179,cs),
(321,179,o),
(251,141,o),
(183,89,c),
(224,55,l),
(227,256,o),
(238,456,o),
(262,653,c),
(110,660,l),
(88,486,o),
(86,313,o),
(74,139,cs),
(71,92,o),
(87,51,o),
(126,34,c),
(145,0,o),
(191,-14,o),
(228,-14,c)
);
},
{
closed = 1;
nodes = (
(260,310,o),
(362,331,o),
(406,331,cs),
(431,331,o),
(443,335,o),
(443,359,cs),
(443,391,o),
(363,443,o),
(323,443,cs),
(272,443,o),
(213,434,o),
(123,418,cs),
(106,415,o),
(101,407,o),
(101,391,cs),
(101,366,o),
(157,310,o),
(200,310,cs)
);
},
{
closed = 1;
nodes = (
(202,589,o),
(337,615,o),
(441,615,cs),
(452,615,o),
(462,614,o),
(474,614,cs),
(481,614,o),
(484,617,o),
(484,624,cs),
(484,677,o),
(433,732,o),
(318,732,cs),
(264,732,o),
(112,715,o),
(74,715,cs),
(61,715,o),
(55,709,o),
(55,699,cs),
(55,664,o),
(132,589,o),
(162,589,cs)
);
},
{
closed = 1;
nodes = (
(302,783,o),
(309,784,o),
(321,787,c),
(331,859,o),
(343,895,o),
(343,926,cs),
(343,934,o),
(338,936,o),
(326,939,cs),
(303,945,o),
(283,948,o),
(264,948,cs),
(247,948,o),
(221,947,o),
(205,944,cs),
(176,937,o),
(176,900,o),
(174,875,cs),
(169,800,o),
(224,783,o),
(291,783,cs)
);
}
);
};
hints = (
{
horizontal = 1;
place = (-14,21);
target = up;
type = BottomGhost;
},
{
horizontal = 1;
place = (615,117);
type = Stem;
},
{
place = (101,153);
type = Stem;
},
{
horizontal = 1;
place = (763,165);
type = Stem;
},
{
place = (187,146);
type = Stem;
},
{
place = (187,168);
type = Stem;
}
);
layerId = "053302AA-4A2A-42DC-B919-9CC4D126D2B5";
shapes = (
{
ref = E;
},
{
pos = (259,0);
ref = dotaccentcomb.case;
}
);
width = 496;
}
);
note = Edotaccent;
unicode = 278;
},
{
color = 4;
glyphname = Edotbelow;
lastChange = "2023-11-24 14:34:08 +0000";
layers = (
{
background = {
anchors = (
{
name = bottom;
pos = (261,-35);
},
{
name = ogonek;
pos = (343,60);
},
{
name = top.case;
pos = (259,740);
}
);
hints = (
{
horizontal = 1;
place = (-14,21);
target = up;
type = BottomGhost;
},
{
horizontal = 1;
place = (615,117);
type = Stem;
},
{
place = (101,153);
type = Stem;
},
{
horizontal = 1;
place = (-208,165);
type = Stem;
},
{
place = (177,146);
type = Stem;
},
{
place = (177,168);
type = Stem;
}
);
shapes = (
{
closed = 1;
nodes = (
(468,87,ls),
(478,91,o),
(480,95,o),
(480,105,cs),
(480,135,o),
(411,179,o),
(372,179,cs),
(321,179,o),
(251,141,o),
(183,89,c),
(224,55,l),
(227,256,o),
(238,456,o),
(262,653,c),
(110,660,l),
(88,486,o),
(86,313,o),
(74,139,cs),
(71,92,o),
(87,51,o),
(126,34,c),
(145,0,o),
(191,-14,o),
(228,-14,c)
);
},
{
closed = 1;
nodes = (
(260,310,o),
(362,331,o),
(406,331,cs),
(431,331,o),
(443,335,o),
(443,359,cs),
(443,391,o),
(363,443,o),
(323,443,cs),
(272,443,o),
(213,434,o),
(123,418,cs),
(106,415,o),
(101,407,o),
(101,391,cs),
(101,366,o),
(157,310,o),
(200,310,cs)
);
},
{
closed = 1;
nodes = (
(202,589,o),
(337,615,o),
(441,615,cs),
(452,615,o),
(462,614,o),
(474,614,cs),
(481,614,o),
(484,617,o),
(484,624,cs),
(484,677,o),
(433,732,o),
(318,732,cs),
(264,732,o),
(112,715,o),
(74,715,cs),
(61,715,o),
(55,709,o),
(55,699,cs),
(55,664,o),
(132,589,o),
(162,589,cs)
);
},
{
closed = 1;
nodes = (
(304,-208,o),
(311,-207,o),
(323,-204,c),
(333,-132,o),
(345,-96,o),
(345,-65,cs),
(345,-57,o),
(340,-55,o),
(328,-52,cs),
(305,-46,o),
(285,-43,o),
(266,-43,cs),
(249,-43,o),
(223,-44,o),
(207,-47,cs),
(178,-54,o),
(178,-91,o),
(176,-116,cs),
(171,-191,o),
(226,-208,o),
(293,-208,cs)
);
}
);
};
layerId = "053302AA-4A2A-42DC-B919-9CC4D126D2B5";
shapes = (
{
ref = E;
},
{
pos = (261,0);
ref = dotbelowcomb;
}
);
width = 496;
}
);
unicode = 7864;
},
{
color = 4;
glyphname = Egrave;
kernLeft = B;
kernRight = E;
lastChange = "2023-11-24 14:34:08 +0000";
layers = (
{
background = {
anchors = (
{
name = bottom;
pos = (261,-35);
},
{
name = ogonek;
pos = (343,60);
},
{
name = top.case;
pos = (259,740);
}
);
hints = (
{
horizontal = 1;
place = (-14,21);
target = up;
type = BottomGhost;
},
{
horizontal = 1;
place = (615,117);
type = Stem;
},
{
place = (101,153);
type = Stem;
}
);
shapes = (
{
closed = 1;
nodes = (
(468,87,ls),
(478,91,o),
(480,95,o),
(480,105,cs),
(480,135,o),
(411,179,o),
(372,179,cs),
(321,179,o),
(251,141,o),
(183,89,c),
(224,55,l),
(227,256,o),
(238,456,o),
(262,653,c),
(110,660,l),
(88,486,o),
(86,313,o),
(74,139,cs),
(71,92,o),
(87,51,o),
(126,34,c),
(145,0,o),
(191,-14,o),
(228,-14,c)
);
},
{
closed = 1;
nodes = (
(260,310,o),
(362,331,o),
(406,331,cs),
(431,331,o),
(443,335,o),
(443,359,cs),
(443,391,o),
(363,443,o),
(323,443,cs),
(272,443,o),
(213,434,o),
(123,418,cs),
(106,415,o),
(101,407,o),
(101,391,cs),
(101,366,o),
(157,310,o),
(200,310,cs)
);
},
{
closed = 1;
nodes = (
(202,589,o),
(337,615,o),
(441,615,cs),
(452,615,o),
(462,614,o),
(474,614,cs),
(481,614,o),
(484,617,o),
(484,624,cs),
(484,677,o),
(433,732,o),
(318,732,cs),
(264,732,o),
(112,715,o),
(74,715,cs),
(61,715,o),
(55,709,o),
(55,699,cs),
(55,664,o),
(132,589,o),
(162,589,cs)
);
},
{
closed = 1;
nodes = (
(339,761,o),
(357,777,o),
(357,794,cs),
(357,800,o),
(354,807,o),
(347,812,cs),
(311,841,o),
(248,906,o),
(210,941,cs),
(202,949,o),
(192,952,o),
(181,952,cs),
(145,952,o),
(103,913,o),
(103,873,cs),
(103,839,o),
(229,761,o),
(309,761,cs)
);
}
);
};
hints = (
{
horizontal = 1;
place = (-14,21);
target = up;
type = BottomGhost;
},
{
horizontal = 1;
place = (615,117);
type = Stem;
},
{
place = (101,153);
type = Stem;
},
{
horizontal = 1;
place = (771,145);
type = Stem;
}
);
layerId = "053302AA-4A2A-42DC-B919-9CC4D126D2B5";
shapes = (
{
ref = E;
},
{
pos = (230,0);
ref = gravecomb.case;
}
);
width = 496;
}
);
note = Egrave;
unicode = 200;
},
{
color = 4;
glyphname = Ehookabove;
lastChange = "2023-11-24 14:34:08 +0000";
layers = (
{
background = {
anchors = (
{
name = bottom;
pos = (261,-35);
},
{
name = ogonek;
pos = (343,60);
},
{
name = top.case;
pos = (259,740);
}
);
hints = (
{
horizontal = 1;
place = (-14,21);
target = up;
type = BottomGhost;
},
{
horizontal = 1;
place = (615,117);
type = Stem;
},
{
place = (101,153);
type = Stem;
}
);
shapes = (
{
closed = 1;
nodes = (
(468,87,ls),
(478,91,o),
(480,95,o),
(480,105,cs),
(480,135,o),
(411,179,o),
(372,179,cs),
(321,179,o),
(251,141,o),
(183,89,c),
(224,55,l),
(227,256,o),
(238,456,o),
(262,653,c),
(110,660,l),
(88,486,o),
(86,313,o),
(74,139,cs),
(71,92,o),
(87,51,o),
(126,34,c),
(145,0,o),
(191,-14,o),
(228,-14,c)
);
},
{
closed = 1;
nodes = (
(260,310,o),
(362,331,o),
(406,331,cs),
(431,331,o),
(443,335,o),
(443,359,cs),
(443,391,o),
(363,443,o),
(323,443,cs),
(272,443,o),
(213,434,o),
(123,418,cs),
(106,415,o),
(101,407,o),
(101,391,cs),
(101,366,o),
(157,310,o),
(200,310,cs)
);
},
{
closed = 1;
nodes = (
(202,589,o),
(337,615,o),
(441,615,cs),
(452,615,o),
(462,614,o),
(474,614,cs),
(481,614,o),
(484,617,o),
(484,624,cs),
(484,677,o),
(433,732,o),
(318,732,cs),
(264,732,o),
(112,715,o),
(74,715,cs),
(61,715,o),
(55,709,o),
(55,699,cs),
(55,664,o),
(132,589,o),
(162,589,cs)
);
},
{
closed = 1;
nodes = (
(272,771,o),
(281,774,o),
(291,779,cs),
(332,801,o),
(372,856,o),
(372,896,cs),
(372,955,o),
(316,1001,o),
(190,1001,cs),
(179,1001,o),
(168,1005,o),
(159,1005,cs),
(149,1005,o),
(143,1001,o),
(143,982,cs),
(143,948,o),
(147,884,o),
(186,884,cs),
(196,884,o),
(209,885,o),
(221,885,cs),
(240,885,o),
(257,883,o),
(257,871,cs),
(257,860,o),
(244,845,o),
(234,831,cs),
(229,824,o),
(227,817,o),
(227,809,cs),
(227,790,o),
(241,771,o),
(264,771,cs)
);
}
);
};
layerId = "053302AA-4A2A-42DC-B919-9CC4D126D2B5";
shapes = (
{
ref = E;
},
{
pos = (259,0);
ref = hookabovecomb.case;
}
);
width = 496;
}
);
unicode = 7866;
},
{
color = 4;
glyphname = Einvertedbreve;
lastChange = "2023-11-24 14:34:08 +0000";
layers = (
{
background = {
anchors = (
{
name = bottom;
pos = (261,-35);
},
{
name = ogonek;
pos = (343,60);
},
{
name = top.case;
pos = (259,740);
}
);
hints = (
{
horizontal = 1;
place = (-14,21);
target = up;
type = BottomGhost;
},
{
horizontal = 1;
place = (615,117);
type = Stem;
},
{
place = (101,153);
type = Stem;
},
{
horizontal = 1;
place = (946.42,-198.243);
type = Stem;
},
{
horizontal = 1;
place = (946.42,-119.543);
type = Stem;
},
{
horizontal = 1;
place = (946.42,-178.319);
type = Stem;
}
);
shapes = (
{
closed = 1;
nodes = (
(468,87,ls),
(478,91,o),
(480,95,o),
(480,105,cs),
(480,135,o),
(411,179,o),
(372,179,cs),
(321,179,o),
(251,141,o),
(183,89,c),
(224,55,l),
(227,256,o),
(238,456,o),
(262,653,c),
(110,660,l),
(88,486,o),
(86,313,o),
(74,139,cs),
(71,92,o),
(87,51,o),
(126,34,c),
(145,0,o),
(191,-14,o),
(228,-14,c)
);
},
{
closed = 1;
nodes = (
(260,310,o),
(362,331,o),
(406,331,cs),
(431,331,o),
(443,335,o),
(443,359,cs),
(443,391,o),
(363,443,o),
(323,443,cs),
(272,443,o),
(213,434,o),
(123,418,cs),
(106,415,o),
(101,407,o),
(101,391,cs),
(101,366,o),
(157,310,o),
(200,310,cs)
);
},
{
closed = 1;
nodes = (
(202,589,o),
(337,615,o),
(441,615,cs),
(452,615,o),
(462,614,o),
(474,614,cs),
(481,614,o),
(484,617,o),
(484,624,cs),
(484,677,o),
(433,732,o),
(318,732,cs),
(264,732,o),
(112,715,o),
(74,715,cs),
(61,715,o),
(55,709,o),
(55,699,cs),
(55,664,o),
(132,589,o),
(162,589,cs)
);
},
{
closed = 1;
nodes = (
(194,940,o),
(109,881,o),
(98,774,cs),
(96,755,o),
(111,749,o),
(130,750,cs),
(153,752,o),
(180,767,o),
(188,787,cs),
(201,822,o),
(226,841,o),
(249,843,cs),
(282,846,o),
(314,817,o),
(314,755,cs),
(315,740,o),
(333,733,o),
(356,735,cs),
(391,738,o),
(436,765,o),
(431,824,cs),
(423,915,o),
(350,954,o),
(274,948,cs)
);
}
);
};
layerId = "053302AA-4A2A-42DC-B919-9CC4D126D2B5";
shapes = (
{
ref = E;
},
{
pos = (259,0);
ref = breveinvertedcomb.case;
}
);
width = 496;
}
);
unicode = 518;
},
{
color = 4;
glyphname = Emacron;
kernLeft = B;
kernRight = E;
lastChange = "2023-11-24 14:34:00 +0000";
layers = (
{
background = {
shapes = (
{
closed = 1;
nodes = (
(468,87,ls),
(478,91,o),
(480,95,o),
(480,105,cs),
(480,135,o),
(411,179,o),
(372,179,cs),
(332,179,o),
(281,156,o),
(228,121,c),
(244,311,l),
(314,317,o),
(420,332,o),
(420,352,cs),
(420,382,o),
(334,437,o),
(307,437,cs),
(294,437,o),
(273,435,o),
(250,431,c),
(259,599,l),
(271,600,o),
(362,615,o),
(441,615,cs),
(452,615,o),
(462,614,o),
(474,614,cs),
(481,614,o),
(484,617,o),
(484,624,cs),
(484,677,o),
(389,732,o),
(318,732,cs),
(264,732,o),
(112,715,o),
(74,715,cs),
(61,715,o),
(55,709,o),
(55,699,cs),
(55,678,o),
(84,642,o),
(108,624,c),
(94,414,l),
(62,408,o),
(39,401,o),
(39,390,cs),
(39,375,o),
(62,351,o),
(88,331,c),
(74,139,ls),
(68,48,o),
(152,-14,o),
(228,-14,c)
);
},
{
closed = 1;
nodes = (
(392,819,ls),
(418,821,o),
(436,831,o),
(436,840,cs),
(436,870,o),
(389,934,o),
(347,934,c),
(165,907,ls),
(117,900,o),
(100,886,o),
(100,874,cs),
(100,857,o),
(132,814,o),
(161,801,c)
);
}
);
};
hints = (
{
horizontal = 1;
place = (-14,21);
target = up;
type = BottomGhost;
},
{
horizontal = 1;
place = (615,117);
type = Stem;
},
{
place = (101,153);
type = Stem;
},
{
horizontal = 1;
place = (810,124);
type = Stem;
},
{
horizontal = 1;
place = (801,21);
target = up;
type = BottomGhost;
}
);
layerId = "053302AA-4A2A-42DC-B919-9CC4D126D2B5";
shapes = (
{
closed = 1;
nodes = (
(468,87,ls),
(478,91,o),
(480,95,o),
(480,105,cs),
(480,135,o),
(411,179,o),
(372,179,cs),
(332,179,o),
(281,156,o),
(228,121,c),
(244,311,l),
(314,317,o),
(420,332,o),
(420,352,cs),
(420,382,o),
(334,437,o),
(307,437,cs),
(294,437,o),
(273,435,o),
(250,431,c),
(259,599,l),
(271,600,o),
(362,615,o),
(441,615,cs),
(452,615,o),
(462,614,o),
(474,614,cs),
(481,614,o),
(484,617,o),
(484,624,cs),
(484,677,o),
(389,732,o),
(318,732,cs),
(264,732,o),
(112,715,o),
(74,715,cs),
(61,715,o),
(55,709,o),
(55,699,cs),
(55,678,o),
(84,642,o),
(108,624,c),
(94,414,l),
(62,408,o),
(39,401,o),
(39,390,cs),
(39,375,o),
(62,351,o),
(88,331,c),
(74,139,ls),
(68,48,o),
(152,-14,o),
(228,-14,c)
);
},
{
closed = 1;
nodes = (
(392,819,ls),
(418,821,o),
(436,831,o),
(436,840,cs),
(436,870,o),
(389,934,o),
(347,934,c),
(165,907,ls),
(117,900,o),
(100,886,o),
(100,874,cs),
(100,857,o),
(132,814,o),
(161,801,c)
);
}
);
width = 496;
}
);
note = Emacron;
unicode = 274;
},
{
color = 4;
glyphname = Eogonek;
kernLeft = B;
kernRight = E;
lastChange = "2023-11-24 14:34:08 +0000";
layers = (
{
background = {
anchors = (
{
name = bottom;
pos = (261,-35);
},
{
name = ogonek;
pos = (343,60);
},
{
name = top.case;
pos = (259,740);
}
);
hints = (
{
horizontal = 1;
place = (-14,21);
target = up;
type = BottomGhost;
},
{
horizontal = 1;
place = (615,117);
type = Stem;
},
{
place = (101,153);
type = Stem;
},
{
horizontal = 1;
place = (-94,116);
type = Stem;
},
{
place = (238,264);
type = Stem;
},
{
horizontal = 1;
place = (-94,92);
type = Stem;
},
{
place = (238,116);
type = Stem;
}
);
shapes = (
{
closed = 1;
nodes = (
(468,87,ls),
(478,91,o),
(480,95,o),
(480,105,cs),
(480,135,o),
(411,179,o),
(372,179,cs),
(321,179,o),
(251,141,o),
(183,89,c),
(224,55,l),
(227,256,o),
(238,456,o),
(262,653,c),
(110,660,l),
(88,486,o),
(86,313,o),
(74,139,cs),
(71,92,o),
(87,51,o),
(126,34,c),
(145,0,o),
(191,-14,o),
(228,-14,c)
);
},
{
closed = 1;
nodes = (
(260,310,o),
(362,331,o),
(406,331,cs),
(431,331,o),
(443,335,o),
(443,359,cs),
(443,391,o),
(363,443,o),
(323,443,cs),
(272,443,o),
(213,434,o),
(123,418,cs),
(106,415,o),
(101,407,o),
(101,391,cs),
(101,366,o),
(157,310,o),
(200,310,cs)
);
},
{
closed = 1;
nodes = (
(202,589,o),
(337,615,o),
(441,615,cs),
(452,615,o),
(462,614,o),
(474,614,cs),
(481,614,o),
(484,617,o),
(484,624,cs),
(484,677,o),
(433,732,o),
(318,732,cs),
(264,732,o),
(112,715,o),
(74,715,cs),
(61,715,o),
(55,709,o),
(55,699,cs),
(55,664,o),
(132,589,o),
(162,589,cs)
);
},
{
closed = 1;
nodes = (
(438,-160,o),
(491,-91,o),
(491,-54,cs),
(491,-40,o),
(484,-31,o),
(469,-31,cs),
(444,-31,o),
(436,-65,o),
(388,-65,cs),
(372,-65,o),
(365,-54,o),
(365,-39,cs),
(365,-10,o),
(387,34,o),
(412,62,c),
(352,89,l),
(297,53,o),
(256,-19,o),
(256,-70,cs),
(256,-122,o),
(292,-160,o),
(352,-160,cs)
);
}
);
};
hints = (
{
horizontal = 1;
place = (-144,116);
type = Stem;
},
{
horizontal = 1;
place = (-14,21);
target = up;
type = BottomGhost;
},
{
horizontal = 1;
place = (615,117);
type = Stem;
},
{
place = (101,153);
type = Stem;
},
{
place = (280,264);
type = Stem;
},
{
horizontal = 1;
place = (-144,92);
type = Stem;
},
{
place = (280,116);
type = Stem;
}
);
layerId = "053302AA-4A2A-42DC-B919-9CC4D126D2B5";
shapes = (
{
ref = E;
},
{
pos = (374,50);
ref = ogonekcomb;
}
);
width = 496;
}
);
note = Eogonek;
unicode = 280;
},
{
color = 4;
glyphname = Etilde;
lastChange = "2023-11-24 14:35:16 +0000";
layers = (
{
background = {
anchors = (
{
name = bottom;
pos = (261,-35);
},
{
name = ogonek;
pos = (343,60);
},
{
name = top.case;
pos = (285,909);
}
);
hints = (
{
horizontal = 1;
place = (-14,21);
target = up;
type = BottomGhost;
},
{
horizontal = 1;
place = (615,117);
type = Stem;
},
{
place = (101,153);
type = Stem;
},
{
horizontal = 1;
place = (762,164);
type = Stem;
},
{
horizontal = 1;
place = (931,-20);
target = down;
type = TopGhost;
},
{
horizontal = 1;
place = (748,178);
type = Stem;
},
{
horizontal = 1;
place = (779,164);
type = Stem;
},
{
horizontal = 1;
place = (948,-20);
target = down;
type = TopGhost;
},
{
horizontal = 1;
place = (765,178);
type = Stem;
}
);
shapes = (
{
closed = 1;
nodes = (
(468,87,ls),
(478,91,o),
(480,95,o),
(480,105,cs),
(480,135,o),
(411,179,o),
(372,179,cs),
(321,179,o),
(251,141,o),
(183,89,c),
(224,55,l),
(227,256,o),
(238,456,o),
(262,653,c),
(110,660,l),
(88,486,o),
(86,313,o),
(74,139,cs),
(71,92,o),
(87,51,o),
(126,34,c),
(145,0,o),
(191,-14,o),
(228,-14,c)
);
},
{
closed = 1;
nodes = (
(260,310,o),
(362,331,o),
(406,331,cs),
(431,331,o),
(443,335,o),
(443,359,cs),
(443,391,o),
(363,443,o),
(323,443,cs),
(272,443,o),
(213,434,o),
(123,418,cs),
(106,415,o),
(101,407,o),
(101,391,cs),
(101,366,o),
(157,310,o),
(200,310,cs)
);
},
{
closed = 1;
nodes = (
(202,589,o),
(337,615,o),
(441,615,cs),
(452,615,o),
(462,614,o),
(474,614,cs),
(481,614,o),
(484,617,o),
(484,624,cs),
(484,677,o),
(433,732,o),
(318,732,cs),
(264,732,o),
(112,715,o),
(74,715,cs),
(61,715,o),
(55,709,o),
(55,699,cs),
(55,664,o),
(132,589,o),
(162,589,cs)
);
},
{
closed = 1;
nodes = (
(376,756,o),
(424,812,o),
(424,854,cs),
(424,896,o),
(411,924,o),
(396,926,cs),
(388,926,o),
(379,923,o),
(368,909,cs),
(357,894,o),
(345,887,o),
(333,887,cs),
(296,887,o),
(277,936,o),
(216,936,cs),
(170,936,o),
(122,880,o),
(122,838,cs),
(122,796,o),
(135,768,o),
(150,766,cs),
(158,766,o),
(167,769,o),
(179,783,cs),
(189,797,o),
(201,804,o),
(213,804,cs),
(248,804,o),
(275,756,o),
(330,756,cs)
);
}
);
};
layerId = "053302AA-4A2A-42DC-B919-9CC4D126D2B5";
shapes = (
{
ref = E;
},
{
pos = (259,17);
ref = tildecomb.case;
}
);
width = 496;
}
);
unicode = 7868;
},
{
color = 4;
glyphname = Schwa;
lastChange = "2023-11-24 14:34:00 +0000";
layers = (
{
background = {
shapes = (
{
closed = 1;
nodes = (
(471,-13,o),
(545,244,o),
(545,448,cs),
(545,582,o),
(440,727,o),
(317,727,cs),
(170,727,o),
(23,631,o),
(23,569,cs),
(23,519,o),
(43,488,o),
(82,465,c),
(164,551,o),
(236,597,o),
(299,597,cs),
(352,597,o),
(386,573,o),
(386,484,cs),
(386,324,o),
(331,95,o),
(228,95,cs),
(204,95,o),
(184,122,o),
(184,141,cs),
(184,232,o),
(311,383,o),
(397,383,cs),
(424,383,o),
(435,394,o),
(435,409,cs),
(435,442,o),
(382,497,o),
(345,497,cs),
(211,497,o),
(48,318,o),
(42,219,cs),
(35,125,o),
(153,-13,o),
(255,-13,cs)
);
}
);
};
layerId = "053302AA-4A2A-42DC-B919-9CC4D126D2B5";
shapes = (
{
closed = 1;
nodes = (
(471,-13,o),
(545,244,o),
(545,448,cs),
(545,582,o),
(440,727,o),
(317,727,cs),
(170,727,o),
(23,631,o),
(23,569,cs),
(23,519,o),
(43,488,o),
(82,465,c),
(164,551,o),
(236,597,o),
(299,597,cs),
(352,597,o),
(386,573,o),
(386,484,cs),
(386,324,o),
(331,95,o),
(228,95,cs),
(204,95,o),
(184,122,o),
(184,141,cs),
(184,232,o),
(311,383,o),
(397,383,cs),
(424,383,o),
(435,394,o),
(435,409,cs),
(435,442,o),
(382,497,o),
(345,497,cs),
(211,497,o),
(48,318,o),
(42,219,cs),
(35,125,o),
(153,-13,o),
(255,-13,cs)
);
}
);
width = 573;
}
);
metricRight = O;
unicode = 399;
},
{
color = 4;
glyphname = F;
kernLeft = B;
lastChange = "2023-11-24 14:34:00 +0000";
layers = (
{
background = {
shapes = (
{
closed = 1;
nodes = (
(211,-14,o),
(220,-11,o),
(221,1,cs),
(270,632,l),
(117,632,l),
(87,182,ls),
(86,171,o),
(86,161,o),
(86,151,cs),
(86,10,o),
(157,-14,o),
(199,-14,cs)
);
},
{
closed = 1;
nodes = (
(240,310,o),
(342,331,o),
(386,331,cs),
(411,331,o),
(423,335,o),
(423,359,cs),
(423,391,o),
(343,443,o),
(303,443,cs),
(252,443,o),
(193,434,o),
(103,418,cs),
(86,415,o),
(81,407,o),
(81,391,cs),
(81,366,o),
(137,310,o),
(180,310,cs)
);
},
{
closed = 1;
nodes = (
(205,589,o),
(346,615,o),
(450,615,cs),
(461,615,o),
(471,614,o),
(483,614,cs),
(490,614,o),
(493,617,o),
(493,624,cs),
(493,679,o),
(433,732,o),
(327,732,cs),
(273,732,o),
(121,716,o),
(83,716,cs),
(70,716,o),
(64,710,o),
(64,700,cs),
(64,665,o),
(135,589,o),
(165,589,cs)
);
}
);
};
hints = (
{
horizontal = 1;
place = (-14,21);
target = up;
type = BottomGhost;
},
{
horizontal = 1;
place = (599,133);
type = Stem;
},
{
place = (114,142);
type = Stem;
},
{
horizontal = 1;
place = (615,117);
type = Stem;
}
);
layerId = "053302AA-4A2A-42DC-B919-9CC4D126D2B5";
shapes = (
{
closed = 1;
nodes = (
(211,-14,o),
(220,-11,o),
(221,1,cs),
(270,632,l),
(117,632,l),
(87,182,ls),
(86,171,o),
(86,161,o),
(86,151,cs),
(86,10,o),
(157,-14,o),
(199,-14,cs)
);
},
{
closed = 1;
nodes = (
(240,310,o),
(342,331,o),
(386,331,cs),
(411,331,o),
(423,335,o),
(423,359,cs),
(423,391,o),
(343,443,o),
(303,443,cs),
(252,443,o),
(193,434,o),
(103,418,cs),
(86,415,o),
(81,407,o),
(81,391,cs),
(81,366,o),
(137,310,o),
(180,310,cs)
);
},
{
closed = 1;
nodes = (
(205,589,o),
(346,615,o),
(450,615,cs),
(461,615,o),
(471,614,o),
(483,614,cs),
(490,614,o),
(493,617,o),
(493,624,cs),
(493,679,o),
(433,732,o),
(327,732,cs),
(273,732,o),
(121,716,o),
(83,716,cs),
(70,716,o),
(64,710,o),
(64,700,cs),
(64,665,o),
(135,589,o),
(165,589,cs)
);
}
);
width = 474;
}
);
note = F;
unicode = 70;
},
{
color = 4;
glyphname = G;
kernLeft = C;
kernRight = G;
lastChange = "2023-11-24 14:34:00 +0000";
layers = (
{
anchors = (
{
name = bottom;
pos = (202,-55);
},
{
name = top.case;
pos = (327,740);
}
);
background = {
anchors = (
{
name = bottom;
pos = (202,-55);
},
{
name = top.case;
pos = (327,740);
}
);
shapes = (
{
closed = 1;
nodes = (
(250,-14,o),
(346,18,o),
(373,57,c),
(370,176,l),
(314,146,o),
(252,128,o),
(193,128,cs),
(185,128,o),
(177,128,o),
(169,129,c),
(169,347,o),
(267,624,o),
(390,616,c),
(366,578,o),
(354,536,o),
(354,514,cs),
(354,463,o),
(414,411,o),
(447,411,cs),
(462,411,o),
(465,419,o),
(471,433,cs),
(492,493,o),
(518,532,o),
(518,580,cs),
(518,624,o),
(498,670,o),
(448,687,c),
(421,725,o),
(390,731,o),
(346,731,cs),
(153,731,o),
(33,429,o),
(33,216,cs),
(33,142,o),
(52,86,o),
(88,62,c),
(113,15,o),
(169,-14,o),
(225,-14,cs)
);
},
{
closed = 1;
nodes = (
(459,-161,o),
(469,-158,o),
(469,-146,cs),
(469,0,o),
(476,151,o),
(498,291,c),
(351,291,l),
(337,-5,ls),
(332,-108,o),
(382,-161,o),
(447,-161,cs)
);
},
{
closed = 1;
nodes = (
(412,240,o),
(572,261,o),
(631,261,cs),
(656,261,o),
(668,265,o),
(668,289,cs),
(668,321,o),
(588,373,o),
(535,373,cs),
(483,373,o),
(351,361,o),
(275,348,cs),
(258,345,o),
(253,337,o),
(253,321,cs),
(253,296,o),
(309,240,o),
(352,240,cs)
);
}
);
};
hints = (
{
horizontal = 1;
place = (-161,21);
target = up;
type = BottomGhost;
},
{
horizontal = 1;
place = (-14,21);
target = up;
type = BottomGhost;
},
{
horizontal = 1;
place = (252,127);
type = Stem;
},
{
horizontal = 1;
place = (728,-20);
target = down;
type = TopGhost;
},
{
place = (6,163);
type = Stem;
},
{
place = (330,167);
type = Stem;
}
);
layerId = "053302AA-4A2A-42DC-B919-9CC4D126D2B5";
shapes = (
{
closed = 1;
nodes = (
(250,-14,o),
(346,18,o),
(373,57,c),
(370,176,l),
(314,146,o),
(252,128,o),
(193,128,cs),
(185,128,o),
(177,128,o),
(169,129,c),
(169,347,o),
(267,624,o),
(390,616,c),
(366,578,o),
(354,536,o),
(354,514,cs),
(354,463,o),
(414,411,o),
(447,411,cs),
(462,411,o),
(465,419,o),
(471,433,cs),
(492,493,o),
(518,532,o),
(518,580,cs),
(518,624,o),
(498,670,o),
(448,687,c),
(421,725,o),
(390,731,o),
(346,731,cs),
(153,731,o),
(33,429,o),
(33,216,cs),
(33,142,o),
(52,86,o),
(88,62,c),
(113,15,o),
(169,-14,o),
(225,-14,cs)
);
},
{
closed = 1;
nodes = (
(459,-161,o),
(469,-158,o),
(469,-146,cs),
(469,0,o),
(476,151,o),
(498,291,c),
(351,291,l),
(337,-5,ls),
(332,-108,o),
(382,-161,o),
(447,-161,cs)
);
},
{
closed = 1;
nodes = (
(412,240,o),
(572,261,o),
(631,261,cs),
(656,261,o),
(668,265,o),
(668,289,cs),
(668,321,o),
(588,373,o),
(535,373,cs),
(483,373,o),
(351,361,o),
(275,348,cs),
(258,345,o),
(253,337,o),
(253,321,cs),
(253,296,o),
(309,240,o),
(352,240,cs)
);
}
);
width = 547;
},
{
anchors = (
{
name = bottom;
pos = (202,-55);
},
{
name = top.case;
pos = (327,740);
}
);
associatedMasterId = "053302AA-4A2A-42DC-B919-9CC4D126D2B5";
background = {
shapes = (
{
closed = 1;
nodes = (
(326,-92,l),
(323,-141,o),
(408,-161,o),
(447,-161,cs),
(459,-161,o),
(467,-158,o),
(469,-146,cs),
(481,-47,o),
(491,164,o),
(498,291,c),
(343,291,l)
);
},
{
closed = 1;
nodes = (
(599,267,ls),
(650,272,o),
(667,279,o),
(668,289,cs),
(668,320,o),
(596,381,o),
(550,377,cs),
(285,353,ls),
(234,348,o),
(217,340,o),
(216,330,cs),
(215,298,o),
(280,238,o),
(347,244,cs)
);
},
{
closed = 1;
nodes = (
(353,207,l),
(290,185,o),
(215,151,o),
(169,129,c),
(173,313,o),
(210,466,o),
(297,589,c),
(325,508,ls),
(336,475,o),
(388,464,o),
(429,464,cs),
(453,464,o),
(479,467,o),
(479,487,cs),
(479,569,o),
(405,728,o),
(325,728,cs),
(103,728,o),
(6,351,o),
(6,139,cs),
(6,43,o),
(84,-14,o),
(150,-14,cs),
(187,-14,o),
(289,38,o),
(347,65,c)
);
}
);
};
hints = (
{
horizontal = 1;
place = (-161,21);
target = up;
type = BottomGhost;
},
{
horizontal = 1;
place = (-14,21);
target = up;
type = BottomGhost;
},
{
horizontal = 1;
place = (252,127);
type = Stem;
},
{
horizontal = 1;
place = (728,-20);
target = down;
type = TopGhost;
},
{
place = (6,163);
type = Stem;
},
{
place = (330,167);
type = Stem;
}
);
layerId = "F42320C1-B341-48E3-8487-B15C8066FE42";
name = "Apr 16 20, 18:09";
shapes = (
{
closed = 1;
nodes = (
(326,-92,l),
(323,-141,o),
(408,-161,o),
(447,-161,cs),
(459,-161,o),
(467,-158,o),
(469,-146,cs),
(481,-47,o),
(491,164,o),
(498,291,c),
(343,291,l)
);
},
{
closed = 1;
nodes = (
(599,267,ls),
(650,272,o),
(667,279,o),
(668,289,cs),
(668,320,o),
(596,381,o),
(550,377,cs),
(296,353,ls),
(245,348,o),
(228,340,o),
(227,330,cs),
(226,298,o),
(291,238,o),
(358,244,cs)
);
},
{
closed = 1;
nodes = (
(364,207,l),
(300,186,o),
(226,151,o),
(180,129,c),
(184,313,o),
(221,466,o),
(308,589,c),
(336,508,ls),
(347,475,o),
(399,464,o),
(440,464,cs),
(464,464,o),
(490,467,o),
(490,487,cs),
(490,569,o),
(416,728,o),
(336,728,cs),
(114,728,o),
(17,351,o),
(17,139,cs),
(17,43,o),
(95,-14,o),
(161,-14,cs),
(198,-14,o),
(300,38,o),
(358,65,c)
);
}
);
width = 547;
}
);
note = G;
unicode = 71;
},
{
color = 4;
glyphname = Gbreve;
kernLeft = C;
kernRight = G;
lastChange = "2023-11-24 14:34:08 +0000";
layers = (
{
background = {
anchors = (
{
name = bottom;
pos = (202,-55);
},
{
name = top.case;
pos = (359,941);
}
);
hints = (
{
horizontal = 1;
place = (-161,21);
target = up;
type = BottomGhost;
},
{
horizontal = 1;
place = (-14,21);
target = up;
type = BottomGhost;
},
{
horizontal = 1;
place = (252,127);
type = Stem;
},
{
horizontal = 1;
place = (728,-20);
target = down;
type = TopGhost;
},
{
place = (6,163);
type = Stem;
},
{
place = (330,167);
type = Stem;
},
{
horizontal = 1;
place = (757,199);
type = Stem;
},
{
horizontal = 1;
place = (757,120);
type = Stem;
},
{
horizontal = 1;
place = (757,179);
type = Stem;
}
);
shapes = (
{
closed = 1;
nodes = (
(250,-14,o),
(346,18,o),
(373,57,c),
(370,176,l),
(314,146,o),
(252,128,o),
(193,128,cs),
(185,128,o),
(177,128,o),
(169,129,c),
(169,347,o),
(267,624,o),
(390,616,c),
(366,578,o),
(354,536,o),
(354,514,cs),
(354,463,o),
(414,411,o),
(447,411,cs),
(462,411,o),
(465,419,o),
(471,433,cs),
(492,493,o),
(518,532,o),
(518,580,cs),
(518,624,o),
(498,670,o),
(448,687,c),
(421,725,o),
(390,731,o),
(346,731,cs),
(153,731,o),
(33,429,o),
(33,216,cs),
(33,142,o),
(52,86,o),
(88,62,c),
(113,15,o),
(169,-14,o),
(225,-14,cs)
);
},
{
closed = 1;
nodes = (
(459,-161,o),
(469,-158,o),
(469,-146,cs),
(469,0,o),
(476,151,o),
(498,291,c),
(351,291,l),
(337,-5,ls),
(332,-108,o),
(382,-161,o),
(447,-161,cs)
);
},
{
closed = 1;
nodes = (
(412,240,o),
(572,261,o),
(631,261,cs),
(656,261,o),
(668,265,o),
(668,289,cs),
(668,321,o),
(588,373,o),
(535,373,cs),
(483,373,o),
(351,361,o),
(275,348,cs),
(258,345,o),
(253,337,o),
(253,321,cs),
(253,296,o),
(309,240,o),
(352,240,cs)
);
},
{
closed = 1;
nodes = (
(403,758,o),
(493,810,o),
(513,915,cs),
(517,934,o),
(502,942,o),
(483,942,cs),
(460,942,o),
(432,930,o),
(422,910,cs),
(406,877,o),
(380,860,o),
(356,860,cs),
(323,860,o),
(294,891,o),
(299,953,cs),
(300,968,o),
(282,977,o),
(259,977,cs),
(224,977,o),
(177,954,o),
(177,895,cs),
(177,803,o),
(246,758,o),
(322,758,cs)
);
}
);
};
hints = (
{
horizontal = 1;
place = (-161,21);
target = up;
type = BottomGhost;
},
{
horizontal = 1;
place = (-14,21);
target = up;
type = BottomGhost;
},
{
horizontal = 1;
place = (252,127);
type = Stem;
},
{
horizontal = 1;
place = (728,-20);
target = down;
type = TopGhost;
},
{
place = (6,163);
type = Stem;
},
{
place = (330,167);
type = Stem;
},
{
horizontal = 1;
place = (762,199);
type = Stem;
},
{
horizontal = 1;
place = (762,120);
type = Stem;
},
{
horizontal = 1;
place = (762,179);
type = Stem;
}
);
layerId = "053302AA-4A2A-42DC-B919-9CC4D126D2B5";
shapes = (
{
ref = G;
},
{
pos = (346,0);
ref = brevecomb.case;
}
);
width = 547;
}
);
note = Gbreve;
unicode = 286;
},
{
color = 4;
glyphname = Gcaron;
lastChange = "2023-11-24 14:34:08 +0000";
layers = (
{
background = {
anchors = (
{
name = bottom;
pos = (202,-55);
},
{
name = top.case;
pos = (327,740);
}
);
hints = (
{
horizontal = 1;
place = (-161,21);
target = up;
type = BottomGhost;
},
{
horizontal = 1;
place = (-14,21);
target = up;
type = BottomGhost;
},
{
horizontal = 1;
place = (252,127);
type = Stem;
},
{
horizontal = 1;
place = (728,-20);
target = down;
type = TopGhost;
},
{
place = (6,163);
type = Stem;
},
{
place = (330,167);
type = Stem;
}
);
shapes = (
{
closed = 1;
nodes = (
(250,-14,o),
(346,18,o),
(373,57,c),
(370,176,l),
(314,146,o),
(252,128,o),
(193,128,cs),
(185,128,o),
(177,128,o),
(169,129,c),
(169,347,o),
(267,624,o),
(390,616,c),
(366,578,o),
(354,536,o),
(354,514,cs),
(354,463,o),
(414,411,o),
(447,411,cs),
(462,411,o),
(465,419,o),
(471,433,cs),
(492,493,o),
(518,532,o),
(518,580,cs),
(518,624,o),
(498,670,o),
(448,687,c),
(421,725,o),
(390,731,o),
(346,731,cs),
(153,731,o),
(33,429,o),
(33,216,cs),
(33,142,o),
(52,86,o),
(88,62,c),
(113,15,o),
(169,-14,o),
(225,-14,cs)
);
},
{
closed = 1;
nodes = (
(459,-161,o),
(469,-158,o),
(469,-146,cs),
(469,0,o),
(476,151,o),
(498,291,c),
(351,291,l),
(337,-5,ls),
(332,-108,o),
(382,-161,o),
(447,-161,cs)
);
},
{
closed = 1;
nodes = (
(412,240,o),
(572,261,o),
(631,261,cs),
(656,261,o),
(668,265,o),
(668,289,cs),
(668,321,o),
(588,373,o),
(535,373,cs),
(483,373,o),
(351,361,o),
(275,348,cs),
(258,345,o),
(253,337,o),
(253,321,cs),
(253,296,o),
(309,240,o),
(352,240,cs)
);
},
{
closed = 1;
nodes = (
(333,756,o),
(340,759,o),
(346,764,cs),
(379,794,o),
(445,865,o),
(480,894,cs),
(486,899,o),
(490,908,o),
(490,918,cs),
(490,937,o),
(477,958,o),
(453,958,cs),
(409,958,o),
(386,924,o),
(342,872,c),
(311,915,o),
(276,949,o),
(241,949,cs),
(213,949,o),
(182,929,o),
(182,908,cs),
(182,902,o),
(185,896,o),
(191,890,cs),
(226,857,o),
(278,791,o),
(305,765,cs),
(311,759,o),
(319,756,o),
(326,756,cs)
);
}
);
};
layerId = "053302AA-4A2A-42DC-B919-9CC4D126D2B5";
shapes = (
{
ref = G;
},
{
pos = (340,0);
ref = caroncomb.case;
}
);
width = 547;
}
);
unicode = 486;
},
{
color = 4;
glyphname = Gcircumflex;
kernLeft = C;
kernRight = G;
lastChange = "2023-11-24 14:34:08 +0000";
layers = (
{
background = {
anchors = (
{
name = bottom;
pos = (202,-55);
},
{
name = top.case;
pos = (332,984);
}
);
hints = (
{
horizontal = 1;
place = (-161,21);
target = up;
type = BottomGhost;
},
{
horizontal = 1;
place = (-14,21);
target = up;
type = BottomGhost;
},
{
horizontal = 1;
place = (252,127);
type = Stem;
},
{
horizontal = 1;
place = (728,-20);
target = down;
type = TopGhost;
},
{
place = (6,163);
type = Stem;
},
{
place = (330,167);
type = Stem;
},
{
horizontal = 1;
place = (758,21);
target = up;
type = BottomGhost;
},
{
horizontal = 1;
place = (974,-20);
target = down;
type = TopGhost;
}
);
shapes = (
{
closed = 1;
nodes = (
(250,-14,o),
(346,18,o),
(373,57,c),
(370,176,l),
(314,146,o),
(252,128,o),
(193,128,cs),
(185,128,o),
(177,128,o),
(169,129,c),
(169,347,o),
(267,624,o),
(390,616,c),
(366,578,o),
(354,536,o),
(354,514,cs),
(354,463,o),
(414,411,o),
(447,411,cs),
(462,411,o),
(465,419,o),
(471,433,cs),
(492,493,o),
(518,532,o),
(518,580,cs),
(518,624,o),
(498,670,o),
(448,687,c),
(421,725,o),
(390,731,o),
(346,731,cs),
(153,731,o),
(33,429,o),
(33,216,cs),
(33,142,o),
(52,86,o),
(88,62,c),
(113,15,o),
(169,-14,o),
(225,-14,cs)
);
},
{
closed = 1;
nodes = (
(459,-161,o),
(469,-158,o),
(469,-146,cs),
(469,0,o),
(476,151,o),
(498,291,c),
(351,291,l),
(337,-5,ls),
(332,-108,o),
(382,-161,o),
(447,-161,cs)
);
},
{
closed = 1;
nodes = (
(412,240,o),
(572,261,o),
(631,261,cs),
(656,261,o),
(668,265,o),
(668,289,cs),
(668,321,o),
(588,373,o),
(535,373,cs),
(483,373,o),
(351,361,o),
(275,348,cs),
(258,345,o),
(253,337,o),
(253,321,cs),
(253,296,o),
(309,240,o),
(352,240,cs)
);
},
{
closed = 1;
nodes = (
(249,752,o),
(276,787,o),
(326,838,c),
(360,797,o),
(399,762,o),
(438,762,cs),
(470,762,o),
(506,786,o),
(506,810,cs),
(506,817,o),
(504,824,o),
(497,830,cs),
(457,867,o),
(398,941,o),
(368,971,cs),
(361,978,o),
(352,982,o),
(344,982,cs),
(336,982,o),
(328,978,o),
(321,972,cs),
(284,938,o),
(209,858,o),
(168,825,cs),
(161,819,o),
(158,809,o),
(158,799,cs),
(158,777,o),
(172,752,o),
(199,752,cs)
);
}
);
};
hints = (
{
horizontal = 1;
place = (-161,21);
target = up;
type = BottomGhost;
},
{
horizontal = 1;
place = (-14,21);
target = up;
type = BottomGhost;
},
{
horizontal = 1;
place = (252,127);
type = Stem;
},
{
horizontal = 1;
place = (728,-20);
target = down;
type = TopGhost;
},
{
place = (6,163);
type = Stem;
},
{
place = (330,167);
type = Stem;
},
{
horizontal = 1;
place = (754,21);
target = up;
type = BottomGhost;
},
{
horizontal = 1;
place = (960,-20);
target = down;
type = TopGhost;
}
);
layerId = "053302AA-4A2A-42DC-B919-9CC4D126D2B5";
shapes = (
{
ref = G;
},
{
pos = (332,0);
ref = circumflexcomb.case;
}
);
width = 547;
}
);
note = Gcircumflex;
unicode = 284;
},
{
color = 4;
glyphname = Gcommaaccent;
kernLeft = C;
kernRight = G;
lastChange = "2023-11-24 14:34:08 +0000";
layers = (
{
background = {
anchors = (
{
name = bottom;
pos = (202,-55);
},
{
name = top.case;
pos = (327,740);
}
);
hints = (
{
horizontal = 1;
place = (-161,21);
target = up;
type = BottomGhost;
},
{
horizontal = 1;
place = (-14,21);
target = up;
type = BottomGhost;
},
{
horizontal = 1;
place = (252,127);
type = Stem;
},
{
horizontal = 1;
place = (728,-20);
target = down;
type = TopGhost;
},
{
place = (6,163);
type = Stem;
},
{
place = (330,167);
type = Stem;
},
{
horizontal = 1;
place = (-297,21);
target = up;
type = BottomGhost;
},
{
horizontal = 1;
place = (-36,-20);
target = down;
type = TopGhost;
},
{
place = (137,149);
type = Stem;
},
{
place = (82,204);
type = Stem;
}
);
shapes = (
{
closed = 1;
nodes = (
(250,-14,o),
(346,18,o),
(373,57,c),
(370,176,l),
(314,146,o),
(252,128,o),
(193,128,cs),
(185,128,o),
(177,128,o),
(169,129,c),
(169,347,o),
(267,624,o),
(390,616,c),
(366,578,o),
(354,536,o),
(354,514,cs),
(354,463,o),
(414,411,o),
(447,411,cs),
(462,411,o),
(465,419,o),
(471,433,cs),
(492,493,o),
(518,532,o),
(518,580,cs),
(518,624,o),
(498,670,o),
(448,687,c),
(421,725,o),
(390,731,o),
(346,731,cs),
(153,731,o),
(33,429,o),
(33,216,cs),
(33,142,o),
(52,86,o),
(88,62,c),
(113,15,o),
(169,-14,o),
(225,-14,cs)
);
},
{
closed = 1;
nodes = (
(459,-161,o),
(469,-158,o),
(469,-146,cs),
(469,0,o),
(476,151,o),
(498,291,c),
(351,291,l),
(337,-5,ls),
(332,-108,o),
(382,-161,o),
(447,-161,cs)
);
},
{
closed = 1;
nodes = (
(412,240,o),
(572,261,o),
(631,261,cs),
(656,261,o),
(668,265,o),
(668,289,cs),
(668,321,o),
(588,373,o),
(535,373,cs),
(483,373,o),
(351,361,o),
(275,348,cs),
(258,345,o),
(253,337,o),
(253,321,cs),
(253,296,o),
(309,240,o),
(352,240,cs)
);
},
{
closed = 1;
nodes = (
(200,-245,o),
(279,-160,o),
(279,-104,cs),
(279,-71,o),
(230,-54,o),
(181,-54,cs),
(166,-54,o),
(150,-55,o),
(136,-59,c),
(143,-141,o),
(109,-196,o),
(111,-219,cs),
(114,-241,o),
(131,-251,o),
(150,-251,cs)
);
}
);
};
hints = (
{
horizontal = 1;
place = (-161,21);
target = up;
type = BottomGhost;
},
{
horizontal = 1;
place = (-14,21);
target = up;
type = BottomGhost;
},
{
horizontal = 1;
place = (252,127);
type = Stem;
},
{
horizontal = 1;
place = (728,-20);
target = down;
type = TopGhost;
},
{
place = (6,163);
type = Stem;
},
{
place = (330,167);
type = Stem;
}
);
layerId = "053302AA-4A2A-42DC-B919-9CC4D126D2B5";
shapes = (
{
ref = G;
},
{
pos = (195,-20);
ref = commaaccentcomb;
}
);
width = 547;
}
);
note = Gcommaaccent;
unicode = 290;
},
{
color = 4;
glyphname = Gdotaccent;
kernLeft = C;
kernRight = G;
lastChange = "2023-11-24 14:34:08 +0000";
layers = (
{
background = {
anchors = (
{
name = bottom;
pos = (202,-55);
},
{
name = top.case;
pos = (327,945);
}
);
hints = (
{
horizontal = 1;
place = (-161,21);
target = up;
type = BottomGhost;
},
{
horizontal = 1;
place = (-14,21);
target = up;
type = BottomGhost;
},
{
horizontal = 1;
place = (252,127);
type = Stem;
},
{
horizontal = 1;
place = (728,-20);
target = down;
type = TopGhost;
},
{
place = (6,163);
type = Stem;
},
{
place = (330,167);
type = Stem;
},
{
horizontal = 1;
place = (783,165);
type = Stem;
},
{
place = (243,146);
type = Stem;
},
{
place = (243,168);
type = Stem;
}
);
shapes = (
{
closed = 1;
nodes = (
(250,-14,o),
(346,18,o),
(373,57,c),
(370,176,l),
(314,146,o),
(252,128,o),
(193,128,cs),
(185,128,o),
(177,128,o),
(169,129,c),
(169,347,o),
(267,624,o),
(390,616,c),
(366,578,o),
(354,536,o),
(354,514,cs),
(354,463,o),
(414,411,o),
(447,411,cs),
(462,411,o),
(465,419,o),
(471,433,cs),
(492,493,o),
(518,532,o),
(518,580,cs),
(518,624,o),
(498,670,o),
(448,687,c),
(421,725,o),
(390,731,o),
(346,731,cs),
(153,731,o),
(33,429,o),
(33,216,cs),
(33,142,o),
(52,86,o),
(88,62,c),
(113,15,o),
(169,-14,o),
(225,-14,cs)
);
},
{
closed = 1;
nodes = (
(459,-161,o),
(469,-158,o),
(469,-146,cs),
(469,0,o),
(476,151,o),
(498,291,c),
(351,291,l),
(337,-5,ls),
(332,-108,o),
(382,-161,o),
(447,-161,cs)
);
},
{
closed = 1;
nodes = (
(412,240,o),
(572,261,o),
(631,261,cs),
(656,261,o),
(668,265,o),
(668,289,cs),
(668,321,o),
(588,373,o),
(535,373,cs),
(483,373,o),
(351,361,o),
(275,348,cs),
(258,345,o),
(253,337,o),
(253,321,cs),
(253,296,o),
(309,240,o),
(352,240,cs)
);
},
{
closed = 1;
nodes = (
(370,783,o),
(377,784,o),
(389,787,c),
(399,859,o),
(411,895,o),
(411,926,cs),
(411,934,o),
(406,936,o),
(394,939,cs),
(371,945,o),
(351,948,o),
(332,948,cs),
(315,948,o),
(289,947,o),
(273,944,cs),
(244,937,o),
(244,900,o),
(242,875,cs),
(237,800,o),
(292,783,o),
(359,783,cs)
);
}
);
};
hints = (
{
horizontal = 1;
place = (-161,21);
target = up;
type = BottomGhost;
},
{
horizontal = 1;
place = (-14,21);
target = up;
type = BottomGhost;
},
{
horizontal = 1;
place = (252,127);
type = Stem;
},
{
horizontal = 1;
place = (728,-20);
target = down;
type = TopGhost;
},
{
place = (6,163);
type = Stem;
},
{
place = (330,167);
type = Stem;
},
{
horizontal = 1;
place = (763,165);
type = Stem;
},
{
place = (232,146);
type = Stem;
},
{
place = (232,168);
type = Stem;
}
);
layerId = "053302AA-4A2A-42DC-B919-9CC4D126D2B5";
shapes = (
{
ref = G;
},
{
pos = (327,0);
ref = dotaccentcomb.case;
}
);
width = 547;
}
);
note = Gdotaccent;
unicode = 288;
},
{
color = 4;
glyphname = H;
kernLeft = H;
lastChange = "2023-11-24 14:34:00 +0000";
layers = (
{
anchors = (
{
name = top.case;
pos = (310,740);
}
);
background = {
anchors = (
{
name = top.case;
pos = (310,740);
}
);
shapes = (
{
closed = 1;
nodes = (
(477,-13,o),
(487,-10,o),
(487,2,cs),
(487,19,o),
(484,35,o),
(484,63,cs),
(484,71,o),
(484,81,o),
(485,92,cs),
(495,234,o),
(519,494,o),
(519,597,cs),
(519,698,o),
(449,728,o),
(402,728,cs),
(377,728,o),
(367,698,o),
(367,673,cs),
(364,497,o),
(346,320,o),
(335,109,cs),
(329,5,o),
(426,-13,o),
(465,-13,cs)
);
},
{
closed = 1;
nodes = (
(200,-13,o),
(210,-10,o),
(210,2,cs),
(210,19,o),
(207,35,o),
(207,63,cs),
(207,71,o),
(207,81,o),
(208,92,cs),
(218,234,o),
(242,494,o),
(242,545,cs),
(242,698,o),
(172,728,o),
(125,728,cs),
(100,728,o),
(90,698,o),
(90,673,cs),
(87,497,o),
(69,320,o),
(58,144,c),
(52,5,o),
(149,-13,o),
(188,-13,cs)
);
},
{
closed = 1;
nodes = (
(168,271,o),
(496,310,o),
(540,310,cs),
(565,310,o),
(577,314,o),
(577,338,cs),
(577,370,o),
(497,422,o),
(457,422,cs),
(406,422,o),
(121,395,o),
(31,379,cs),
(14,376,o),
(9,368,o),
(9,352,cs),
(9,327,o),
(65,271,o),
(108,271,cs)
);
}
);
};
hints = (
{
horizontal = 1;
place = (-13,21);
target = up;
type = BottomGhost;
},
{
horizontal = 1;
place = (728,-20);
target = down;
type = TopGhost;
},
{
place = (77,154);
type = Stem;
},
{
place = (359,153);
type = Stem;
}
);
layerId = "053302AA-4A2A-42DC-B919-9CC4D126D2B5";
shapes = (
{
closed = 1;
nodes = (
(477,-13,o),
(487,-10,o),
(487,2,cs),
(487,19,o),
(484,35,o),
(484,63,cs),
(484,71,o),
(484,81,o),
(485,92,cs),
(495,234,o),
(519,494,o),
(519,597,cs),
(519,698,o),
(449,728,o),
(402,728,cs),
(377,728,o),
(367,698,o),
(367,673,cs),
(364,497,o),
(346,320,o),
(335,109,cs),
(329,5,o),
(426,-13,o),
(465,-13,cs)
);
},
{
closed = 1;
nodes = (
(200,-13,o),
(210,-10,o),
(210,2,cs),
(210,19,o),
(207,35,o),
(207,63,cs),
(207,71,o),
(207,81,o),
(208,92,cs),
(218,234,o),
(242,494,o),
(242,545,cs),
(242,698,o),
(172,728,o),
(125,728,cs),
(100,728,o),
(90,698,o),
(90,673,cs),
(87,497,o),
(69,320,o),
(58,144,c),
(52,5,o),
(149,-13,o),
(188,-13,cs)
);
},
{
closed = 1;
nodes = (
(168,271,o),
(496,310,o),
(540,310,cs),
(565,310,o),
(577,314,o),
(577,338,cs),
(577,370,o),
(497,422,o),
(457,422,cs),
(406,422,o),
(121,395,o),
(31,379,cs),
(14,376,o),
(9,368,o),
(9,352,cs),
(9,327,o),
(65,271,o),
(108,271,cs)
);
}
);
width = 580;
}
);
note = H;
unicode = 72;
},
{
color = 4;
glyphname = Hbar;
kernLeft = H;
lastChange = "2023-11-24 14:34:08 +0000";
layers = (
{
background = {
anchors = (
{
name = top.case;
pos = (310,740);
}
);
hints = (
{
horizontal = 1;
place = (-13,21);
target = up;
type = BottomGhost;
},
{
horizontal = 1;
place = (728,-20);
target = down;
type = TopGhost;
},
{
place = (77,154);
type = Stem;
},
{
place = (359,153);
type = Stem;
}
);
shapes = (
{
closed = 1;
nodes = (
(508,492,ls),
(559,496,o),
(576,504,o),
(577,514,cs),
(577,545,o),
(505,606,o),
(459,602,cs),
(85,571,ls),
(34,567,o),
(17,558,o),
(16,548,cs),
(15,516,o),
(80,456,o),
(147,462,cs)
);
},
{
closed = 1;
nodes = (
(477,-13,o),
(487,-10,o),
(487,2,cs),
(487,19,o),
(484,35,o),
(484,63,cs),
(484,71,o),
(484,81,o),
(485,92,cs),
(495,234,o),
(519,494,o),
(519,597,cs),
(519,698,o),
(449,728,o),
(402,728,cs),
(377,728,o),
(367,698,o),
(367,673,cs),
(364,497,o),
(346,320,o),
(335,109,cs),
(329,5,o),
(426,-13,o),
(465,-13,cs)
);
},
{
closed = 1;
nodes = (
(200,-13,o),
(210,-10,o),
(210,2,cs),
(210,19,o),
(207,35,o),
(207,63,cs),
(207,71,o),
(207,81,o),
(208,92,cs),
(218,234,o),
(242,494,o),
(242,545,cs),
(242,698,o),
(172,728,o),
(125,728,cs),
(100,728,o),
(90,698,o),
(90,673,cs),
(87,497,o),
(69,320,o),
(58,144,c),
(52,5,o),
(149,-13,o),
(188,-13,cs)
);
},
{
closed = 1;
nodes = (
(168,271,o),
(496,310,o),
(540,310,cs),
(565,310,o),
(577,314,o),
(577,338,cs),
(577,370,o),
(497,422,o),
(457,422,cs),
(406,422,o),
(121,395,o),
(31,379,cs),
(14,376,o),
(9,368,o),
(9,352,cs),
(9,327,o),
(65,271,o),
(108,271,cs)
);
}
);
};
hints = (
{
horizontal = 1;
place = (-13,21);
target = up;
type = BottomGhost;
},
{
horizontal = 1;
place = (475,21);
target = up;
type = BottomGhost;
},
{
horizontal = 1;
place = (608,-20);
target = down;
type = TopGhost;
},
{
horizontal = 1;
place = (728,-20);
target = down;
type = TopGhost;
},
{
place = (77,154);
type = Stem;
},
{
place = (359,153);
type = Stem;
}
);
layerId = "053302AA-4A2A-42DC-B919-9CC4D126D2B5";
shapes = (
{
closed = 1;
nodes = (
(508,492,ls),
(559,496,o),
(576,504,o),
(577,514,cs),
(577,545,o),
(505,606,o),
(459,602,cs),
(85,571,ls),
(34,567,o),
(17,558,o),
(16,548,cs),
(15,516,o),
(80,456,o),
(147,462,cs)
);
},
{
ref = H;
}
);
width = 580;
}
);
note = Hbar;
unicode = 294;
},
{
color = 4;
glyphname = Hcircumflex;
kernLeft = H;
lastChange = "2023-11-24 14:34:08 +0000";
layers = (
{
background = {
anchors = (
{
name = top.case;
pos = (315,984);
}
);
hints = (
{
horizontal = 1;
place = (-13,21);
target = up;
type = BottomGhost;
},
{
horizontal = 1;
place = (728,-20);
target = down;
type = TopGhost;
},
{
place = (77,154);
type = Stem;
},
{
place = (359,153);
type = Stem;
},
{
horizontal = 1;
place = (758,21);
target = up;
type = BottomGhost;
},
{
horizontal = 1;
place = (974,-20);
target = down;
type = TopGhost;
}
);
shapes = (
{
closed = 1;
nodes = (
(477,-13,o),
(487,-10,o),
(487,2,cs),
(487,19,o),
(484,35,o),
(484,63,cs),
(484,71,o),
(484,81,o),
(485,92,cs),
(495,234,o),
(519,494,o),
(519,597,cs),
(519,698,o),
(449,728,o),
(402,728,cs),
(377,728,o),
(367,698,o),
(367,673,cs),
(364,497,o),
(346,320,o),
(335,109,cs),
(329,5,o),
(426,-13,o),
(465,-13,cs)
);
},
{
closed = 1;
nodes = (
(200,-13,o),
(210,-10,o),
(210,2,cs),
(210,19,o),
(207,35,o),
(207,63,cs),
(207,71,o),
(207,81,o),
(208,92,cs),
(218,234,o),
(242,494,o),
(242,545,cs),
(242,698,o),
(172,728,o),
(125,728,cs),
(100,728,o),
(90,698,o),
(90,673,cs),
(87,497,o),
(69,320,o),
(58,144,c),
(52,5,o),
(149,-13,o),
(188,-13,cs)
);
},
{
closed = 1;
nodes = (
(168,271,o),
(496,310,o),
(540,310,cs),
(565,310,o),
(577,314,o),
(577,338,cs),
(577,370,o),
(497,422,o),
(457,422,cs),
(406,422,o),
(121,395,o),
(31,379,cs),
(14,376,o),
(9,368,o),
(9,352,cs),
(9,327,o),
(65,271,o),
(108,271,cs)
);
},
{
closed = 1;
nodes = (
(232,752,o),
(259,787,o),
(309,838,c),
(343,797,o),
(382,762,o),
(421,762,cs),
(453,762,o),
(489,786,o),
(489,810,cs),
(489,817,o),
(487,824,o),
(480,830,cs),
(440,867,o),
(381,941,o),
(351,971,cs),
(344,978,o),
(335,982,o),
(327,982,cs),
(319,982,o),
(311,978,o),
(304,972,cs),
(267,938,o),
(192,858,o),
(151,825,cs),
(144,819,o),
(141,809,o),
(141,799,cs),
(141,777,o),
(155,752,o),
(182,752,cs)
);
}
);
};
hints = (
{
horizontal = 1;
place = (-13,21);
target = up;
type = BottomGhost;
},
{
horizontal = 1;
place = (728,-20);
target = down;
type = TopGhost;
},
{
place = (77,154);
type = Stem;
},
{
place = (359,153);
type = Stem;
},
{
horizontal = 1;
place = (754,21);
target = up;
type = BottomGhost;
},
{
horizontal = 1;
place = (960,-20);
target = down;
type = TopGhost;
}
);
layerId = "053302AA-4A2A-42DC-B919-9CC4D126D2B5";
shapes = (
{
ref = H;
},
{
pos = (315,0);
ref = circumflexcomb.case;
}
);
width = 580;
}
);
note = Hcircumflex;
unicode = 292;
},
{
color = 4;
glyphname = I;
kernLeft = H;
lastChange = "2023-11-24 14:34:00 +0000";
layers = (
{
anchors = (
{
name = bottom;
pos = (123,-35);
},
{
name = ogonek;
pos = (105,10);
},
{
name = top.case;
pos = (166,740);
}
);
background = {
anchors = (
{
name = bottom;
pos = (123,-35);
},
{
name = ogonek;
pos = (105,10);
},
{
name = top.case;
pos = (166,740);
}
);
shapes = (
{
closed = 1;
nodes = (
(184,-13,o),
(192,-10,o),
(194,2,cs),
(216,176,o),
(237,529,o),
(237,600,cs),
(237,699,o),
(167,728,o),
(128,728,cs),
(102,728,o),
(85,723,o),
(85,713,cs),
(85,502,o),
(52,228,o),
(52,105,cs),
(52,14,o),
(132,-13,o),
(172,-13,cs)
);
}
);
};
hints = (
{
horizontal = 1;
place = (-13,21);
target = up;
type = BottomGhost;
},
{
horizontal = 1;
place = (728,-20);
target = down;
type = TopGhost;
},
{
place = (85,152);
type = Stem;
}
);
layerId = "053302AA-4A2A-42DC-B919-9CC4D126D2B5";
shapes = (
{
closed = 1;
nodes = (
(184,-13,o),
(192,-10,o),
(194,2,cs),
(216,176,o),
(237,529,o),
(237,600,cs),
(237,699,o),
(167,728,o),
(128,728,cs),
(102,728,o),
(85,723,o),
(85,713,cs),
(85,502,o),
(52,228,o),
(52,105,cs),
(52,14,o),
(132,-13,o),
(172,-13,cs)
);
}
);
width = 285;
}
);
note = I;
unicode = 73;
},
{
color = 4;
glyphname = IJ;
lastChange = "2023-11-24 14:34:08 +0000";
layers = (
{
background = {
anchors = (
{
name = bottom;
pos = (123,-35);
},
{
name = ogonek;
pos = (105,10);
},
{
name = top.case;
pos = (515,740);
}
);
hints = (
{
horizontal = 1;
place = (-13,21);
target = up;
type = BottomGhost;
},
{
horizontal = 1;
place = (728,-20);
target = down;
type = TopGhost;
},
{
place = (85,152);
type = Stem;
},
{
horizontal = 1;
place = (-14,21);
target = up;
type = BottomGhost;
},
{
horizontal = 1;
place = (735,-20);
target = down;
type = TopGhost;
},
{
place = (415,257);
type = Stem;
},
{
place = (518,154);
type = Stem;
},
{
place = (495,150);
type = Stem;
}
);
shapes = (
{
closed = 1;
nodes = (
(184,-13,o),
(192,-10,o),
(194,2,cs),
(216,176,o),
(237,529,o),
(237,600,cs),
(237,699,o),
(167,728,o),
(128,728,cs),
(102,728,o),
(85,723,o),
(85,713,cs),
(85,502,o),
(52,228,o),
(52,105,cs),
(52,14,o),
(132,-13,o),
(172,-13,cs)
);
},
{
closed = 1;
nodes = (
(565,-14,o),
(639,49,o),
(647,165,cs),
(660,354,o),
(672,596,o),
(672,634,c),
(518,623,l),
(515,472,o),
(506,209,o),
(493,72,c),
(547,83,l),
(505,133,o),
(435,188,o),
(366,188,cs),
(330,188,o),
(295,168,o),
(295,129,cs),
(295,119,o),
(299,114,o),
(308,109,cs),
(375,71,o),
(429,-14,o),
(489,-14,cs)
);
},
{
closed = 1;
nodes = (
(486,608,o),
(525,625,o),
(629,625,cs),
(640,625,o),
(650,624,o),
(662,624,cs),
(669,624,o),
(672,627,o),
(672,634,cs),
(672,657,o),
(662,679,o),
(620,695,c),
(600,725,o),
(546,742,o),
(506,742,cs),
(452,742,o),
(377,731,o),
(339,731,cs),
(326,731,o),
(320,725,o),
(320,715,cs),
(320,676,o),
(375,608,o),
(440,608,cs)
);
}
);
};
layerId = "053302AA-4A2A-42DC-B919-9CC4D126D2B5";
shapes = (
{
ref = I;
},
{
pos = (285,0);
ref = J;
}
);
width = 708;
}
);
unicode = 306;
},
{
color = 4;
glyphname = Iacute;
kernLeft = H;
lastChange = "2023-11-24 14:34:08 +0000";
layers = (
{
background = {
anchors = (
{
name = bottom;
pos = (123,-35);
},
{
name = ogonek;
pos = (105,10);
},
{
name = top.case;
pos = (166,740);
}
);
hints = (
{
horizontal = 1;
place = (-13,21);
target = up;
type = BottomGhost;
},
{
horizontal = 1;
place = (728,-20);
target = down;
type = TopGhost;
},
{
place = (85,152);
type = Stem;
}
);
shapes = (
{
closed = 1;
nodes = (
(184,-13,o),
(192,-10,o),
(194,2,cs),
(216,176,o),
(237,529,o),
(237,600,cs),
(237,699,o),
(167,728,o),
(128,728,cs),
(102,728,o),
(85,723,o),
(85,713,cs),
(85,502,o),
(52,228,o),
(52,105,cs),
(52,14,o),
(132,-13,o),
(172,-13,cs)
);
},
{
closed = 1;
nodes = (
(218,762,o),
(353,817,o),
(353,867,cs),
(353,905,o),
(321,953,o),
(288,953,cs),
(279,953,o),
(269,949,o),
(260,940,cs),
(220,899,o),
(155,843,o),
(125,817,cs),
(119,812,o),
(116,805,o),
(116,799,cs),
(116,781,o),
(138,762,o),
(164,762,cs)
);
}
);
};
hints = (
{
horizontal = 1;
place = (-13,21);
target = up;
type = BottomGhost;
},
{
horizontal = 1;
place = (728,-20);
target = down;
type = TopGhost;
},
{
place = (85,152);
type = Stem;
},
{
horizontal = 1;
place = (762,21);
target = up;
type = BottomGhost;
},
{
horizontal = 1;
place = (933,-20);
target = down;
type = TopGhost;
},
{
place = (56,262);
type = Stem;
}
);
layerId = "053302AA-4A2A-42DC-B919-9CC4D126D2B5";
shapes = (
{
ref = I;
},
{
pos = (231,0);
ref = acutecomb.case;
}
);
width = 285;
}
);
note = Iacute;
unicode = 205;
},
{
color = 4;
glyphname = Ibreve;
kernLeft = H;
lastChange = "2023-11-24 14:34:08 +0000";
layers = (
{
background = {
anchors = (
{
name = bottom;
pos = (123,-35);
},
{
name = ogonek;
pos = (105,10);
},
{
name = top.case;
pos = (198,941);
}
);
hints = (
{
horizontal = 1;
place = (-13,21);
target = up;
type = BottomGhost;
},
{
horizontal = 1;
place = (728,-20);
target = down;
type = TopGhost;
},
{
place = (85,152);
type = Stem;
},
{
horizontal = 1;
place = (757,199);
type = Stem;
},
{
horizontal = 1;
place = (757,120);
type = Stem;
},
{
horizontal = 1;
place = (757,179);
type = Stem;
}
);
shapes = (
{
closed = 1;
nodes = (
(184,-13,o),
(192,-10,o),
(194,2,cs),
(216,176,o),
(237,529,o),
(237,600,cs),
(237,699,o),
(167,728,o),
(128,728,cs),
(102,728,o),
(85,723,o),
(85,713,cs),
(85,502,o),
(52,228,o),
(52,105,cs),
(52,14,o),
(132,-13,o),
(172,-13,cs)
);
},
{
closed = 1;
nodes = (
(242,758,o),
(332,810,o),
(352,915,cs),
(356,934,o),
(341,942,o),
(322,942,cs),
(299,942,o),
(271,930,o),
(261,910,cs),
(245,877,o),
(219,860,o),
(195,860,cs),
(162,860,o),
(133,891,o),
(138,953,cs),
(139,968,o),
(121,977,o),
(98,977,cs),
(63,977,o),
(16,954,o),
(16,895,cs),
(16,803,o),
(85,758,o),
(161,758,cs)
);
}
);
};
hints = (
{
horizontal = 1;
place = (-13,21);
target = up;
type = BottomGhost;
},
{
horizontal = 1;
place = (728,-20);
target = down;
type = TopGhost;
},
{
place = (85,152);
type = Stem;
},
{
horizontal = 1;
place = (762,199);
type = Stem;
},
{
horizontal = 1;
place = (762,120);
type = Stem;
},
{
horizontal = 1;
place = (762,179);
type = Stem;
}
);
layerId = "053302AA-4A2A-42DC-B919-9CC4D126D2B5";
shapes = (
{
ref = I;
},
{
pos = (185,0);
ref = brevecomb.case;
}
);
width = 285;
}
);
note = Ibreve;
unicode = 300;
},
{
color = 4;
glyphname = Icircumflex;
kernLeft = H;
lastChange = "2023-11-24 14:34:08 +0000";
layers = (
{
background = {
anchors = (
{
name = bottom;
pos = (123,-35);
},
{
name = ogonek;
pos = (105,10);
},
{
name = top.case;
pos = (171,984);
}
);
hints = (
{
horizontal = 1;
place = (-13,21);
target = up;
type = BottomGhost;
},
{
horizontal = 1;
place = (728,-20);
target = down;
type = TopGhost;
},
{
place = (85,152);
type = Stem;
},
{
horizontal = 1;
place = (758,21);
target = up;
type = BottomGhost;
},
{
horizontal = 1;
place = (974,-20);
target = down;
type = TopGhost;
}
);
shapes = (
{
closed = 1;
nodes = (
(184,-13,o),
(192,-10,o),
(194,2,cs),
(216,176,o),
(237,529,o),
(237,600,cs),
(237,699,o),
(167,728,o),
(128,728,cs),
(102,728,o),
(85,723,o),
(85,713,cs),
(85,502,o),
(52,228,o),
(52,105,cs),
(52,14,o),
(132,-13,o),
(172,-13,cs)
);
},
{
closed = 1;
nodes = (
(88,752,o),
(115,787,o),
(165,838,c),
(199,797,o),
(238,762,o),
(277,762,cs),
(309,762,o),
(345,786,o),
(345,810,cs),
(345,817,o),
(343,824,o),
(336,830,cs),
(296,867,o),
(237,941,o),
(207,971,cs),
(200,978,o),
(191,982,o),
(183,982,cs),
(175,982,o),
(167,978,o),
(160,972,cs),
(123,938,o),
(48,858,o),
(7,825,cs),
(0,819,o),
(-3,809,o),
(-3,799,cs),
(-3,777,o),
(11,752,o),
(38,752,cs)
);
}
);
};
hints = (
{
horizontal = 1;
place = (-13,21);
target = up;
type = BottomGhost;
},
{
horizontal = 1;
place = (728,-20);
target = down;
type = TopGhost;
},
{
place = (85,152);
type = Stem;
},
{
horizontal = 1;
place = (754,21);
target = up;
type = BottomGhost;
},
{
horizontal = 1;
place = (960,-20);
target = down;
type = TopGhost;
}
);
layerId = "053302AA-4A2A-42DC-B919-9CC4D126D2B5";
shapes = (
{
ref = I;
},
{
pos = (171,0);
ref = circumflexcomb.case;
}
);
width = 285;
}
);
note = Icircumflex;
unicode = 206;
},
{
color = 4;
glyphname = Idblgrave;
lastChange = "2023-11-24 14:34:08 +0000";
layers = (
{
background = {
anchors = (
{
name = bottom;
pos = (123,-35);
},
{
name = ogonek;
pos = (105,10);
},
{
name = top.case;
pos = (166,740);
}
);
hints = (
{
horizontal = 1;
place = (-13,21);
target = up;
type = BottomGhost;
},
{
horizontal = 1;
place = (728,-20);
target = down;
type = TopGhost;
},
{
place = (85,152);
type = Stem;
},
{
horizontal = 1;
origin = (0,17);
target = up;
type = BottomGhost;
},
{
horizontal = 1;
origin = (0,17);
target = down;
type = TopGhost;
},
{
origin = (0,17);
place = (172,232);
type = Stem;
},
{
origin = (0,17);
place = (172,232);
type = Stem;
},
{
horizontal = 1;
origin = (0,17);
target = up;
type = BottomGhost;
},
{
horizontal = 1;
origin = (0,17);
target = down;
type = TopGhost;
},
{
origin = (0,17);
place = (172,232);
type = Stem;
},
{
horizontal = 1;
origin = (0,17);
target = up;
type = BottomGhost;
},
{
horizontal = 1;
origin = (0,17);
target = down;
type = TopGhost;
},
{
origin = (0,17);
place = (172,232);
type = Stem;
}
);
shapes = (
{
closed = 1;
nodes = (
(184,-13,o),
(192,-10,o),
(194,2,cs),
(216,176,o),
(237,529,o),
(237,600,cs),
(237,699,o),
(167,728,o),
(128,728,cs),
(102,728,o),
(85,723,o),
(85,713,cs),
(85,502,o),
(52,228,o),
(52,105,cs),
(52,14,o),
(132,-13,o),
(172,-13,cs)
);
},
{
closed = 1;
nodes = (
(270,761,o),
(293,782,o),
(293,801,cs),
(293,808,o),
(290,814,o),
(283,820,cs),
(251,848,o),
(181,908,o),
(139,952,cs),
(129,962,o),
(119,966,o),
(109,966,cs),
(73,966,o),
(39,914,o),
(39,874,cs),
(39,820,o),
(184,761,o),
(241,761,cs)
);
},
{
closed = 1;
nodes = (
(35,761,o),
(58,782,o),
(58,801,cs),
(58,808,o),
(55,814,o),
(48,820,cs),
(16,848,o),
(-54,908,o),
(-96,952,cs),
(-106,962,o),
(-116,966,o),
(-126,966,cs),
(-162,966,o),
(-196,914,o),
(-196,874,cs),
(-196,820,o),
(-51,761,o),
(6,761,cs)
);
}
);
};
layerId = "053302AA-4A2A-42DC-B919-9CC4D126D2B5";
shapes = (
{
ref = I;
},
{
pos = (108,0);
ref = dblgravecomb.case;
}
);
width = 285;
}
);
unicode = 520;
},
{
color = 4;
glyphname = Idieresis;
kernLeft = H;
lastChange = "2023-11-24 14:34:08 +0000";
layers = (
{
background = {
anchors = (
{
name = bottom;
pos = (123,-35);
},
{
name = ogonek;
pos = (105,10);
},
{
name = top.case;
pos = (166,945);
}
);
hints = (
{
horizontal = 1;
place = (-13,21);
target = up;
type = BottomGhost;
},
{
horizontal = 1;
place = (728,-20);
target = down;
type = TopGhost;
},
{
place = (85,152);
type = Stem;
},
{
horizontal = 1;
place = (786,165);
type = Stem;
},
{
place = (-15,146);
type = Stem;
},
{
place = (178,146);
type = Stem;
},
{
place = (-15,168);
type = Stem;
},
{
place = (178,168);
type = Stem;
}
);
shapes = (
{
closed = 1;
nodes = (
(184,-13,o),
(192,-10,o),
(194,2,cs),
(216,176,o),
(237,529,o),
(237,600,cs),
(237,699,o),
(167,728,o),
(128,728,cs),
(102,728,o),
(85,723,o),
(85,713,cs),
(85,502,o),
(52,228,o),
(52,105,cs),
(52,14,o),
(132,-13,o),
(172,-13,cs)
);
},
{
closed = 1;
nodes = (
(305,786,o),
(312,787,o),
(324,790,c),
(324,862,o),
(346,898,o),
(346,929,cs),
(346,937,o),
(341,939,o),
(329,942,cs),
(306,948,o),
(286,951,o),
(267,951,cs),
(250,951,o),
(224,950,o),
(208,947,cs),
(179,940,o),
(178,903,o),
(178,878,cs),
(178,803,o),
(227,786,o),
(294,786,cs)
);
},
{
closed = 1;
nodes = (
(112,786,o),
(119,787,o),
(131,790,c),
(131,862,o),
(153,898,o),
(153,929,cs),
(153,937,o),
(148,939,o),
(136,942,cs),
(113,948,o),
(93,951,o),
(74,951,cs),
(57,951,o),
(31,950,o),
(15,947,cs),
(-14,940,o),
(-15,903,o),
(-15,878,cs),
(-15,803,o),
(34,786,o),
(101,786,cs)
);
}
);
};
hints = (
{
horizontal = 1;
place = (-13,21);
target = up;
type = BottomGhost;
},
{
horizontal = 1;
place = (728,-20);
target = down;
type = TopGhost;
},
{
place = (85,152);
type = Stem;
},
{
horizontal = 1;
place = (783,165);
type = Stem;
},
{
place = (-28,146);
type = Stem;
},
{
place = (165,146);
type = Stem;
},
{
place = (-28,168);
type = Stem;
},
{
place = (165,168);
type = Stem;
}
);
layerId = "053302AA-4A2A-42DC-B919-9CC4D126D2B5";
shapes = (
{
ref = I;
},
{
pos = (166,0);
ref = dieresiscomb.case;
}
);
width = 285;
}
);
note = Idieresis;
unicode = 207;
},
{
color = 4;
glyphname = Idotaccent;
kernLeft = H;
lastChange = "2023-11-24 14:34:08 +0000";
layers = (
{
background = {
anchors = (
{
name = bottom;
pos = (123,-35);
},
{
name = ogonek;
pos = (105,10);
},
{
name = top.case;
pos = (166,945);
}
);
hints = (
{
horizontal = 1;
place = (-13,21);
target = up;
type = BottomGhost;
},
{
horizontal = 1;
place = (728,-20);
target = down;
type = TopGhost;
},
{
place = (85,152);
type = Stem;
},
{
horizontal = 1;
place = (783,165);
type = Stem;
},
{
place = (82,146);
type = Stem;
},
{
place = (82,168);
type = Stem;
}
);
shapes = (
{
closed = 1;
nodes = (
(184,-13,o),
(192,-10,o),
(194,2,cs),
(216,176,o),
(237,529,o),
(237,600,cs),
(237,699,o),
(167,728,o),
(128,728,cs),
(102,728,o),
(85,723,o),
(85,713,cs),
(85,502,o),
(52,228,o),
(52,105,cs),
(52,14,o),
(132,-13,o),
(172,-13,cs)
);
},
{
closed = 1;
nodes = (
(209,783,o),
(216,784,o),
(228,787,c),
(238,859,o),
(250,895,o),
(250,926,cs),
(250,934,o),
(245,936,o),
(233,939,cs),
(210,945,o),
(190,948,o),
(171,948,cs),
(154,948,o),
(128,947,o),
(112,944,cs),
(83,937,o),
(83,900,o),
(81,875,cs),
(76,800,o),
(131,783,o),
(198,783,cs)
);
}
);
};
hints = (
{
horizontal = 1;
place = (-13,21);
target = up;
type = BottomGhost;
},
{
horizontal = 1;
place = (728,-20);
target = down;
type = TopGhost;
},
{
place = (85,152);
type = Stem;
},
{
horizontal = 1;
place = (763,165);
type = Stem;
},
{
place = (76,146);
type = Stem;
},
{
place = (76,168);
type = Stem;
}
);
layerId = "053302AA-4A2A-42DC-B919-9CC4D126D2B5";
shapes = (
{
ref = I;
},
{
pos = (166,0);
ref = dotaccentcomb.case;
}
);
width = 285;
}
);
note = Idotaccent;
unicode = 304;
},
{
color = 4;
glyphname = Idotbelow;
lastChange = "2023-11-24 14:34:08 +0000";
layers = (
{
background = {
anchors = (
{
name = bottom;
pos = (123,-35);
},
{
name = ogonek;
pos = (105,10);
},
{
name = top.case;
pos = (166,740);
}
);
hints = (
{
horizontal = 1;
place = (-13,21);
target = up;
type = BottomGhost;
},
{
horizontal = 1;
place = (728,-20);
target = down;
type = TopGhost;
},
{
place = (85,152);
type = Stem;
},
{
horizontal = 1;
place = (-208,165);
type = Stem;
},
{
place = (39,146);
type = Stem;
},
{
place = (39,168);
type = Stem;
}
);
shapes = (
{
closed = 1;
nodes = (
(184,-13,o),
(192,-10,o),
(194,2,cs),
(216,176,o),
(237,529,o),
(237,600,cs),
(237,699,o),
(167,728,o),
(128,728,cs),
(102,728,o),
(85,723,o),
(85,713,cs),
(85,502,o),
(52,228,o),
(52,105,cs),
(52,14,o),
(132,-13,o),
(172,-13,cs)
);
},
{
closed = 1;
nodes = (
(166,-208,o),
(173,-207,o),
(185,-204,c),
(195,-132,o),
(207,-96,o),
(207,-65,cs),
(207,-57,o),
(202,-55,o),
(190,-52,cs),
(167,-46,o),
(147,-43,o),
(128,-43,cs),
(111,-43,o),
(85,-44,o),
(69,-47,cs),
(40,-54,o),
(40,-91,o),
(38,-116,cs),
(33,-191,o),
(88,-208,o),
(155,-208,cs)
);
}
);
};
layerId = "053302AA-4A2A-42DC-B919-9CC4D126D2B5";
shapes = (
{
ref = I;
},
{
pos = (123,0);
ref = dotbelowcomb;
}
);
width = 285;
}
);
unicode = 7882;
},
{
color = 4;
glyphname = Igrave;
kernLeft = H;
lastChange = "2023-11-24 14:34:08 +0000";
layers = (
{
background = {
anchors = (
{
name = bottom;
pos = (123,-35);
},
{
name = ogonek;
pos = (105,10);
},
{
name = top.case;
pos = (166,740);
}
);
hints = (
{
horizontal = 1;
place = (-13,21);
target = up;
type = BottomGhost;
},
{
horizontal = 1;
place = (728,-20);
target = down;
type = TopGhost;
},
{
place = (85,152);
type = Stem;
}
);
shapes = (
{
closed = 1;
nodes = (
(184,-13,o),
(192,-10,o),
(194,2,cs),
(216,176,o),
(237,529,o),
(237,600,cs),
(237,699,o),
(167,728,o),
(128,728,cs),
(102,728,o),
(85,723,o),
(85,713,cs),
(85,502,o),
(52,228,o),
(52,105,cs),
(52,14,o),
(132,-13,o),
(172,-13,cs)
);
},
{
closed = 1;
nodes = (
(246,761,o),
(264,777,o),
(264,794,cs),
(264,800,o),
(261,807,o),
(254,812,cs),
(218,841,o),
(155,906,o),
(117,941,cs),
(109,949,o),
(99,952,o),
(88,952,cs),
(52,952,o),
(10,913,o),
(10,873,cs),
(10,839,o),
(136,761,o),
(216,761,cs)
);
}
);
};
hints = (
{
horizontal = 1;
place = (-13,21);
target = up;
type = BottomGhost;
},
{
horizontal = 1;
place = (728,-20);
target = down;
type = TopGhost;
},
{
place = (85,152);
type = Stem;
},
{
horizontal = 1;
place = (771,145);
type = Stem;
}
);
layerId = "053302AA-4A2A-42DC-B919-9CC4D126D2B5";
shapes = (
{
ref = I;
},
{
pos = (137,0);
ref = gravecomb.case;
}
);
width = 285;
}
);
note = Igrave;
unicode = 204;
},
{
color = 4;
glyphname = Ihookabove;
lastChange = "2023-11-24 14:34:08 +0000";
layers = (
{
background = {
anchors = (
{
name = bottom;
pos = (123,-35);
},
{
name = ogonek;
pos = (105,10);
},
{
name = top.case;
pos = (166,740);
}
);
hints = (
{
horizontal = 1;
place = (-13,21);
target = up;
type = BottomGhost;
},
{
horizontal = 1;
place = (728,-20);
target = down;
type = TopGhost;
},
{
place = (85,152);
type = Stem;
}
);
shapes = (
{
closed = 1;
nodes = (
(184,-13,o),
(192,-10,o),
(194,2,cs),
(216,176,o),
(237,529,o),
(237,600,cs),
(237,699,o),
(167,728,o),
(128,728,cs),
(102,728,o),
(85,723,o),
(85,713,cs),
(85,502,o),
(52,228,o),
(52,105,cs),
(52,14,o),
(132,-13,o),
(172,-13,cs)
);
},
{
closed = 1;
nodes = (
(179,771,o),
(188,774,o),
(198,779,cs),
(239,801,o),
(279,856,o),
(279,896,cs),
(279,955,o),
(223,1001,o),
(97,1001,cs),
(86,1001,o),
(75,1005,o),
(66,1005,cs),
(56,1005,o),
(50,1001,o),
(50,982,cs),
(50,948,o),
(54,884,o),
(93,884,cs),
(103,884,o),
(116,885,o),
(128,885,cs),
(147,885,o),
(164,883,o),
(164,871,cs),
(164,860,o),
(151,845,o),
(141,831,cs),
(136,824,o),
(134,817,o),
(134,809,cs),
(134,790,o),
(148,771,o),
(171,771,cs)
);
}
);
};
layerId = "053302AA-4A2A-42DC-B919-9CC4D126D2B5";
shapes = (
{
ref = I;
},
{
pos = (166,0);
ref = hookabovecomb.case;
}
);
width = 285;
}
);
unicode = 7880;
},
{
color = 4;
glyphname = Iinvertedbreve;
lastChange = "2023-11-24 14:34:08 +0000";
layers = (
{
background = {
anchors = (
{
name = bottom;
pos = (123,-35);
},
{
name = ogonek;
pos = (105,10);
},
{
name = top.case;
pos = (166,740);
}
);
hints = (
{
horizontal = 1;
place = (-13,21);
target = up;
type = BottomGhost;
},
{
horizontal = 1;
place = (728,-20);
target = down;
type = TopGhost;
},
{
place = (85,152);
type = Stem;
},
{
horizontal = 1;
place = (946.42,-198.243);
type = Stem;
},
{
horizontal = 1;
place = (946.42,-119.543);
type = Stem;
},
{
horizontal = 1;
place = (946.42,-178.319);
type = Stem;
}
);
shapes = (
{
closed = 1;
nodes = (
(184,-13,o),
(192,-10,o),
(194,2,cs),
(216,176,o),
(237,529,o),
(237,600,cs),
(237,699,o),
(167,728,o),
(128,728,cs),
(102,728,o),
(85,723,o),
(85,713,cs),
(85,502,o),
(52,228,o),
(52,105,cs),
(52,14,o),
(132,-13,o),
(172,-13,cs)
);
},
{
closed = 1;
nodes = (
(101,940,o),
(16,881,o),
(5,774,cs),
(3,755,o),
(18,749,o),
(37,750,cs),
(60,752,o),
(87,767,o),
(95,787,cs),
(108,822,o),
(133,841,o),
(156,843,cs),
(189,846,o),
(221,817,o),
(221,755,cs),
(222,740,o),
(240,733,o),
(263,735,cs),
(298,738,o),
(343,765,o),
(338,824,cs),
(330,915,o),
(257,954,o),
(181,948,cs)
);
}
);
};
layerId = "053302AA-4A2A-42DC-B919-9CC4D126D2B5";
shapes = (
{
ref = I;
},
{
pos = (166,0);
ref = breveinvertedcomb.case;
}
);
width = 285;
}
);
unicode = 522;
},
{
color = 4;
glyphname = Imacron;
kernLeft = H;
lastChange = "2023-11-24 14:34:08 +0000";
layers = (
{
background = {
anchors = (
{
name = bottom;
pos = (123,-35);
},
{
name = ogonek;
pos = (105,10);
},
{
name = top.case;
pos = (166,740);
}
);
hints = (
{
horizontal = 1;
place = (-13,21);
target = up;
type = BottomGhost;
},
{
horizontal = 1;
place = (728,-20);
target = down;
type = TopGhost;
},
{
place = (85,152);
type = Stem;
},
{
horizontal = 1;
place = (787.383,116.523);
type = Stem;
},
{
horizontal = 1;
place = (778.926,21);
target = up;
type = BottomGhost;
}
);
shapes = (
{
closed = 1;
nodes = (
(184,-13,o),
(192,-10,o),
(194,2,cs),
(216,176,o),
(237,529,o),
(237,600,cs),
(237,699,o),
(167,728,o),
(128,728,cs),
(102,728,o),
(85,723,o),
(85,713,cs),
(85,502,o),
(52,228,o),
(52,105,cs),
(52,14,o),
(132,-13,o),
(172,-13,cs)
);
},
{
closed = 1;
nodes = (
(286,782,ls),
(312,782,o),
(332,790,o),
(332,801,cs),
(332,827,o),
(291,895,o),
(240,892,cs),
(55,879,ls),
(11,875,o),
(-1,863,o),
(-1,851,cs),
(-1,835,o),
(36,781,o),
(64,781,cs)
);
}
);
};
hints = (
{
horizontal = 1;
place = (-13,21);
target = up;
type = BottomGhost;
},
{
horizontal = 1;
place = (728,-20);
target = down;
type = TopGhost;
},
{
place = (85,152);
type = Stem;
},
{
horizontal = 1;
place = (810,124);
type = Stem;
},
{
horizontal = 1;
place = (801,21);
target = up;
type = BottomGhost;
}
);
layerId = "053302AA-4A2A-42DC-B919-9CC4D126D2B5";
shapes = (
{
ref = I;
},
{
pos = (166,0);
ref = macroncomb.case;
}
);
width = 285;
}
);
note = Imacron;
unicode = 298;
},
{
color = 4;
glyphname = Iogonek;
kernLeft = H;
lastChange = "2023-11-24 14:34:08 +0000";
layers = (
{
background = {
anchors = (
{
name = bottom;
pos = (123,-35);
},
{
name = ogonek;
pos = (105,10);
},
{
name = top.case;
pos = (166,740);
}
);
hints = (
{
horizontal = 1;
place = (-13,21);
target = up;
type = BottomGhost;
},
{
horizontal = 1;
place = (728,-20);
target = down;
type = TopGhost;
},
{
place = (85,152);
type = Stem;
},
{
horizontal = 1;
place = (-144,116);
type = Stem;
},
{
place = (0,264);
type = Stem;
},
{
horizontal = 1;
place = (-144,92);
type = Stem;
},
{
place = (0,116);
type = Stem;
}
);
shapes = (
{
closed = 1;
nodes = (
(184,-13,o),
(192,-10,o),
(194,2,cs),
(216,176,o),
(237,529,o),
(237,600,cs),
(237,699,o),
(167,728,o),
(128,728,cs),
(102,728,o),
(85,723,o),
(85,713,cs),
(85,502,o),
(52,228,o),
(52,105,cs),
(52,14,o),
(132,-13,o),
(172,-13,cs)
);
},
{
closed = 1;
nodes = (
(200,-210,o),
(253,-141,o),
(253,-104,cs),
(253,-90,o),
(246,-81,o),
(231,-81,cs),
(206,-81,o),
(198,-115,o),
(150,-115,cs),
(134,-115,o),
(127,-104,o),
(127,-89,cs),
(127,-60,o),
(149,-16,o),
(174,12,c),
(114,39,l),
(59,3,o),
(18,-69,o),
(18,-120,cs),
(18,-172,o),
(54,-210,o),
(114,-210,cs)
);
}
);
};
hints = (
{
horizontal = 1;
place = (-144,92);
type = Stem;
},
{
horizontal = 1;
place = (-13,21);
target = up;
type = BottomGhost;
},
{
horizontal = 1;
place = (728,-20);
target = down;
type = TopGhost;
},
{
place = (85,152);
type = Stem;
},
{
horizontal = 1;
place = (-144,116);
type = Stem;
},
{
place = (51,264);
type = Stem;
}
);
layerId = "053302AA-4A2A-42DC-B919-9CC4D126D2B5";
shapes = (
{
ref = I;
},
{
pos = (136,0);
ref = ogonekcomb;
}
);
width = 285;
}
);
note = Iogonek;
unicode = 302;
},
{
color = 4;
glyphname = Itilde;
kernLeft = H;
lastChange = "2023-11-24 14:35:16 +0000";
layers = (
{
background = {
anchors = (
{
name = bottom;
pos = (123,-35);
},
{
name = ogonek;
pos = (105,10);
},
{
name = top.case;
pos = (192,909);
}
);
hints = (
{
horizontal = 1;
place = (-13,21);
target = up;
type = BottomGhost;
},
{
horizontal = 1;
place = (728,-20);
target = down;
type = TopGhost;
},
{
place = (85,152);
type = Stem;
},
{
horizontal = 1;
place = (762,164);
type = Stem;
},
{
horizontal = 1;
place = (931,-20);
target = down;
type = TopGhost;
},
{
horizontal = 1;
place = (748,178);
type = Stem;
},
{
horizontal = 1;
place = (779,164);
type = Stem;
},
{
horizontal = 1;
place = (948,-20);
target = down;
type = TopGhost;
},
{
horizontal = 1;
place = (765,178);
type = Stem;
}
);
shapes = (
{
closed = 1;
nodes = (
(184,-13,o),
(192,-10,o),
(194,2,cs),
(216,176,o),
(237,529,o),
(237,600,cs),
(237,699,o),
(167,728,o),
(128,728,cs),
(102,728,o),
(85,723,o),
(85,713,cs),
(85,502,o),
(52,228,o),
(52,105,cs),
(52,14,o),
(132,-13,o),
(172,-13,cs)
);
},
{
closed = 1;
nodes = (
(283,756,o),
(331,812,o),
(331,854,cs),
(331,896,o),
(318,924,o),
(303,926,cs),
(295,926,o),
(286,923,o),
(275,909,cs),
(264,894,o),
(252,887,o),
(240,887,cs),
(203,887,o),
(184,936,o),
(123,936,cs),
(77,936,o),
(29,880,o),
(29,838,cs),
(29,796,o),
(42,768,o),
(57,766,cs),
(65,766,o),
(74,769,o),
(86,783,cs),
(96,797,o),
(108,804,o),
(120,804,cs),
(155,804,o),
(182,756,o),
(237,756,cs)
);
}
);
};
hints = (
{
horizontal = 1;
place = (-13,21);
target = up;
type = BottomGhost;
},
{
horizontal = 1;
place = (728,-20);
target = down;
type = TopGhost;
},
{
place = (85,152);
type = Stem;
},
{
horizontal = 1;
place = (770,164);
type = Stem;
},
{
horizontal = 1;
place = (939,-20);
target = down;
type = TopGhost;
},
{
horizontal = 1;
place = (756,178);
type = Stem;
}
);
layerId = "053302AA-4A2A-42DC-B919-9CC4D126D2B5";
shapes = (
{
ref = I;
},
{
pos = (166,17);
ref = tildecomb.case;
}
);
width = 285;
}
);
note = Itilde;
unicode = 296;
},
